<svg id="Warstwa_1" data-name="Warstwa 1" xmlns="http://www.w3.org/2000/svg" viewBox="0 0 309.5 619"><defs><style>.cls-1{fill:#342449;}</style></defs><path class="cls-1" d="M309.5,0C138.57,0,0,138.57,0,309.5S138.57,619,309.5,619,619,480.43,619,309.5,480.43,0,309.5,0Zm0,572C164.53,572,47,454.47,47,309.5S164.53,47,309.5,47,572,164.53,572,309.5,454.47,572,309.5,572Z"/><path class="cls-1" d="M309.5,97C192.14,97,97,192.14,97,309.5S192.14,522,309.5,522,522,426.86,522,309.5,426.86,97,309.5,97Zm0,373.16A160.66,160.66,0,1,1,470.16,309.5,160.66,160.66,0,0,1,309.5,470.16Z"/></svg>