<svg id="Warstwa_1" data-name="Warstwa 1" xmlns="http://www.w3.org/2000/svg" viewBox="0 0 36 36"><defs><style>.cls-1{fill:#47b649;}</style></defs><path class="cls-1" d="M8.3,16H18a.94.94,0,0,0,1-1V7a1.08,1.08,0,0,0-1-1H12.2A4,4,0,0,0,8.4,8.8L6.6,14.7a1,1,0,0,0,1,1.3ZM42,19a.94.94,0,0,0-1-1H30a1.08,1.08,0,0,0-1,1v6a1.05,1.05,0,0,1-.5.9.9.9,0,0,1-.5.1,1.42,1.42,0,0,1-.6-.2L24,23.3l-3.4,2.5a.92.92,0,0,1-1,.1A1,1,0,0,1,19,25V19a1.08,1.08,0,0,0-1-1H7a.94.94,0,0,0-1,1V38a4,4,0,0,0,4,4H38a4,4,0,0,0,4-4ZM18,37a1.08,1.08,0,0,1-1,1H11a1.08,1.08,0,0,1-1-1V33a1.08,1.08,0,0,1,1-1h6a1.08,1.08,0,0,1,1,1Zm-1-7H11a1,1,0,0,1,0-2h6a1,1,0,0,1,0,2Zm20-4H32a1,1,0,0,1,0-2h5a1,1,0,0,1,0,2Zm0-4H32a1,1,0,0,1,0-2h5a1,1,0,0,1,0,2Zm-7-6H40.5a1,1,0,0,0,1-1.3L39.7,8.8A4.32,4.32,0,0,0,35.8,6H30a1.08,1.08,0,0,0-1,1v8A1.08,1.08,0,0,0,30,16Z" transform="translate(-6 -6)"/><rect class="cls-1" x="6" y="28" width="4" height="2"/><path class="cls-1" d="M24.6,21.2,27,23V7a.94.94,0,0,0-1-1H22a.94.94,0,0,0-1,1V23l2.4-1.8A1.42,1.42,0,0,1,24,21,1.42,1.42,0,0,1,24.6,21.2Z" transform="translate(-6 -6)"/></svg>