<svg id="Warstwa_1" data-name="Warstwa 1" xmlns="http://www.w3.org/2000/svg" viewBox="0 0 58.01 58"><defs><style>.cls-1{fill:#47b649;}</style></defs><path class="cls-1" d="M60,31.81a1,1,0,0,1-1-1C59,16.57,47.75,5,33.89,5a1,1,0,0,1,0-2C48.84,3,61,15.48,61,30.83A1,1,0,0,1,60,31.81Z" transform="translate(-2.99 -3)"/><path class="cls-1" d="M49.1,31.81a1,1,0,0,1-1-1A14.46,14.46,0,0,0,33.89,16.17a1,1,0,1,1,0-2,16.43,16.43,0,0,1,16.2,16.62,1,1,0,0,1-1,1Zm5.9,21a19.91,19.91,0,0,1-5.31,6.6A7.23,7.23,0,0,1,44,60.9c-9.07-1.54-18-5.52-26.91-14.28-8.51-9.13-12.5-18.45-14-27.76A7.72,7.72,0,0,1,4.52,13,19.41,19.41,0,0,1,11,7.5a2.62,2.62,0,0,1,3.69-.09l.09.09,8.81,9.15a3.12,3.12,0,0,1,0,4.24l-6.24,6.77C20,33.47,29.79,43.55,35.41,46.27L42,39.84a2.91,2.91,0,0,1,4.12,0h0l8.9,9a2.81,2.81,0,0,1,0,4Z" transform="translate(-2.99 -3)"/></svg>