<svg xmlns="http://www.w3.org/2000/svg" enable-background="new 0 0 48 48" viewBox="0 0 48 48"><path d="M8.3 16H18c.6 0 1-.4 1-1V8 7c0-.5-.5-1-1-1h-5.8c-1.8 0-3.3 1.2-3.8 2.8l-1.8 5.9c-.2.6.3 1.3 1 1.3H8.3zM42 19c0-.6-.4-1-1-1h-1H30c-.5 0-1 .5-1 1v6c0 .4-.2.7-.5.9C28.3 26 28.2 26 28 26c-.2 0-.4-.1-.6-.2L24 23.3l-3.4 2.5c-.3.2-.7.3-1 .1C19.2 25.7 19 25.4 19 25v-6c0-.5-.5-1-1-1H8 7c-.6 0-1 .4-1 1v19c0 2.2 1.8 4 4 4h28c2.2 0 4-1.8 4-4V19zM18 37c0 .5-.5 1-1 1h-6c-.5 0-1-.5-1-1v-4c0-.5.5-1 1-1h6c.5 0 1 .5 1 1V37zM17 30h-6c-.5 0-1-.5-1-1s.5-1 1-1h6c.5 0 1 .5 1 1S17.5 30 17 30zM37 26h-5c-.5 0-1-.5-1-1s.5-1 1-1h5c.5 0 1 .5 1 1S37.5 26 37 26zM37 22h-5c-.5 0-1-.5-1-1s.5-1 1-1h5c.5 0 1 .5 1 1S37.5 22 37 22zM30 16h9.7.8c.7 0 1.2-.6 1-1.3l-1.8-5.9C39.1 7.2 37.5 6 35.8 6H30c-.5 0-1 .5-1 1v1 7C29 15.5 29.5 16 30 16z"/><rect width="4" height="2" x="12" y="34"/><path d="M24.6,21.2L27,23v-5v-2V7c0-0.6-0.4-1-1-1h-4c-0.6,0-1,0.4-1,1v9v2v5l2.4-1.8c0.2-0.1,0.4-0.2,0.6-0.2S24.4,21.1,24.6,21.2
		z"/></svg>