<?xml version="1.0" encoding="utf-8"?>
<!-- Generator: Adobe Illustrator 25.0.0, SVG Export Plug-In . SVG Version: 6.00 Build 0)  -->
<svg version="1.1" id="Warstwa_1" xmlns="http://www.w3.org/2000/svg" xmlns:xlink="http://www.w3.org/1999/xlink" x="0px" y="0px"
	 viewBox="0 0 512 512" style="enable-background:new 0 0 512 512;" xml:space="preserve">
<style type="text/css">
	.st0{fill:none;stroke:#FFFFFF;stroke-width:40;stroke-linejoin:round;}
</style>
<circle class="st0" cx="256" cy="56" r="40"/>
<path class="st0" d="M204.2,274.4c2.9-18.1,4.2-35.5-0.5-47.6c-4-10.4-12.7-16.2-23.2-20.1L88,176.8c-12-4-23.2-10.7-24-23.9
	c-1-17,14-28,29-24c0,0,88,31.1,163,31.1s162-31,162-31c18-5,30,9,30,23.8c0,14.2-11,19.2-24,23.9l-88,31.9c-8,3-21,9-26,18.2
	c-6,10.8-5,29.5-2.1,47.6l5.9,29.6l37.4,163.9c2.8,13.1-6.3,25.4-19.4,27.7s-23.8-6.6-27.7-19.4l-37.6-115.9
	c-1.8-5.6-3.4-11.2-4.8-16.9L256,320l-5.3,21.6c-1.7,6.9-3.6,13.7-5.8,20.5l-36.9,114c-4,12.9-14.5,21.8-27.6,19.5
	S158,480,160.9,467.9l37.4-163.8L204.2,274.4z"/>
</svg>
