<?xml version="1.0" encoding="utf-8"?>
<!-- Generator: Adobe Illustrator 25.0.0, SVG Export Plug-In . SVG Version: 6.00 Build 0)  -->
<svg version="1.1" id="Warstwa_1" xmlns="http://www.w3.org/2000/svg" xmlns:xlink="http://www.w3.org/1999/xlink" x="0px" y="0px"
	 viewBox="0 0 274.9 72.5" style="enable-background:new 0 0 274.9 72.5;" xml:space="preserve">
<style type="text/css">
	.st0{fill-rule:evenodd;clip-rule:evenodd;fill:#FFFFFF;stroke:#FFFFFF;stroke-width:0.5;}
	.st1{fill:none;stroke:#FFFFFF;stroke-width:0.5;}
	.st2{fill-rule:evenodd;clip-rule:evenodd;fill:#1D1D1B;stroke:#FFFFFF;stroke-width:0.5;}
</style>
<polygon class="st0" points="51.3,36.4 50.2,41.9 36.1,41.9 37.2,36.4 "/>
<path class="st0" d="M53,53.4l7.4-38.7h7.8l-4.4,23.1h0.1c0.8-1,1.6-2.1,2.4-3l6.8-8.1h9.7l-11.3,11l7.4,15.6h-8.8L65.4,42l-2.9,2.8
	l-1.6,8.6H53z"/>
<path class="st0" d="M134.3,53l7.4-38.7h7.8l-4.4,23.1h0.1c0.8-1,1.6-2.1,2.4-3l6.8-8.1h9.7l-11.3,11l7.4,15.6h-8.8l-4.7-11.3
	l-2.9,2.8l-1.6,8.6H134.3z"/>
<path class="st0" d="M97.3,26.2c-9.5,0-15.9,7.6-15.9,16.8c0,6.6,4.5,11,11.3,11c9.2,0,15.9-7.1,15.9-16.8
	C108.6,31.1,104.5,26.2,97.3,26.2z M93.8,48c-2.8,0-4.3-2-4.3-5.2c0-4.2,2.3-10.7,6.8-10.7c3.1,0,4.2,2.6,4.2,5.1
	C100.5,41.7,98,48,93.8,48z"/>
<path class="st0" d="M111,53.4l3.1-15.8c0.7-4,1.1-8.5,1.4-10.8h6.8c-0.1,1.8-0.3,3.6-0.5,5.5h0.2c1.9-3.6,4.8-6.1,8.4-6.1
	c0.5,0,1,0.1,1.5,0.1l-1.5,7.7c-0.4,0-0.8-0.1-1.2-0.1c-5,0-7.4,4.4-8.3,9.6l-1.9,9.9L111,53.4L111,53.4z"/>
<path class="st0" d="M177.7,53.8c0.1,0,0.2,0,0.3,0c0.2-0.7,0.3-1.5,0.5-2.3l4.8-25.8h-7.9l-4.9,26.1c-0.1,0.7-0.3,1.4-0.5,1.9
	C172.5,53.7,175,53.7,177.7,53.8z"/>
<path class="st0" d="M180,22.2c-2.1,0.1-3.9-1.6-4-3.7c0-0.1,0-0.2,0-0.3c0-2.6,2-4.7,4.6-4.7c0.1,0,0.1,0,0.2,0
	c2.2-0.2,4,1.5,4.2,3.6c0,0.2,0,0.3,0,0.5c0,2.6-2,4.7-4.6,4.7C180.3,22.2,180.2,22.2,180,22.2L180,22.2L180,22.2z"/>
<path class="st0" d="M200.4,43.9l0.8,0.6c10.7,7.8,20,15.9,24.4,20.7l1-3.1c-4.2-4.5-12.6-11.8-23-19.4L211.4,7
	c0.2,0.1,0.5,0.1,0.8,0.2l-7.9,35.2l0.5,0.4c7.5,5.3,14.4,11.5,20.5,18.5c0.4,0.5,0.8,1,1.1,1.4l0.3-1l0,0l0.3-1l0,0l0.3-1.1
	l0.3-1.1c-0.3-0.5-0.7-0.9-1-1.4c-3.8-5.4-9.5-12.3-16.2-17.1l7.4-30.4l0,0l0.1-0.5l0.1-0.5l0.1-0.4l0.1-0.3V7.7l0.1-0.4l0.1-0.5
	l0,0l0.2-0.9l0.1-0.2c3.2,1.1,14.5,5.7,19.6,17.1l0.4-1.3l0.4-1.3C232.4,7.6,219,3.8,218.3,3.6l-0.9-0.2l-0.5,1.9
	c-1.1-0.4-2.2-0.7-3.3-1l-0.8-0.2l-0.1,0.6c-0.7-0.2-1.5-0.4-2.3-0.6l-1.1-0.6L200.4,43.9z"/>
<path class="st0" d="M227,60.3c-0.3-0.4-0.6-0.8-1-1.2c-5.9-6.6-12.4-12.5-19.6-17.6L214,7.7l0.1-0.5l0.1-0.5l0.1-0.4l0.1-0.3
	l2.4,0.7v0.1l-0.1,0.3l-0.2,0.4L216.4,8l-0.1,0.6l0,0l-7.8,31.9l0.5,0.4c7.2,5,13.2,12.5,17,18.1C226.4,59.4,226.7,59.9,227,60.3
	L227,60.3z"/>
<line class="st1" x1="228.2" y1="66" x2="242" y2="19.9"/>
<polygon class="st0" points="241.2,19.7 242,19.9 242.9,20.2 229.5,65.3 227.5,65.7 "/>
<path class="st0" d="M274.9,23.3l-1.2-0.6c-0.7-0.3-1.4-0.6-2.2-0.8l0.2-0.6l-0.8-0.3c-1.1-0.4-2.2-0.8-3.3-1.1l0.6-1.8l-0.9-0.3
	c-0.6-0.2-13.9-4.8-26.2,1.8l-0.4,1.3l-0.4,1.3c10.4-6.5,22.3-3.8,25.5-2.9l-0.1,0.2l-0.3,0.9l0,0l-0.2,0.5l-0.1,0.3l-0.1,0.2
	l-0.1,0.3l-0.2,0.4l-0.2,0.5l-0.2,0.5l0,0L254,52.6c-8.2,0.1-16.6,2.6-22.7,4.9c-0.6,0.2-1.1,0.4-1.6,0.6l-0.3,1.1l-0.3,1.1l0,0
	l-0.3,1l0,0l-0.3,1.1c0.5-0.2,1.1-0.3,1.7-0.5c8.8-2.3,17.9-3.5,27-3.6h0.6l12.5-33.7c0.3,0.1,0.5,0.2,0.8,0.3L258.3,59
	c-9.4,0.1-18.8,1.2-28.1,3l-0.2,0.6l-0.2,0.6l-0.1,0.4l-0.1,0.4l-0.2,0.6l-0.2,0.6c6.2-1.5,16.8-3,29.9-3.3h1L274.9,23.3z"/>
<path class="st0" d="M230.9,60c-0.5,0.1-1,0.3-1.5,0.4c0.5-0.2,1-0.4,1.5-0.6c6.1-2.4,15.2-5.2,23.9-5.2h0.6l10.8-31l0,0l0.2-0.5
	l0.2-0.5l0.1-0.4l0.1-0.3l0.1-0.1l2.4,0.8l-0.1,0.3l-0.1,0.4l-0.2,0.5l-0.2,0.5l-12,32.4C248,56.7,239.4,57.9,230.9,60L230.9,60z"/>
<path class="st2" d="M435.2,111.4"/>
<path class="st0" d="M33.8,34.1c0-5-3.9-8-9.3-8C14.9,26.1,9,34.6,9,42.7c0,7,3.9,11.3,11.6,11.3c3.4,0.1,6.8-0.7,9.9-2.1l-0.6-5.8
	c-2.4,1.1-4.9,1.7-7.5,1.7c-2.3,0-4.1-0.7-5.1-2.1c-0.5-0.8-0.8-1.7-0.8-2.7C27.2,43.3,33.8,40.9,33.8,34.1z M17.2,37.4
	c0.6-2.5,2.6-5.5,6.3-5.5c1.8,0,2.9,0.9,2.9,2.2C26.4,36.6,23.4,37.5,17.2,37.4z"/>
</svg>
