<?xml version="1.0" encoding="utf-8"?>
<!-- Generator: Adobe Illustrator 25.0.0, SVG Export Plug-In . SVG Version: 6.00 Build 0)  -->
<svg version="1.1" id="Warstwa_1" xmlns="http://www.w3.org/2000/svg" xmlns:xlink="http://www.w3.org/1999/xlink" x="0px" y="0px"
	 viewBox="0 0 700 550" style="enable-background:new 0 0 700 550;" xml:space="preserve">
<style type="text/css">
	.st0{fill:#A9A8AA;}
	.st1{fill:#664624;}
	.st2{fill:#A7988A;}
	.st3{fill:#F9977A;}
	.st4{fill:#158C37;}
	.st5{fill:#F73C4F;}
	.st6{fill:#0A4F6F;}
	.st7{fill:#8B9D36;}
	.st8{fill:#50661A;}
	.st9{fill:#5E7C24;}
	.st10{fill:#C4CE6E;}
	.st11{fill:#804B20;}
	.st12{fill:#00863B;}
	.st13{fill:#004A1D;}
	.st14{fill:#80A029;}
	.st15{fill:#59711C;}
	.st16{fill:#3F9135;}
	.st17{fill:#DD765E;}
	.st18{fill:#265C1F;}
	.st19{fill:#B02336;}
	.st20{fill:#1E1D22;}
</style>
<path class="st0" d="M428,452.2c16.2-5.1,30.8-10.3,48.4-20.1c18.1-10.2,98.5-58.5,108.9-142.2c2.7-22.9,0.5-46.2-6.7-68.2
	c-3.2-9.5-9.9-28.5-26.8-47.3c-20.7-23-44.3-32-58.2-37c-29.1-10.6-53.6-10.1-65.2-9.7c-12.6,0.4-34.7,1.3-59.9,12.3
	c-16.4,7.2-26.7,15.4-41.7,27.6c-23.9,19.4-27,27.5-68.7,67.6c-11.5,11-20.9,19.7-35.3,28.2c-10,5.9-18,9.2-32.9,15.3
	c-36.6,14.9-47,17.9-58.9,26.2c-23.3,16.3-21.8,34-22.8,37.8c-2.6,9.8-3.2,20-1.8,30c3.1,20.1,13.9,33.2,20.6,41.1
	c9.2,10.8,20.4,19.8,32.9,26.4c8.7,4.6,17.7,8.6,27,11.9H428z"/>
<path class="st1" d="M344.6,96.8h9.9c3,0,5.4,2.4,5.4,5.4v9.9c0,3-2.4,5.4-5.4,5.4h-9.9c-3,0-5.4-2.4-5.4-5.4v-9.9
	C339.2,99.2,341.6,96.8,344.6,96.8z"/>
<polygon class="st1" points="293.5,453.2 285.1,453.2 319,300.9 336.1,305.5 "/>
<polygon class="st1" points="406.6,453.2 415,453.2 381.1,300.9 364,305.5 "/>
<path class="st2" d="M220.5,109h259c1.9,0,3.5,1.6,3.5,3.5v205.9c0,1.9-1.6,3.5-3.5,3.5h-259c-1.9,0-3.5-1.6-3.5-3.5V112.5
	C217,110.5,218.5,109,220.5,109z"/>
<path class="st1" d="M304.6,312.8h90.7c1.5,0,2.8,1.2,2.8,2.8v7.6c0,1.5-1.2,2.8-2.8,2.8h-90.7c-1.5,0-2.8-1.2-2.8-2.8v-7.6
	C301.9,314.1,303.1,312.8,304.6,312.8z"/>
<path class="st3" d="M545.3,220.6c0,0-3.6-2.4-5.9-11.7s-3.1-16.8-0.1-10.8l2.3,4.6c0,0,1.4-7.5,1.9-12.1c0.2-2.5,2-4.5,4.5-5.1
	c2.2-0.4,3.8,0.6,4.3,5.9c0.7,8,0.9,12.2,0.5,14.3c-0.1,0.7-2.2,8.2-2.2,8.2L545.3,220.6z"/>
<path class="st3" d="M0,0"/>
<path class="st3" d="M560.9,425.4l3.6,18.8c0,0-11.7,4.5-18.7-7l-1.7-10.4L560.9,425.4z"/>
<path class="st1" d="M562.5,434.2c0,0,8.5,10.7,3.8,16.9c-0.5,0.7-1.3,1-2.1,1l-42.3-0.2c-0.8,0-1.4-0.6-1.4-1.4c0-0.1,0-0.1,0-0.2
	c0.2-2.2,1.3-6.2,5.4-8c5.9-2.6,10.1,2.1,19.9-6.4C545.8,436.1,558.6,439.8,562.5,434.2z"/>
<path class="st3" d="M509.3,424.7l-2.6,20.9c0,0-11,2-15.9-10.5l2.7-10.8L509.3,424.7z"/>
<path class="st1" d="M508.2,434.2c0,0,8.5,10.7,3.8,16.9c-0.5,0.7-1.3,1-2.1,1l-42.3-0.2c-0.8,0-1.4-0.6-1.4-1.4c0-0.1,0-0.1,0-0.2
	c0.2-2.2,1.3-6.2,5.4-8c5.9-2.6,9.3,1.1,19.2-7.4C490.8,435.1,504.2,439.8,508.2,434.2z"/>
<path class="st4" d="M545.7,213.4l5.9-1.3l7.8,27.9c2.6,9.2-9.4,15.4-15.4,7.9c-2.4-3-4.1-5.5-4.4-7l-1.3,15.7l3.5,24.3h-50.4V231
	l-12,15.7c-5.6,6.7-16,6.7-21.1-5.1l-8-17.6l11.2-6.9l8,12.8l16.2-24.5c3.9-5.9,10.4-9.4,17.5-9.4h24.4c4.5,0,8.7,2.3,11.1,6.1
	L545.7,213.4z"/>
<path class="st5" d="M0,0"/>
<path class="st6" d="M539.8,280.8l23.1,146.9c0.2,1.1-0.6,2.1-1.7,2.3c0,0-0.1,0-0.1,0l-15.6,1.5c-1,0.1-2-0.6-2.2-1.6l-25.4-124.8
	l-7.4,123.5c-0.1,1.1-0.9,1.9-2,1.9h-16.9c-1.1,0-2-0.9-2-2c0,0,0,0,0,0l2.9-147.6L539.8,280.8z"/>
<path class="st7" d="M0,0"/>
<path class="st3" d="M460,218l-5.9-15l-9.3-12.4c-0.5-0.6-1.4-0.8-2-0.3c0,0,0,0,0,0l0,0c-0.6,0.5-0.7,1.3-0.3,1.9l5.2,7.8
	c0,0-7.2-5.1-7.7,3.8c-0.1,1.2,0.8,2.3,2,2.6c0.9,0.2,1.7,0.5,2.5,0.9c0,0-0.9,8.4,4.6,8.7l2.3,7.3L460,218z"/>
<path class="st3" d="M0,0"/>
<path class="st8" d="M146.1,426c-0.9-5.5-1.5-11.1-1.6-16.7c-0.2-5.6,0.1-11.2,0.7-16.8c0.6-5.6,1.8-11.1,3.4-16.4
	c0.9-2.7,1.9-5.3,3.1-7.8c1.2-2.5,2.6-4.9,4.2-7.3c-2.9,4.8-5.2,9.9-6.8,15.2c-0.8,2.7-1.5,5.4-2,8.1c-0.5,2.7-0.9,5.5-1.3,8.3
	c-0.6,5.5-0.9,11.1-0.8,16.7c0,2.8,0.1,5.6,0.3,8.4C145.5,420.4,145.7,423.2,146.1,426z"/>
<path class="st9" d="M146.1,384.1c0,0-29.4,3.7-42.2-8.9c-9.5-9.4-0.5-25.5,12.5-22.6C125.2,354.6,135.9,362.4,146.1,384.1z"/>
<path class="st8" d="M146.1,384.1c-4.1-1.3-8.2-2.7-12.2-4.4c-4-1.6-7.9-3.4-11.7-5.4c-1.9-1-3.8-2.1-5.6-3.2
	c-1.8-1.1-3.6-2.4-5.3-3.7c-1.7-1.3-3.3-2.8-4.8-4.4c-1.5-1.6-2.7-3.4-3.5-5.4c1,1.9,2.2,3.7,3.8,5.2c1.5,1.5,3.1,2.9,4.9,4.2
	c3.5,2.5,7.1,4.8,11,6.7c3.8,2,7.7,3.8,11.6,5.6c2,0.9,4,1.7,6,2.5C142.1,382.6,144.1,383.4,146.1,384.1z"/>
<path class="st8" d="M0,0"/>
<path class="st10" d="M145,384c0,0-22.9-18.8-22.5-36.7c0.3-13.3,18.2-17.8,25-6.4C152.1,348.5,153.9,361.6,145,384z"/>
<path class="st7" d="M145,384c-2-3.8-3.8-7.8-5.3-11.8c-1.6-4-3-8.1-4.2-12.3c-0.6-2.1-1.1-4.2-1.5-6.3c-0.5-2.1-0.8-4.3-1-6.4
	c-0.2-2.2-0.2-4.3-0.1-6.5c0.2-2.2,0.7-4.3,1.6-6.3c-0.7,2-1.1,4.2-1.1,6.3c-0.1,2.1,0.1,4.3,0.4,6.4c0.6,4.2,1.5,8.4,2.7,12.6
	c1.1,4.1,2.5,8.2,3.9,12.3c0.7,2,1.5,4,2.2,6C143.4,380,144.2,382,145,384z"/>
<path class="st7" d="M0,0"/>
<path class="st10" d="M144.4,415.5c0,0-29.6,1.1-41.2-12.6c-8.6-10.2,1.8-25.4,14.5-21.3C126.2,384.2,136.2,392.9,144.4,415.5z"/>
<path class="st7" d="M144.4,415.5c-4-1.6-8-3.3-11.8-5.3c-3.8-2-7.6-4.1-11.2-6.4c-1.8-1.2-3.6-2.4-5.3-3.7c-1.7-1.3-3.4-2.7-5-4.2
	c-1.6-1.5-3-3.1-4.4-4.8c-1.3-1.7-2.3-3.7-3-5.8c0.8,2,1.9,3.8,3.3,5.5c1.4,1.6,2.9,3.2,4.5,4.6c3.2,2.8,6.7,5.4,10.3,7.6
	c3.6,2.4,7.3,4.5,11.1,6.6c1.9,1,3.8,2.1,5.7,3C140.5,413.5,142.4,414.5,144.4,415.5z"/>
<path class="st7" d="M0,0"/>
<path class="st9" d="M146.1,386.1c0,0,29.5,2.1,41.6-11.1c9-9.8-0.9-25.4-13.7-21.9C165.4,355.6,155.1,363.9,146.1,386.1z"/>
<path class="st8" d="M146.1,386.1c2-0.8,3.9-1.7,5.9-2.6c2-0.9,3.9-1.8,5.8-2.8c3.8-1.9,7.7-3.9,11.3-6.2c3.7-2.2,7.3-4.6,10.6-7.3
	c1.7-1.4,3.2-2.8,4.6-4.4c1.5-1.6,2.6-3.4,3.5-5.4c-0.8,2-1.9,3.9-3.2,5.6c-1.4,1.7-2.9,3.2-4.6,4.6c-1.6,1.4-3.3,2.7-5.1,4
	c-1.8,1.2-3.6,2.4-5.4,3.5c-3.7,2.2-7.5,4.2-11.4,6.1C154.1,383,150.2,384.7,146.1,386.1z"/>
<path class="st8" d="M0,0"/>
<path class="st7" d="M145,415.1c0,0,29.5,2.1,41.6-11.1c9-9.8-0.9-25.4-13.7-21.9C164.3,384.6,154,392.8,145,415.1z"/>
<path class="st9" d="M145,415.1c2-0.9,3.9-1.8,5.9-2.7c1.9-0.9,3.9-1.9,5.8-2.8c3.8-2,7.6-3.9,11.3-6.2c3.7-2.1,7.2-4.6,10.6-7.3
	c1.7-1.3,3.2-2.8,4.7-4.4c1.5-1.6,2.7-3.4,3.5-5.3c-0.7,2.1-1.8,4-3.2,5.6c-1.4,1.7-2.9,3.2-4.5,4.7c-1.6,1.4-3.3,2.8-5.1,4
	c-1.8,1.2-3.6,2.4-5.4,3.5c-3.7,2.2-7.6,4.2-11.5,6C153.1,412.1,149.1,413.7,145,415.1z"/>
<path class="st9" d="M0,0"/>
<path class="st7" d="M154.9,362.6c0,0-8.2-28.5,2.3-43c7.8-10.8,25.1-4.4,24.2,8.9C180.8,337.4,174.8,349.2,154.9,362.6z"/>
<path class="st9" d="M154.9,362.6c0.5-4.3,1.3-8.5,2.3-12.7c1-4.2,2.2-8.4,3.5-12.5c0.7-2,1.5-4.1,2.3-6.1c0.8-2,1.8-4,2.9-5.8
	c1.1-1.9,2.3-3.7,3.6-5.4c1.4-1.7,3-3.1,4.9-4.3c-1.7,1.3-3.2,2.8-4.5,4.6c-1.3,1.7-2.4,3.6-3.3,5.5c-1.9,3.8-3.6,7.8-4.9,11.9
	c-1.4,4-2.6,8.2-3.7,12.3c-0.6,2.1-1.1,4.2-1.6,6.3C155.8,358.4,155.3,360.5,154.9,362.6z"/>
<path class="st9" d="M0,0"/>
<path class="st1" d="M125.2,418.4v5.3c0,1,0.8,1.9,1.8,1.9h36.8c1,0,1.8-0.8,1.8-1.9v-4.9c0-1-0.8-1.8-1.8-1.9l-36.8-0.4
	C126,416.5,125.2,417.4,125.2,418.4C125.2,418.4,125.2,418.4,125.2,418.4z"/>
<polygon class="st11" points="126.9,425.6 128.2,453.2 161.6,453.2 163.8,425.6 "/>
<path class="st12" d="M269.9,170.8h-22.7c-0.6,0-1.1-0.5-1.1-1.1l0,0V141c0-0.6,0.5-1.1,1.1-1.1l0,0h31.5c0.6,0,1.1,0.5,1.1,1.1l0,0
	v20.9L269.9,170.8z"/>
<polygon class="st13" points="279.8,161.9 269.9,161.9 269.9,170.8 "/>
<path class="st13" d="M257.3,137h10.1c0.6,0,1.1,0.5,1.1,1.1v3.8c0,0.6-0.5,1.1-1.1,1.1h-10.1c-0.6,0-1.1-0.5-1.1-1.1v-3.8
	C256.2,137.5,256.7,137,257.3,137z"/>
<rect x="255" y="150.4" class="st13" width="15.8" height="1.1"/>
<rect x="255" y="157.2" class="st13" width="15.8" height="1.1"/>
<path class="st14" d="M449.1,297.4h-22.7c-0.6,0-1.1-0.5-1.1-1.1l0,0v-28.7c0-0.6,0.5-1.1,1.1-1.1l0,0h31.5c0.6,0,1.1,0.5,1.1,1.1
	l0,0v20.9L449.1,297.4z"/>
<polygon class="st15" points="459,288.5 449.1,288.5 449.1,297.4 "/>
<path class="st15" d="M436.5,263.5h10.1c0.6,0,1.1,0.5,1.1,1.1v3.8c0,0.6-0.5,1.1-1.1,1.1h-10.1c-0.6,0-1.1-0.5-1.1-1.1v-3.8
	C435.4,264,435.9,263.5,436.5,263.5z"/>
<rect x="434.2" y="277" class="st15" width="15.8" height="1.1"/>
<rect x="434.2" y="283.7" class="st15" width="15.8" height="1.1"/>
<path class="st12" d="M358.7,282.1h-5.8c-0.9,0-1.7-0.8-1.7-1.7c0-0.9,0.8-1.7,1.7-1.7c0,0,0,0,0,0h4.1v-3.8c0-0.9,0.8-1.7,1.7-1.7
	c0.9,0,1.7,0.8,1.7,1.7v5.5C360.4,281.4,359.6,282.1,358.7,282.1z M341.7,282.1h-11.3c-0.9,0-1.7-0.8-1.7-1.7c0-0.9,0.8-1.7,1.7-1.7
	c0,0,0,0,0,0h11.3c0.9,0,1.7,0.8,1.7,1.7C343.3,281.4,342.6,282.1,341.7,282.1z M319.1,282.1h-11.3c-0.9,0-1.7-0.8-1.7-1.7
	c0-0.9,0.8-1.7,1.7-1.7c0,0,0,0,0,0h11.3c0.9,0,1.7,0.8,1.7,1.7C320.8,281.4,320.1,282.1,319.1,282.1
	C319.1,282.1,319.1,282.1,319.1,282.1L319.1,282.1z M296.6,282.1h-11.3c-0.9,0-1.7-0.8-1.7-1.7c0-0.9,0.8-1.7,1.7-1.7c0,0,0,0,0,0
	h11.3c0.9,0,1.7,0.8,1.7,1.7C298.3,281.4,297.5,282.1,296.6,282.1C296.6,282.1,296.6,282.1,296.6,282.1z M274,282.1h-11.3
	c-0.9,0-1.7-0.8-1.7-1.7c0-0.9,0.8-1.7,1.7-1.7H274c0.9,0,1.7,0.8,1.7,1.7C275.7,281.4,275,282.1,274,282.1
	C274,282.1,274,282.1,274,282.1z M262.3,271.3c-0.9,0-1.7-0.8-1.7-1.7v-11.3c0-0.9,0.8-1.7,1.7-1.7c0.9,0,1.7,0.8,1.7,1.7v11.3
	C264,270.5,263.3,271.3,262.3,271.3z M358.7,265.4c-0.9,0-1.7-0.8-1.7-1.7v-11.3c0-0.9,0.8-1.7,1.7-1.7c0.9,0,1.7,0.8,1.7,1.7v11.3
	C360.4,264.6,359.6,265.4,358.7,265.4z M442.1,257.8c-0.9,0-1.7-0.8-1.7-1.7v-3.5c0-0.9,0.8-1.7,1.7-1.7c0.9,0,1.7,0.8,1.7,1.7v3.5
	C443.8,257.1,443.1,257.8,442.1,257.8z M262.3,248.7c-0.9,0-1.7-0.8-1.7-1.7v-11.3c0-0.9,0.8-1.7,1.7-1.7c0.9,0,1.7,0.8,1.7,1.7V247
	C264,247.9,263.3,248.7,262.3,248.7z M442.1,243.1c-0.9,0-1.7-0.8-1.7-1.7v-11.3c0-0.9,0.8-1.7,1.7-1.7c0.9,0,1.7,0.8,1.7,1.7v11.3
	C443.8,242.3,443.1,243.1,442.1,243.1z M358.7,242.8c-0.9,0-1.7-0.8-1.7-1.7v-11.3c0-0.9,0.8-1.7,1.7-1.7c0.9,0,1.7,0.8,1.7,1.7
	v11.3C360.4,242.1,359.6,242.8,358.7,242.8L358.7,242.8z M262.3,226.2c-0.9,0-1.7-0.8-1.7-1.7V224c0-0.9,0.8-1.7,1.7-1.7h10.8
	c0.9,0,1.7,0.8,1.7,1.7c0,0.9-0.8,1.7-1.7,1.7c0,0,0,0,0,0h-9.7C263.2,226,262.8,226.2,262.3,226.2L262.3,226.2z M312.7,225.7H307
	c-0.9,0-1.7-0.8-1.7-1.7c0-0.9,0.8-1.7,1.7-1.7c0,0,0,0,0,0h4v-3.9c0-0.9,0.8-1.7,1.7-1.7c0.9,0,1.7,0.8,1.7,1.7v5.6
	C314.4,224.9,313.6,225.7,312.7,225.7L312.7,225.7z M295.7,225.7h-11.3c-0.9,0-1.7-0.8-1.7-1.7c0-0.9,0.8-1.7,1.7-1.7c0,0,0,0,0,0
	h11.3c0.9,0,1.7,0.8,1.7,1.7C297.4,224.9,296.7,225.7,295.7,225.7C295.7,225.7,295.7,225.7,295.7,225.7z M440,222.6h-11.3
	c-0.9,0-1.7-0.8-1.7-1.7c0-0.9,0.8-1.7,1.7-1.7c0,0,0,0,0,0H440c0.9,0,1.7,0.8,1.7,1.7C441.7,221.9,440.9,222.6,440,222.6
	C440,222.6,440,222.6,440,222.6z M417.4,222.6h-11.3c-0.9,0-1.7-0.8-1.7-1.7c0-0.9,0.8-1.7,1.7-1.7c0,0,0,0,0,0h11.3
	c0.9,0,1.7,0.8,1.7,1.7C419.1,221.9,418.4,222.6,417.4,222.6C417.5,222.6,417.4,222.6,417.4,222.6z M394.9,222.6h-11.3
	c-0.9,0-1.7-0.8-1.7-1.7c0-0.9,0.8-1.7,1.7-1.7c0,0,0,0,0,0h11.3c0.9,0,1.7,0.8,1.7,1.7C396.6,221.9,395.8,222.6,394.9,222.6
	C394.9,222.6,394.9,222.6,394.9,222.6L394.9,222.6z M372.4,222.6h-11.3c-0.9,0-1.7-0.8-1.7-1.7c0-0.9,0.8-1.7,1.7-1.7c0,0,0,0,0,0
	h11.3c0.9,0,1.7,0.8,1.7,1.7C374,221.9,373.3,222.6,372.4,222.6C372.4,222.6,372.4,222.6,372.4,222.6z M312.7,208.9
	c-0.9,0-1.7-0.8-1.7-1.7v-11.3c0-0.9,0.8-1.7,1.7-1.7c0.9,0,1.7,0.8,1.7,1.7v11.3C314.4,208.1,313.6,208.9,312.7,208.9z
	 M436.5,188.2h-9.2c-0.9,0-1.7-0.8-1.7-1.7c0-0.9,0.8-1.7,1.7-1.7c0,0,0,0,0,0h7.5v-0.4c0-0.9,0.8-1.7,1.7-1.7
	c0.9,0,1.7,0.8,1.7,1.7v2.1C438.2,187.4,437.4,188.2,436.5,188.2z M416,188.2h-11.3c-0.9,0-1.7-0.8-1.7-1.7c0-0.9,0.8-1.7,1.7-1.7
	c0,0,0,0,0,0H416c0.9,0,1.7,0.8,1.7,1.7C417.7,187.4,417,188.2,416,188.2C416,188.2,416,188.2,416,188.2z M393.5,188.2h-11.3
	c-0.9,0-1.7-0.8-1.7-1.7c0-0.9,0.8-1.7,1.7-1.7c0,0,0,0,0,0h11.3c0.9,0,1.7,0.8,1.7,1.7C395.2,187.4,394.4,188.2,393.5,188.2
	C393.5,188.2,393.5,188.2,393.5,188.2z M370.9,188.2h-11.3c-0.9,0-1.7-0.8-1.7-1.7c0-0.9,0.8-1.7,1.7-1.7c0,0,0,0,0,0h11.3
	c0.9,0,1.7,0.8,1.7,1.7C372.6,187.4,371.9,188.2,370.9,188.2C370.9,188.2,370.9,188.2,370.9,188.2z M348.4,188.2h-11.3
	c-0.9,0-1.7-0.8-1.7-1.7c0-0.9,0.8-1.7,1.7-1.7c0,0,0,0,0,0h11.3c0.9,0,1.7,0.8,1.7,1.7C350.1,187.4,349.3,188.2,348.4,188.2
	C348.4,188.2,348.4,188.2,348.4,188.2z M325.8,188.2h-11.3c-0.9,0-1.7-0.8-1.7-1.7c0-0.9,0.8-1.7,1.7-1.7c0,0,0,0,0,0h11.3
	c0.9,0,1.7,0.8,1.7,1.7C327.5,187.4,326.8,188.2,325.8,188.2C325.8,188.2,325.8,188.2,325.8,188.2z M436.5,174.8
	c-0.9,0-1.7-0.8-1.7-1.7v-11.3c0-0.9,0.8-1.7,1.7-1.7c0.9,0,1.7,0.8,1.7,1.7v11.3C438.2,174.1,437.4,174.8,436.5,174.8L436.5,174.8z
	 M436.5,152.3c-0.3,0-0.5-0.1-0.8-0.2h-10.3c-0.9,0-1.7-0.8-1.7-1.7c0-0.9,0.8-1.7,1.7-1.7c0,0,0,0,0,0h11.1c0.9,0,1.7,0.8,1.7,1.7
	v0.2C438.2,151.5,437.4,152.3,436.5,152.3L436.5,152.3z M414.1,152.1h-11.3c-0.9,0-1.7-0.8-1.7-1.7c0-0.9,0.8-1.7,1.7-1.7
	c0,0,0,0,0,0h11.3c0.9,0,1.7,0.8,1.7,1.7C415.8,151.3,415.1,152.1,414.1,152.1C414.1,152.1,414.1,152.1,414.1,152.1z M391.6,152.1
	h-11.3c-0.9,0-1.7-0.8-1.7-1.7c0-0.9,0.8-1.7,1.7-1.7c0,0,0,0,0,0h11.3c0.9,0,1.7,0.8,1.7,1.7C393.3,151.3,392.5,152.1,391.6,152.1
	C391.6,152.1,391.6,152.1,391.6,152.1z M369,152.1h-11.3c-0.9,0-1.7-0.8-1.7-1.7c0-0.9,0.8-1.7,1.7-1.7c0,0,0,0,0,0H369
	c0.9,0,1.7,0.8,1.7,1.7C370.7,151.3,370,152.1,369,152.1C369,152.1,369,152.1,369,152.1z M346.5,152.1h-11.3c-0.9,0-1.7-0.8-1.7-1.7
	c0-0.9,0.8-1.7,1.7-1.7c0,0,0,0,0,0h11.3c0.9,0,1.7,0.8,1.7,1.7C348.2,151.3,347.4,152.1,346.5,152.1
	C346.5,152.1,346.5,152.1,346.5,152.1z M323.9,152.1h-11.3c-0.9,0-1.7-0.8-1.7-1.7c0-0.9,0.8-1.7,1.7-1.7c0,0,0,0,0,0h11.3
	c0.9,0,1.7,0.8,1.7,1.7C325.6,151.3,324.9,152.1,323.9,152.1C323.9,152.1,323.9,152.1,323.9,152.1z M301.4,152.1h-11.3
	c-0.9,0-1.7-0.8-1.7-1.7c0-0.9,0.8-1.7,1.7-1.7c0,0,0,0,0,0h11.3c0.9,0,1.7,0.8,1.7,1.7C303.1,151.3,302.3,152.1,301.4,152.1
	C301.4,152.1,301.4,152.1,301.4,152.1z"/>
<path class="st16" d="M325.8,245.2h-22.7c-0.6,0-1.1-0.5-1.1-1.1l0,0v-28.7c0-0.6,0.5-1.1,1.1-1.1l0,0h31.5c0.6,0,1.1,0.5,1.1,1.1
	l0,0v20.9L325.8,245.2z"/>
<polygon class="st17" points="522.6,190.6 523.6,196 502.2,196 499.9,194.5 498.7,192.8 498.3,191.3 498.3,190 498.3,188.6 
	498.9,185.7 499.5,183.4 499.8,182.1 497.2,182.1 495.9,182.1 498.5,175.7 499.2,173.4 498.8,170.3 497.3,167.7 497.2,164.1 
	499.2,162.7 "/>
<polygon class="st18" points="335.7,236.3 325.8,236.3 325.8,245.2 "/>
<path class="st18" d="M313.2,211.3h10.1c0.6,0,1.1,0.5,1.1,1.1v3.8c0,0.6-0.5,1.1-1.1,1.1h-10.1c-0.6,0-1.1-0.5-1.1-1.1v-3.8
	C312.1,211.8,312.6,211.3,313.2,211.3z"/>
<rect x="310.9" y="224.8" class="st18" width="15.8" height="1.1"/>
<rect x="310.9" y="231.5" class="st18" width="15.8" height="1.1"/>
<path class="st19" d="M0,0"/>
<path class="st19" d="M0,0"/>
<path class="st5" d="M345.2,158.3c-0.5,0-0.8-0.4-0.8-0.8c0-0.2,0.1-0.4,0.2-0.6l14.1-14.1c0.3-0.3,0.9-0.3,1.2,0
	c0.3,0.3,0.3,0.9,0,1.2L345.8,158C345.6,158.2,345.4,158.3,345.2,158.3z"/>
<path class="st20" d="M522.6,190.5c0,0-13.2,2.1-17.4-13.2c0,0,5.9-3.2,0-6.8c0,0-3.2-0.7-3.3,1.3l-4.9-10.7c0,0-5.1,1.2-4.8-4.8
	c0,0-5.2-3.1,1.2-5.7c0,0-0.3-7.5,6.8-2c0,0,4.8-11.1,17.1,4.7c0,0,20,1.7,10.5,18.4L522.6,190.5z"/>
<polygon class="st17" points="498.8,170.3 498.4,169.7 498.1,169.3 497.9,168.9 497.6,168.4 497.4,168 497.3,167.7 497.2,167.1 
	497.1,166.6 497.1,166 497.1,165.5 497.1,165 497.1,164.5 497.2,164.1 497.3,163.5 497.5,163.2 497.8,163 498,163.5 "/>
</svg>
