<?xml version="1.0" encoding="utf-8"?>
<!-- Generator: Adobe Illustrator 25.0.0, SVG Export Plug-In . SVG Version: 6.00 Build 0)  -->
<svg version="1.1" id="Warstwa_1" xmlns="http://www.w3.org/2000/svg" xmlns:xlink="http://www.w3.org/1999/xlink" x="0px" y="0px"
	 viewBox="0 0 512 512" style="enable-background:new 0 0 512 512;" xml:space="preserve">
<path d="M501,322.4c-2.2-1.9-3.5-4.5-3.5-7.4v-29.3c0-12.7-8.1-23.9-20.1-28L444,246.4c-2.2-0.7-4.1-2.4-5-4.6l-18-43.2
	c-8.2-19.6-27.3-32.3-48.5-32.3h-28.9c-15,0-27.1,12.2-27.1,27.1v86.8h-14.8V138.6c0-16.9-13.8-30.7-30.7-30.7H30.7
	c-17,0-30.7,13.8-30.7,30.7C0,152,0,326.5,0.1,343.3c0,16.9,13.8,30.7,30.7,30.7h1.9c-0.7-3.7-1.1-7.5-1.1-11.4
	c0-34.7,28.2-62.9,62.9-62.9c17,0,32.3,6.7,43.6,17.7c11.3-11,26.7-17.7,43.7-17.7c34.7,0,62.9,28.2,62.9,62.9
	c0,3.9-0.4,7.7-1.1,11.4h115c-0.7-3.7-1.1-7.5-1.1-11.4c0-34.7,28.2-62.9,62.9-62.9s62.9,28.2,62.9,62.9c0,3.9-0.4,7.7-1.1,11.4h2
	c15.3,0,27.8-12.4,27.8-27.8C512,337,508,328.3,501,322.4z M337.8,243.2v-49.9c0-3.2,2.6-5.8,5.8-5.8h28.9c12.6,0,24,7.5,28.9,19.2
	l15.3,36.4L337.8,243.2L337.8,243.2L337.8,243.2z"/>
<path d="M223.3,362.5c0,22.9-18.7,41.6-41.5,41.6c-22.9,0-41.6-18.7-41.6-41.6s18.7-41.6,41.6-41.6
	C204.6,320.9,223.3,339.6,223.3,362.5z M462,362.5c0,22.9-18.7,41.6-41.6,41.6s-41.5-18.7-41.5-41.6s18.6-41.6,41.5-41.6
	S462,339.6,462,362.5z M136,362.5c0,22.9-18.6,41.6-41.5,41.6s-41.6-18.7-41.6-41.6s18.7-41.6,41.6-41.6S136,339.6,136,362.5z"/>
</svg>
