<svg id="Warstwa_1" data-name="Warstwa 1" xmlns="http://www.w3.org/2000/svg" viewBox="0 0 24 24"><defs><style>.cls-1{fill:none;}.cls-2{fill:#47b649;}</style></defs><path class="cls-1" d="M0,0H24V24H0Z" transform="translate(0 0)"/><path class="cls-2" d="M7,18a2,2,0,1,0,2,2A2,2,0,0,0,7,18ZM1,3A1,1,0,0,0,2,4H3l3.6,7.59L5.25,14A2,2,0,0,0,7,17H18a1,1,0,0,0,0-2H7l1.1-2h7.45a2,2,0,0,0,1.75-1l3.58-6.49A1,1,0,0,0,20,4H5.21L4.54,2.57A1,1,0,0,0,3.64,2H2A1,1,0,0,0,1,3ZM17,18a2,2,0,1,0,2,2A2,2,0,0,0,17,18Z" transform="translate(0 0)"/></svg>