<?xml version="1.0" encoding="utf-8"?>
<!-- Generator: Adobe Illustrator 25.0.0, SVG Export Plug-In . SVG Version: 6.00 Build 0)  -->
<svg version="1.1"
	 id="Warstwa_1" text-rendering="geometricPrecision" shape-rendering="geometricPrecision" image-rendering="optimizeQuality"
	 xmlns="http://www.w3.org/2000/svg" xmlns:xlink="http://www.w3.org/1999/xlink" x="0px" y="0px" viewBox="0 0 1792 1792"
	 style="enable-background:new 0 0 1792 1792;" xml:space="preserve">
<style type="text/css">
	.st0{fill:none;}
	.st1{fill:#BDBDBD;}
	.st2{fill:#132E42;}
	.st3{fill:#E7F6FD;}
	.st4{fill:#D9D9D9;}
	.st5{fill:#A5DFF9;}
	.st6{fill:#FF5956;}
	.st7{fill:#116627;}
	.st8{fill:#815932;}
	.st9{fill:#06431B;}
	.st10{fill:#664624;}
	.st11{fill:#9D764B;}
	.st12{fill:#FFFFFF;}
	.st13{fill:#9D744B;}
	.st14{fill:#158C37;}
	.st15{fill:#0A4F6F;}
	.st16{fill:#D6B792;}
	.st17{fill:#CF9E5F;}
</style>
<rect y="0" class="st0" width="1792" height="1792"/>
<polygon class="st1" points="1151,587.6 1137.2,582.2 1119,591.1 1119.8,602.2 1137.8,625.9 1168.8,610.8 "/>
<path class="st2" d="M1299.8,774.5l-116.5,56.9c-6.6,3.2-14.6,0.5-17.8-6.1l-83.8-171.6c-3.2-6.6-0.5-14.6,6.1-17.8l116.5-56.9
	c6.6-3.2,14.6-0.5,17.8,6.1l83.8,171.6C1309.1,763.3,1306.4,771.3,1299.8,774.5L1299.8,774.5z"/>
<polygon class="st3" points="1295.7,763.1 1176.8,821.2 1091.8,647.2 1210.8,589.1 "/>
<polygon class="st4" points="1169.5,610.4 1137.8,625.9 1129.7,635.4 1135,646.4 1186.6,621.2 1181.3,610.3 "/>
<polygon class="st4" points="1150.6,569.2 1132.3,578.1 1128.7,593.8 1137.9,625.9 1169,610.7 1159.6,578 "/>
<polygon class="st5" points="1216.4,634.8 1124.4,679.8 1122.1,675 1214.1,630.1 "/>
<polygon class="st5" points="1227.3,657.1 1135.3,702 1133,697.3 1225,652.3 "/>
<polygon class="st5" points="1237.5,678 1145.5,722.9 1143.2,718.2 1235.2,673.3 "/>
<polygon class="st5" points="1248.3,700.1 1156.3,745 1154,740.3 1246,695.4 "/>
<polygon class="st5" points="1257.8,719.6 1165.8,764.5 1163.5,759.8 1255.5,714.9 "/>
<polygon class="st5" points="1269,742.6 1177,787.5 1174.7,782.8 1266.7,737.9 "/>
<polygon class="st6" points="1191.9,632 1129.1,662.6 1126.8,657.9 1189.6,627.2 "/>
<polygon class="st6" points="1277.3,753.1 1214.5,783.8 1212.2,779.1 1275,748.4 "/>
<polygon class="st6" points="1264.8,727.6 1223.2,747.9 1220.9,743.2 1262.5,722.9 "/>
<path class="st7" d="M1182.6,764.9l18.5,47.2l147.1-155c0,0-169.6-216.6-189.5-216.6l-36.6,20.3c-4.8,1.3-4.5,59.9,28.9,94.2
	c46.3,47.5,106.9,102.1,106.9,102.1L1182.6,764.9z"/>
<path class="st8" d="M1173.1,769.7l-24.4,22.2v83c0,0,29.1-13.7,36.2-28.4c11.6-24.3,8.1-54.6,8.1-54.6L1173.1,769.7z"/>
<polygon class="st9" points="1163,768.8 1194.4,820.2 1219.8,800.1 1189.7,747.8 "/>
<path class="st10" d="M975.7,1721.3v-50.8h-81.2c0,0-63.3-5-72.5,9.9c-5.2,8.5-3.3,40.9-3.3,40.9H975.7L975.7,1721.3z"/>
<polygon class="st11" points="818.4,1721 976,1721 976,1708.1 818.4,1708.1 "/>
<path class="st10" d="M1042.8,1721.3v-50.8h81.2c0,0,63.3-5,72.5,9.9c5.2,8.5,3.3,40.9,3.3,40.9H1042.8z"/>
<polygon class="st11" points="1042.6,1721 1200.2,1721 1200.2,1708.1 1042.6,1708.1 "/>
<path class="st2" d="M869.5,885.5c0,0-7.1,179.8-7.1,231.3c0,51.5,21.1,553.8,21.1,553.8h92.2l29.6-601h8.2l29.3,601h92.2
	c0,0,21.1-498.4,21.1-551.5c0-53.1-7.1-233.6-7.1-233.6H869.5z"/>
<path class="st12" d="M1062.6,557.6H959.4V437.4c0,0,17.6,25.4,49.6,25.4c32,0,53.6-30.1,53.6-30.1V557.6z"/>
<polygon class="st10" points="1149.2,885.5 869.4,885.5 868.2,921 1150.4,921 "/>
<polygon class="st2" points="1070.7,921 1083.3,921 1083.3,885.5 1070.7,885.5 "/>
<polygon class="st2" points="935.6,921 948.2,921 948.2,885.5 935.6,885.5 "/>
<path d="M1109.7,218.2c0,63.1-44.8,114.2-100,114.2c-55.2,0-100-51.1-100-114.2c0-63,44.8-114.1,100-114.1
	C1064.9,104.1,1109.7,155.2,1109.7,218.2L1109.7,218.2z"/>
<path class="st10" d="M1009.7,468.4c52.7,0,38.3-26.2,45.9-41.5l-12-74.6h-68c0,0-9.7,57.3-12,74.8
	C969.1,443.5,957,468.4,1009.7,468.4L1009.7,468.4z"/>
<path class="st8" d="M1103,247.1c0,71.8-16.4,148.8-93.5,148.8c-77.1,0-93.5-77-93.5-148.8c0-71.8,40.6-101.8,92.2-101.8
	C1059.9,145.3,1103,175.4,1103,247.1L1103,247.1z"/>
<path class="st8" d="M939.6,271.6c0,14.7-10.5,26.7-23.4,26.7c-12.9,0-23.4-11.9-23.4-26.7c0-14.7,10.5-26.7,23.4-26.7
	C929.1,244.9,939.6,256.8,939.6,271.6z M1127.5,271.6c0,14.7-10.5,26.7-23.4,26.7c-12.9,0-23.4-11.9-23.4-26.7
	c0-14.7,10.5-26.7,23.4-26.7C1117,244.9,1127.5,256.8,1127.5,271.6z"/>
<path class="st13" d="M985.4,266.8h-44.9c-6.9,0-12.5-5.6-12.5-12.5v-18.8c0-6.9,5.6-12.5,12.5-12.5h44.9c6.9,0,12.5,5.6,12.5,12.5
	v18.8C997.9,261.2,992.3,266.8,985.4,266.8z M1078.6,266.8h-44.9c-6.9,0-12.5-5.6-12.5-12.5v-18.8c0-6.9,5.6-12.5,12.5-12.5h44.9
	c6.9,0,12.5,5.6,12.5,12.5v18.8C1091.2,261.2,1085.5,266.8,1078.6,266.8z"/>
<path d="M940.5,226.5c-5,0-9,4-9,9v18.7c0,5,4,9,9,9h44.9c5,0,9-4,9-9v-18.7c0-5-4-9-9-9H940.5z M985.4,270.3h-44.9
	c-8.8,0-16-7.2-16-16.1v-18.7c0-8.9,7.2-16.1,16-16.1h44.9c8.8,0,16,7.2,16,16.1v18.7C1001.4,263.1,994.2,270.3,985.4,270.3z
	 M1033.7,226.5c-5,0-9,4-9,9v18.7c0,5,4,9,9,9h44.9c5,0,9-4,9-9v-18.7c0-5-4-9-9-9H1033.7z M1078.6,270.3h-44.9
	c-8.9,0-16-7.2-16-16.1v-18.7c0-8.9,7.2-16.1,16-16.1h44.9c8.8,0,16,7.2,16,16.1v18.7C1094.7,263.1,1087.5,270.3,1078.6,270.3z"/>
<polygon points="1001.4,245.7 1021.2,245.7 1021.2,238.7 1001.4,238.7 "/>
<polygon points="1107.1,245.9 1090.6,246.6 1091.8,239.7 1107.9,239.3 "/>
<polygon points="913,245.9 929.5,246.6 928.3,239.7 911.5,239.3 "/>
<path d="M970.4,243.9c0,3.7-3,6.7-6.6,6.7c-3.7,0-6.7-3-6.7-6.7c0-3.7,3-6.7,6.7-6.7C967.4,237.3,970.4,240.3,970.4,243.9z
	 M1062.8,243.9c0,3.7-3,6.7-6.6,6.7c-3.7,0-6.6-3-6.6-6.7c0-3.7,3-6.7,6.6-6.7C1059.8,237.3,1062.8,240.3,1062.8,243.9z
	 M1043.4,346.7c0,11-9,20-20,20h-26.5c-11,0-20-9-20-20v-18.2c0-11,20-19.9,20-19.9h26.5c0,0,20,9,20,19.9V346.7z M1026.8,297.1
	h-33.3c0,0-31.7,14.3-31.7,31.7v35.6c0,17.4,14.3,31.7,31.7,31.7h33.3c17.4,0,31.7-14.2,31.7-31.7v-35.6
	C1058.4,311.3,1026.8,297.1,1026.8,297.1z"/>
<path class="st12" d="M1034.9,323.3c0,0-11.2,18.2-24.9,18.2c-13.8,0-24.9-18.2-24.9-18.2H1034.9z"/>
<path class="st14" d="M1009.6,160.6c45.6,0,57.6,23.8,99.4,53.9c4.2-11.4,4.1-81.8-15-100.9c-19.2-19.3-66.5-35.8-84.4-35.8
	c-17.9,0-66.3,17.1-85.6,37c-18.4,19-18.1,88.1-13.9,99.5C946.6,183.2,964,160.6,1009.6,160.6L1009.6,160.6z"/>
<path class="st7" d="M1009.9,155.9c-0.1,0-0.3,0-0.4,0.1c-0.1-0.1-0.2-0.1-0.4-0.1c-54.8,0-77.3,32.5-99.3,58.4
	c39.5,11.2,48.7-48.8,98.2-49.5c0,0,0.9,0,1.4-0.1c0.5,0.1,1.4,0.1,1.4,0.1c49.5,0.7,58.7,60.7,98.2,49.5
	C1087.2,188.4,1064.7,155.9,1009.9,155.9z"/>
<path class="st14" d="M1017.8,80.9h-16.4c-2.8,0-5.1-2.3-5.1-5.1l0,0c0-2.8,2.3-5,5.1-5h16.4c2.8,0,5.1,2.3,5.1,5l0,0
	C1022.8,78.6,1020.5,80.9,1017.8,80.9z M1159,440.8c-9.5-3.1-110-12.9-110-12.9l-40.4,127.8l-40.7-127.8c0,0-100.3,9.7-109.8,12.9
	c11.2,10.6,12.7,37.4,11.3,68.8c-1.7,38.7-0.8,375.9-0.8,375.9h279.8c0,0-0.6-346.3-1.2-385C1146.8,469.1,1147.8,451.4,1159,440.8
	L1159,440.8z"/>
<polygon class="st9" points="1008.6,555.7 966,411.3 970.3,486.7 "/>
<polygon class="st9" points="927.9,507.7 970.3,486.7 966,411.3 933.3,431.5 "/>
<polygon class="st9" points="1008.6,555.7 1051.2,411.3 1046.9,486.7 "/>
<polygon class="st9" points="1089.2,507.7 1046.9,486.7 1051.2,411.3 1083.9,431.5 "/>
<polygon class="st9" points="1121.6,597.5 1077,607.5 1032.4,597.5 1032.4,572.3 1121.6,572.3 "/>
<path class="st12" d="M1081.7,594.6c0,2.6-2.1,4.7-4.7,4.7c-2.6,0-4.7-2.1-4.7-4.7c0-2.6,2.1-4.7,4.7-4.7
	C1079.6,589.9,1081.7,592,1081.7,594.6z"/>
<polygon class="st12" points="980.3,614.5 891,614.5 891,565.9 980.3,565.9 "/>
<polygon class="st1" points="931.2,565.9 931.2,559.5 927.8,565.9 "/>
<polygon class="st4" points="931.2,572.3 940.1,572.3 940.1,559.5 931.2,559.5 "/>
<polygon class="st4" points="927.8,587.5 971.9,587.5 971.9,583.4 927.8,583.4 "/>
<polygon class="st4" points="927.8,601 971.9,601 971.9,596.9 927.8,596.9 "/>
<polygon class="st4" points="897.3,606.4 924.3,606.4 924.3,578.1 897.3,578.1 "/>
<polygon class="st15" points="872.1,1613.1 978.6,1613.1 975.7,1670.6 869.5,1670.6 "/>
<polygon class="st15" points="1040,1613.1 1145.6,1613.1 1148.8,1670.6 1042.6,1670.6 "/>
<path class="st15" d="M1153.4,1009.5c-1.4-0.2-34.3-4.4-53.7-36.2c-15-24.6-13.6-51.2-13.5-52.3h9.8c0,0.2-1.7,25.5,11.7,47.4
	c17,27.8,45.1,31.6,45.4,31.6L1153.4,1009.5z M865.1,1009.5c1.4-0.2,34.3-4.4,53.7-36.2c15-24.6,13.6-51.2,13.5-52.3h-9.8
	c0,0.2,1.7,25.5-11.7,47.4c-17,27.8-45.1,31.6-45.4,31.6L865.1,1009.5L865.1,1009.5z M1017.1,1025.3c-7.5,0-20.1-1.2-29.4-8.2
	c-10.8-8.1-9.4-70-8.3-96.1l9.2,0.1c-1.6,38.2-0.1,83.4,4.8,88.6c7.5,5.7,18.6,6.3,24.6,6.3v-94.9h9.4v103.4l-4.1,0.5
	C1023,1025,1020.6,1025.3,1017.1,1025.3L1017.1,1025.3z"/>
<polygon class="st16" points="993.7,924.6 1001.9,924.6 1001.9,882 993.7,882 "/>
<polygon class="st16" points="1000.7,924.6 1025.6,924.6 1025.6,921.1 1000.7,921.1 "/>
<polygon class="st11" points="996.1,905.1 1010.4,905.1 1010.4,901.1 996.1,901.1 "/>
<polygon class="st16" points="1000.7,885.5 1025.6,885.5 1025.6,882 1000.7,882 "/>
<polygon class="st1" points="1151,587.6 1137.2,582.2 1119,591.1 1119.8,602.2 1137.8,625.9 1168.8,610.8 "/>
<path class="st2" d="M1149,791.6l-67.4-137.9c-3.2-6.6-0.5-14.6,6.1-17.8l116.5-56.9c6.6-3.2,14.6-0.5,17.8,6.1l35.4,72.5l-8.5,12.2
	l-57.1,81.7l-2.2-3.8l-26.7,21l4,6.5L1149,791.6L1149,791.6z"/>
<polygon class="st3" points="1158.2,783.2 1091.8,647.2 1210.8,589.1 1249.7,668.8 1249,669.8 1191.9,751.6 1189.7,747.8 
	1163,768.8 1167,775.3 "/>
<polygon class="st4" points="1169.5,610.4 1137.8,625.9 1129.7,635.4 1135,646.4 1186.6,621.2 1181.3,610.3 "/>
<polygon class="st4" points="1150.6,569.2 1132.3,578.1 1128.7,593.8 1137.9,625.9 1169,610.7 1159.6,578 "/>
<polygon class="st5" points="1216.4,634.8 1124.4,679.8 1122.1,675 1214.1,630.1 "/>
<polygon class="st5" points="1227.3,657.1 1135.3,702 1133,697.3 1225,652.3 "/>
<polygon class="st5" points="1237.5,678 1145.5,722.9 1143.2,718.2 1235.2,673.3 "/>
<polygon class="st5" points="1217.3,715.3 1156.3,745 1154,740.3 1223.5,706.4 "/>
<polygon class="st5" points="1172.9,761 1165.8,764.5 1163.5,759.8 1197.9,743 1191.9,751.6 1189.7,747.8 "/>
<polygon class="st6" points="1191.9,632 1129.1,662.6 1126.8,657.9 1189.6,627.2 "/>
<path class="st7" d="M636.4,711.4l-7.1-38.4h149.8l41.1-182.1c4-36,29-53,40.9-49.7l31.7,20.4c11.9,3.2-9.5,83.8-11.8,97.5
	l-47,177.1L636.4,711.4z"/>
<path class="st8" d="M636.4,711.4c0,0-46.1-4.6-60.1-16.3c-14.1-11.7-16.4-22.1-16.4-22.1h69.5L636.4,711.4z"/>
<polygon class="st9" points="629.3,673 663.7,673 671.5,721.8 636.4,718.5 "/>
<polygon class="st17" points="483.3,673.1 777.5,673.1 777.5,483.5 483.3,483.5 "/>
<polygon class="st11" points="591,613.8 599.8,613.8 599.8,550.9 591,550.9 "/>
<polygon class="st11" points="572.4,564.7 595.4,524.9 618.4,564.7 "/>
<polygon class="st11" points="651.6,613.8 660.5,613.8 660.5,550.9 651.6,550.9 "/>
<polygon class="st11" points="633.1,564.7 656.1,524.9 679.1,564.7 "/>
<polygon class="st11" points="572.4,627.3 679.1,627.3 679.1,620.6 572.4,620.6 "/>
<polygon class="st16" points="443.9,483.7 738,483.7 738,440.3 443.9,440.3 "/>
<polygon class="st17" points="502.8,440.5 796.9,440.5 796.9,397.1 502.8,397.1 "/>
</svg>
