<svg xmlns="http://www.w3.org/2000/svg" data-name="Layer 1" viewBox="0 0 700 550"><path fill="#d5efc8" d="M477.69414,343.8917c-11.14462,60.91954-139.79822,161.06289-183.22779,80.47661-22.86036-42.419-90.63689-103.68663-142.869-140.13284-50.78835-35.43909,93.17827-96.95,183.22744-80.47641S488.83875,282.97217,477.69414,343.8917Z"/><path fill="#d5efc8" d="M494.47738,345.55344c12.25806-67.00647-58.2389-136.24216-157.14957-154.33726-35.99556-6.58457-84.44472-2.08079-129.60071,12.05007-43.13654,13.498-74.52077,32.88459-81.90618,50.59572-4.1278,9.89818-.63019,19.09239,10.11417,26.5898l.60619-.86752c-10.43415-7.28052-13.71221-15.79833-9.74352-25.31519,7.26809-17.42936,38.39988-36.58575,81.24576-49.99309,44.99956-14.08108,93.26029-18.57508,129.09407-12.01807,98.33648,17.98934,168.45124,86.67216,156.29806,153.10533Z"/><path fill="#904d24" d="M226.86177,94.916H495.18312a3.25946,3.25946,0,0,1,3.25946,3.25946v204.5247a3.25949,3.25949,0,0,1-3.25949,3.25949H226.86181a3.25949,3.25949,0,0,1-3.25949-3.25949V98.17543A3.25946,3.25946,0,0,1,226.86177,94.916Z"/><path fill="#558031" d="M233.42067,102.05392H488.62423a3.07,3.07,0,0,1,3.10011,3.039V295.78267a3.07,3.07,0,0,1-3.10011,3.039H233.42067a3.07,3.07,0,0,1-3.10011-3.039V105.09291A3.07,3.07,0,0,1,233.42067,102.05392Z"/><path fill="#fff" d="M312.99707 143.27551a3.40782 3.40782 0 00-2.71387 1.08105 4.5066 4.5066 0 00-.94336 3.0586 4.24962 4.24962 0 001.04688 3.082 3.73888 3.73888 0 002.81738 1.08105 4.44569 4.44569 0 001.59863-.25293 11.02327 11.02327 0 001.25391-.57519 2.30858 2.30858 0 01.60938.77051 2.36725 2.36725 0 01.21777 1.04687 1.885 1.885 0 01-1.0459 1.59863 6.12526 6.12526 0 01-3.18555.65528 9.38514 9.38514 0 01-2.89843-.4375 6.45568 6.45568 0 01-2.36817-1.34473 6.32391 6.32391 0 01-1.59863-2.30078 8.51476 8.51476 0 01-.58691-3.32324 8.24651 8.24651 0 01.56347-3.16211 6.73006 6.73006 0 011.541-2.31153 6.47 6.47 0 012.28906-1.42578 8.03944 8.03944 0 012.80566-.4834 6.45668 6.45668 0 013.27735.69043 2.02977 2.02977 0 011.16113 1.77051 1.7868 1.7868 0 01-.29883 1.03516 2.46265 2.46265 0 01-.68945.68945 7.64633 7.64633 0 00-1.27637-.667A4.172 4.172 0 00312.99707 143.27551zM331.48926 154.31555a6.42049 6.42049 0 01-.79395.13769 8.45772 8.45772 0 01-1.06933.06934 4.78771 4.78771 0 01-.93164-.08106 1.66189 1.66189 0 01-.67871-.28711 1.24236 1.24236 0 01-.41309-.57519 2.78319 2.78319 0 01-.13867-.96582v-3.58789h-4.416v5.29a6.43122 6.43122 0 01-.793.13769 8.45772 8.45772 0 01-1.06933.06934 4.77347 4.77347 0 01-.93164-.08106 1.65616 1.65616 0 01-.67871-.28711 1.23726 1.23726 0 01-.41407-.57519 2.80925 2.80925 0 01-.13769-.96582V140.46887q.252-.04542.80469-.126a7.32937 7.32937 0 011.05761-.08008 4.79329 4.79329 0 01.93164.08008 1.65616 1.65616 0 01.67871.28711 1.24911 1.24911 0 01.41407.5752 2.80921 2.80921 0 01.13769.96582v3.68066h4.416v-5.38281q.25341-.04542.80566-.126a7.309 7.309 0 011.05762-.08008 4.79336 4.79336 0 01.93164.08008 1.66766 1.66766 0 01.67871.28711 1.256 1.256 0 01.41406.5752 2.809 2.809 0 01.1377.96582zM334.47949 142.60852a1.98455 1.98455 0 012.13867-2.13965H344.208a2.78906 2.78906 0 01.28808.667 2.99283 2.99283 0 01.126.874 1.6791 1.6791 0 01-.37988 1.24219 1.37178 1.37178 0 01-1 .36816h-4.85352v2.13868h5.17578a2.81679 2.81679 0 01.28711.65625 2.872 2.872 0 01.127.8623 1.71834 1.71834 0 01-.36817 1.24219 1.33911 1.33911 0 01-.98926.36816h-4.23242v2.41407h5.91113a2.78864 2.78864 0 01.28809.667 2.99279 2.99279 0 01.126.874 1.72715 1.72715 0 01-.37891 1.25391 1.35406 1.35406 0 01-1.001.37988h-6.71582a1.98456 1.98456 0 01-2.13867-2.13965zM356.81152 150.98059a2.20761 2.20761 0 01-.7705.40234 3.61693 3.61693 0 01-1.0918.14941 3.87423 3.87423 0 01-1.36914-.207 1.10077 1.10077 0 01-.70117-.71289q-.64454-2.02441-1.05762-3.27734-.41455-1.25391-.64453-2.19629h-.11524q-.06883 1.35645-.10351 2.47168-.03369 1.11621-.0459 2.17383-.01171 1.05762-.0459 2.13867-.03369 1.08252-.10351 2.39258a4.08736 4.08736 0 01-.78223.19531 5.85023 5.85023 0 01-.96582.08008 3.2076 3.2076 0 01-1.5752-.32129 1.2325 1.2325 0 01-.56347-1.17285l.667-11.73047a2.18924 2.18924 0 01.80469-.64356 3.63508 3.63508 0 011.748-.3457 3.99519 3.99519 0 011.90918.37988 2.24376 2.24376 0 011.01172 1.23047q.208.55226.44922 1.26465.24024.71338.48242 1.47266.24171.75879.47168 1.50586.23.74853.41406 1.3457h.11524q.55224-1.93214 1.10351-3.73731.55226-1.80615 1.01172-3.02441a3.66533 3.66533 0 01.88575-.31055 5.32822 5.32822 0 011.208-.12695 4.35864 4.35864 0 011.83985.334 1.32459 1.32459 0 01.82812.95411q.09083.46.19531 1.415.104.95361.21875 2.15039.11427 1.1953.2295 2.52929.11572 1.33447.21875 2.56543.104 1.23048.17285 2.25391.06885 1.02246.0918 1.57519a2.98969 2.98969 0 01-.81641.333 4.73758 4.73758 0 01-1.09277.10352 3.26842 3.26842 0 01-1.47168-.29883 1.26184 1.26184 0 01-.64454-1.17285q-.13769-2.50635-.17187-4.50781-.03516-2.001-.10352-3.3584h-.11523q-.23.89794-.667 2.2539Q357.43214 148.86487 356.81152 150.98059zM369.53125 154.31555a6.42014 6.42014 0 01-.79395.13769 8.45772 8.45772 0 01-1.06933.06934 4.78771 4.78771 0 01-.93164-.08106 1.66189 1.66189 0 01-.67871-.28711 1.25091 1.25091 0 01-.41407-.57519 2.80925 2.80925 0 01-.13769-.96582V140.46887q.25341-.04542.80469-.126a7.33221 7.33221 0 011.05859-.08008 4.79329 4.79329 0 01.93164.08008 1.65764 1.65764 0 01.67774.28711 1.24228 1.24228 0 01.41406.5752 2.78315 2.78315 0 01.13867.96582zM376.47656 148.86438q-1.0122-.34571-1.83984-.70118a5.64907 5.64907 0 01-1.42578-.86328 3.55336 3.55336 0 01-.93164-1.207 3.967 3.967 0 01-.334-1.71387 3.76405 3.76405 0 011.50684-3.12793 6.72172 6.72172 0 014.2207-1.17285 11.53665 11.53665 0 011.83985.1377 5.519 5.519 0 011.46.42578 2.56037 2.56037 0 01.95507.73633 1.66888 1.66888 0 01.34473 1.0459 1.83989 1.83989 0 01-.27539 1.02343 2.88565 2.88565 0 01-.667.72461 5.24353 5.24353 0 00-1.35742-.56347 6.80283 6.80283 0 00-1.86328-.24122 3.07529 3.07529 0 00-1.51758.28711.83932.83932 0 00-.4834.72461.66856.66856 0 00.29883.56348 3.08565 3.08565 0 00.89746.40332l1.21875.39063a8.82411 8.82411 0 013.32324 1.75976 3.75979 3.75979 0 011.16211 2.90918 3.82543 3.82543 0 01-1.541 3.16211 7.23754 7.23754 0 01-4.53125 1.208 10.53183 10.53183 0 01-1.96679-.17285 6.22225 6.22225 0 01-1.58692-.50586 2.92114 2.92114 0 01-1.05761-.82813 1.81813 1.81813 0 01-.37989-1.13867 1.72414 1.72414 0 01.3916-1.1377 2.98333 2.98333 0 01.85059-.7246 6.28159 6.28159 0 001.5752.874 5.49839 5.49839 0 002.03613.36719 2.72759 2.72759 0 001.58691-.34473.99356.99356 0 00.46-.80469.78656.78656 0 00-.36816-.70117 4.75915 4.75915 0 00-1.03516-.47168zM384.251 143.68957a3.0018 3.0018 0 01-.29981-.69043 3.04026 3.04026 0 01-.13769-.91992 1.74 1.74 0 01.40234-1.28809 1.43873 1.43873 0 011.04688-.39062H395.291a3.01416 3.01416 0 01.29882.68945 3.04919 3.04919 0 01.1377.91992 1.741 1.741 0 01-.40234 1.28809 1.43537 1.43537 0 01-1.04688.3916h-2.55273v10.626a6.43194 6.43194 0 01-.793.13769 8.48494 8.48494 0 01-1.07032.06934 4.77017 4.77017 0 01-.93066-.08106 1.65621 1.65621 0 01-.67871-.28711 1.23718 1.23718 0 01-.41406-.57519 2.80648 2.80648 0 01-.13867-.96582v-8.92383zM401.68457 149.89953v4.416a6.43122 6.43122 0 01-.793.13769 8.473 8.473 0 01-1.07031.06934 4.77 4.77 0 01-.93066-.08106 1.56119 1.56119 0 01-.667-.28711 1.28351 1.28351 0 01-.40332-.57519 2.80925 2.80925 0 01-.13769-.96582v-10.833a1.00691 1.00691 0 01.26465-.74707 1.8823 1.8823 0 01.72461-.42578 8.55908 8.55908 0 011.8164-.40234 18.30779 18.30779 0 012.208-.127 7.35906 7.35906 0 014.78418 1.334 4.44465 4.44465 0 011.61035 3.61132 4.02466 4.02466 0 01-.73633 2.4375 5.28113 5.28113 0 01-1.748 1.56446q.82909 1.12645 1.63281 2.11621a13.558 13.558 0 011.26562 1.79394 2.17164 2.17164 0 01-.83984 1.23047 2.33649 2.33649 0 01-1.36816.42481 2.96025 2.96025 0 01-.874-.11426 2.14428 2.14428 0 01-.64453-.32227 2.63887 2.63887 0 01-.50586-.50586 6.63289 6.63289 0 01-.43652-.64453l-1.93262-3.10449zm1.44922-3.05957a2.00724 2.00724 0 001.37988-.44824 1.67461 1.67461 0 00.50586-1.32227 1.58688 1.58688 0 00-.56348-1.32226 2.85317 2.85317 0 00-1.78222-.44922 5.12181 5.12181 0 00-.55176.02344c-.13867.01562-.292.03808-.46.06933V146.84zM418.40625 154.31555a6.42079 6.42079 0 01-.78223.13769 8.0239 8.0239 0 01-1.03515.06934 2.86375 2.86375 0 01-1.58692-.35645 1.722 1.722 0 01-.52929-1.50683v-3.1045q-.57423-.85107-1.24219-1.88671-.66651-1.03419-1.31055-2.11621-.64453-1.0796-1.19629-2.127a19.31745 19.31745 0 01-.89648-1.9209 3.15471 3.15471 0 01.8164-.75879 2.25384 2.25384 0 011.27637-.34472 2.63237 2.63237 0 011.46094.36816 3.46522 3.46522 0 011.06934 1.37988l1.90918 3.84083h.13769q.32226-.71339.56348-1.29981.24169-.58593.47168-1.17285.22851-.58594.48242-1.21875.25341-.63282.57519-1.46094a4.06677 4.06677 0 01.91993-.32129 4.32858 4.32858 0 01.96582-.11523 2.204 2.204 0 011.36914.42578 1.49885 1.49885 0 01.56347 1.27637 2.45407 2.45407 0 01-.11523.667 7.49631 7.49631 0 01-.5293 1.18457q-.41309.79248-1.207 2.15039-.794 1.35645-2.15039 3.542zM270.898 181.9591a5.49453 5.49453 0 011.71777.2461 4.00972 4.00972 0 011.27442.67187A2.81017 2.81017 0 01274.689 183.88a2.87049 2.87049 0 01.27247 1.24023 4.467 4.467 0 01-2.02344 3.4004l-2.22656 1.78515h4.08007a2.90787 2.90787 0 01.19532.47559 2.03111 2.03111 0 01.09375.6289 1.18224 1.18224 0 01-.27246.876.98219.98219 0 01-.71387.26367h-5.89942a1.81431 1.81431 0 01-.58593-.65429 1.98506 1.98506 0 01-.21289-.94434 1.876 1.876 0 01.23828-.97754 2.39417 2.39417 0 01.52734-.63672l2.3457-2.00683q.4424-.37355.73047-.6709a5.67 5.67 0 00.46778-.53516 1.82539 1.82539 0 00.25488-.44238 1.09676 1.09676 0 00.07715-.39063.84945.84945 0 00-.417-.748 1.83781 1.83781 0 00-1.02832-.27246 3.2791 3.2791 0 00-1.21583.21289 4.88281 4.88281 0 00-.89257.45019 1.70721 1.70721 0 01-.47559-.50976 1.34015 1.34015 0 01-.1875-.71387 1.4052 1.4052 0 01.833-1.31836A4.90777 4.90777 0 01270.898 181.9591zM289.394 192.48156a4.71055 4.71055 0 01-.58691.10254 6.21033 6.21033 0 01-.79.05078 3.503 3.503 0 01-.68848-.05957 1.21653 1.21653 0 01-.502-.21289.91084.91084 0 01-.30566-.4248 2.05843 2.05843 0 01-.10254-.71387v-2.65234h-3.26367v3.91015a4.71079 4.71079 0 01-.58692.10254 6.18757 6.18757 0 01-.79.05078 3.50979 3.50979 0 01-.68847-.05957 1.22791 1.22791 0 01-.502-.21289.91763.91763 0 01-.30566-.4248 2.061 2.061 0 01-.10156-.71387v-8.97559c.124-.02343.32226-.05371.59472-.09375a5.36293 5.36293 0 01.78223-.05957 3.52469 3.52469 0 01.68848.05957 1.23013 1.23013 0 01.501.21192.91886.91886 0 01.30567.42578 2.05835 2.05835 0 01.10254.71387v2.71972h3.26367v-3.97754c.125-.02343.32324-.05371.5957-.09375a5.36 5.36 0 01.78125-.05957 3.51074 3.51074 0 01.68848.05957 1.23451 1.23451 0 01.502.21192.91877.91877 0 01.30566.42578 2.05835 2.05835 0 01.10254.71387zM296.85693 184.32141a2.5217 2.5217 0 00-2.00683.79882 3.33414 3.33414 0 00-.69629 2.26172 3.14142 3.14142 0 00.77344 2.27735 2.761 2.761 0 002.082.7998 3.285 3.285 0 001.18164-.1875 7.9249 7.9249 0 00.92676-.4248 1.6952 1.6952 0 01.45019.56933 1.7482 1.7482 0 01.16211.77344 1.39429 1.39429 0 01-.77441 1.18164 4.51811 4.51811 0 01-2.3545.48438 6.934 6.934 0 01-2.1416-.32325 4.76394 4.76394 0 01-1.751-.99414 4.68784 4.68784 0 01-1.18164-1.70019 6.3008 6.3008 0 01-.4336-2.45606 6.0943 6.0943 0 01.417-2.33789 4.96693 4.96693 0 011.13868-1.708 4.798 4.798 0 011.6914-1.05468 5.96836 5.96836 0 012.07422-.35645 4.77633 4.77633 0 012.42285.50977 1.501 1.501 0 01.8584 1.30859 1.3235 1.3235 0 01-.22168.76563 1.83392 1.83392 0 01-.50976.50976 5.54392 5.54392 0 00-.94336-.49316A3.07826 3.07826 0 00296.85693 184.32141zM304.03076 192.53234q-.1875.03516-.55273.09375a4.55691 4.55691 0 01-.73926.05957 3.97956 3.97956 0 01-.67188-.05078 1.14835 1.14835 0 01-.501-.2041.97635.97635 0 01-.31446-.417 1.78553 1.78553 0 01-.11132-.68848v-9.85937q.1875-.03369.55273-.09375a4.55691 4.55691 0 01.73926-.05957 3.97935 3.97935 0 01.67187.05078 1.15739 1.15739 0 01.502.2041.992.992 0 01.31445.417 1.81279 1.81279 0 01.11035.68848zM314.33252 191.69934a1.68073 1.68073 0 01-.501.11132 6.12745 6.12745 0 01-.70605.042 1.9623 1.9623 0 01-1.05371-.2295 1.09005 1.09005 0 01-.35742-.97753v-1.87012H309.148a1.65071 1.65071 0 01-.19531-.49317 2.4739 2.4739 0 01-.07715-.61132 1.24376 1.24376 0 01.27246-.89258.96747.96747 0 01.73047-.28028h1.83594v-2.85644a4.78127 4.78127 0 01.51855-.11035 4.04856 4.04856 0 01.68848-.05957 1.91486 1.91486 0 011.0459.23828 1.124 1.124 0 01.36523 1.00293v1.78515h2.5166c.05664.13575.11524.30274.17774.501a2.0516 2.0516 0 01.09375.62012 1.22231 1.22231 0 01-.27149.876.9532.9532 0 01-.71484.28028h-1.80176zM325.12744 181.9591a5.49448 5.49448 0 011.71777.2461 4.00961 4.00961 0 011.27442.67187 2.8103 2.8103 0 01.79883 1.00293 2.87063 2.87063 0 01.27246 1.24023 4.467 4.467 0 01-2.02344 3.4004l-2.22656 1.78515H329.021a2.90881 2.90881 0 01.19531.47559 2.03111 2.03111 0 01.09375.6289 1.18224 1.18224 0 01-.27246.876.98218.98218 0 01-.71387.26367h-5.89941a1.81424 1.81424 0 01-.58594-.65429 1.98506 1.98506 0 01-.21289-.94434 1.876 1.876 0 01.23828-.97754 2.39417 2.39417 0 01.52734-.63672l2.34571-2.00683q.44238-.37355.73047-.6709a5.67122 5.67122 0 00.46777-.53516 1.82539 1.82539 0 00.25488-.44238 1.09676 1.09676 0 00.07715-.39063.84945.84945 0 00-.417-.748 1.83781 1.83781 0 00-1.02832-.27246 3.279 3.279 0 00-1.21582.21289 4.8826 4.8826 0 00-.89258.45019 1.70734 1.70734 0 01-.47559-.50976 1.34015 1.34015 0 01-.1875-.71387 1.4052 1.4052 0 01.833-1.31836A4.90777 4.90777 0 01325.12744 181.9591zM343.74268 192.1925a1.56275 1.56275 0 01-.68946.36621 3.99954 3.99954 0 01-1.0791.127 3.75071 3.75071 0 01-1.18945-.18652 1.653 1.653 0 01-.91895-.90137l-1.68261-3.43457q-.2549-.52587-.459-.99414-.20361-.46728-.44238-1.0791l-.10156.0166q.06738.91847.07617 1.87012.00879.95216.00879 1.87012v2.63476a4.71716 4.71716 0 01-.56934.10254 5.69523 5.69523 0 01-.75684.05078 3.83954 3.83954 0 01-.66308-.05078 1.01856 1.01856 0 01-.47559-.2041.98705.98705 0 01-.28906-.417 1.933 1.933 0 01-.10156-.68848v-8.5a1.41736 1.41736 0 01.73047-.50976 3.21226 3.21226 0 011.05371-.16993 3.67976 3.67976 0 011.19922.19532 1.625 1.625 0 01.90918.89257l1.70019 3.4336q.25488.52734.459.99512.20361.46728.4414 1.0791l.085-.0166q-.06738-.91846-.085-1.83594-.01611-.91847-.0166-1.83594v-2.75391a4.71518 4.71518 0 01.56934-.10253 5.68426 5.68426 0 01.75683-.05079 2.03851 2.03851 0 011.13867.26368 1.24738 1.24738 0 01.39161 1.0957zM349.13135 184.03234a6.96584 6.96584 0 011.6748.1875 3.761 3.761 0 011.292.56934 2.58133 2.58133 0 01.82422.96875 3.10992 3.10992 0 01.28907 1.38574v3.80762a1.0551 1.0551 0 01-.24707.72266 2.43129 2.43129 0 01-.58594.48437 6.07383 6.07383 0 01-3.11133.66406 7.10108 7.10108 0 01-1.623-.1709 3.85055 3.85055 0 01-1.24121-.50976 2.3343 2.3343 0 01-.79883-.86719 2.5571 2.5571 0 01-.28125-1.22363 2.3006 2.3006 0 01.69727-1.80176 3.75379 3.75379 0 012.15918-.78223l2.22656-.23828v-.11914a.72913.72913 0 00-.43262-.70508 2.92076 2.92076 0 00-1.25-.21289 5.83226 5.83226 0 00-1.25781.13575 6.64314 6.64314 0 00-1.10547.34082 1.184 1.184 0 01-.374-.46778 1.48427 1.48427 0 01-.15234-.65429 1.09258 1.09258 0 01.21191-.70606 1.651 1.651 0 01.6543-.45019 5.14227 5.14227 0 011.165-.27247A10.10077 10.10077 0 01349.13135 184.03234zm.13574 6.68164a3.78033 3.78033 0 00.6377-.05957 1.55108 1.55108 0 00.51855-.16211v-1.35937l-1.22461.10156a1.89048 1.89048 0 00-.78125.2041.54937.54937 0 00-.30664.50977.67562.67562 0 00.26367.55273A1.44393 1.44393 0 00349.26709 190.714zM358.32764 189.38781a2.2513 2.2513 0 01-.22071-.49316 2.01755 2.01755 0 01-.10254-.64551 1.22752 1.22752 0 01.28907-.91016 1.03093 1.03093 0 01.748-.28027h3.6377a3.66744 3.66744 0 01.21289.49317 1.89548 1.89548 0 01.11035.6455 1.22756 1.22756 0 01-.28906.91016 1.02937 1.02937 0 01-.748.28027zM364.09131 185.8175a.91113.91113 0 01-.043-.23828c-.00586-.08984-.00781-.17481-.00781-.25488a2.3992 2.3992 0 01.06738-.57813 1.31762 1.31762 0 01.22168-.47558 1.14112 1.14112 0 01.39941-.33106 1.34234 1.34234 0 01.62012-.12793 1.72934 1.72934 0 01.70508.15332q.34863.15234.85937.44141l3.6543 2.1084a2.95484 2.95484 0 01.23828 2.63476 1.47216 1.47216 0 01-.59472.61231l-4.67481 2.71972a2.0838 2.0838 0 01-1.13086-.60351 1.31653 1.31653 0 01-.29785-.82422 1.3397 1.3397 0 01.29785-.92676 2.92641 2.92641 0 01.875-.62012l2.99219-1.51367zM375.44678 181.9591a5.49453 5.49453 0 011.71777.2461 4.00955 4.00955 0 011.27441.67187 2.81009 2.81009 0 01.79883 1.00293 2.87063 2.87063 0 01.27246 1.24023 4.467 4.467 0 01-2.02343 3.4004l-2.22657 1.78515h4.08008a2.90881 2.90881 0 01.19531.47559 2.03111 2.03111 0 01.09375.6289 1.18224 1.18224 0 01-.27246.876.98215.98215 0 01-.71386.26367h-5.89942a1.81443 1.81443 0 01-.58594-.65429 1.98506 1.98506 0 01-.21289-.94434 1.876 1.876 0 01.23829-.97754 2.39417 2.39417 0 01.52734-.63672l2.3457-2.00683q.44238-.37355.73047-.6709a5.66977 5.66977 0 00.46777-.53516 1.82513 1.82513 0 00.25489-.44238 1.09676 1.09676 0 00.07715-.39063.84944.84944 0 00-.417-.748 1.83776 1.83776 0 00-1.02832-.27246 3.279 3.279 0 00-1.21582.21289 4.88326 4.88326 0 00-.89258.45019 1.7073 1.7073 0 01-.47558-.50976 1.34015 1.34015 0 01-.1875-.71387 1.4052 1.4052 0 01.833-1.31836A4.90777 4.90777 0 01375.44678 181.9591zM394.062 192.1925a1.56271 1.56271 0 01-.68945.36621 3.99965 3.99965 0 01-1.0791.127 3.75078 3.75078 0 01-1.18946-.18652 1.653 1.653 0 01-.91894-.90137l-1.68262-3.43457q-.25488-.52587-.459-.99414-.20362-.46728-.44239-1.0791l-.10156.0166q.06738.91847.07617 1.87012.00879.95216.00879 1.87012v2.63476a4.71691 4.71691 0 01-.56933.10254 5.69545 5.69545 0 01-.75684.05078 3.83966 3.83966 0 01-.66309-.05078 1.01848 1.01848 0 01-.47558-.2041.98705.98705 0 01-.28906-.417 1.933 1.933 0 01-.10157-.68848v-8.5a1.4174 1.4174 0 01.73047-.50976 3.21231 3.21231 0 011.05371-.16993 3.67967 3.67967 0 011.19922.19532 1.625 1.625 0 01.90918.89257l1.7002 3.4336q.25488.52734.459.99512.20361.46728.44141 1.0791l.085-.0166q-.06738-.91846-.085-1.83594-.01611-.91847-.0166-1.83594v-2.75391a4.71532 4.71532 0 01.56933-.10253 5.68452 5.68452 0 01.75684-.05079 2.03851 2.03851 0 011.13867.26368 1.24741 1.24741 0 01.3916 1.0957zM399.45068 184.03234a6.96587 6.96587 0 011.67481.1875 3.76107 3.76107 0 011.292.56934 2.58133 2.58133 0 01.82422.96875 3.11005 3.11005 0 01.28906 1.38574v3.80762a1.0551 1.0551 0 01-.24707.72266 2.4309 2.4309 0 01-.58594.48437 6.07377 6.07377 0 01-3.11132.66406 7.101 7.101 0 01-1.62305-.1709 3.85046 3.85046 0 01-1.24121-.50976 2.33414 2.33414 0 01-.79883-.86719 2.5571 2.5571 0 01-.28125-1.22363 2.30057 2.30057 0 01.69727-1.80176 3.75379 3.75379 0 012.15918-.78223l2.22656-.23828v-.11914a.72913.72913 0 00-.43262-.70508 2.92076 2.92076 0 00-1.25-.21289 5.83219 5.83219 0 00-1.25781.13575 6.64285 6.64285 0 00-1.10547.34082 1.18387 1.18387 0 01-.374-.46778 1.48414 1.48414 0 01-.15235-.65429 1.09252 1.09252 0 01.21192-.70606 1.651 1.651 0 01.65429-.45019 5.1424 5.1424 0 011.165-.27247A10.1009 10.1009 0 01399.45068 184.03234zm.13575 6.68164a3.78012 3.78012 0 00.63769-.05957 1.55123 1.55123 0 00.51856-.16211v-1.35937l-1.22461.10156a1.89044 1.89044 0 00-.78125.2041.54935.54935 0 00-.30664.50977.67562.67562 0 00.26367.55273A1.44393 1.44393 0 00399.58643 190.714zM410.773 184.32141a2.52172 2.52172 0 00-2.00684.79882 3.33419 3.33419 0 00-.69629 2.26172 3.14147 3.14147 0 00.77344 2.27735 2.761 2.761 0 002.082.7998 3.285 3.285 0 001.18164-.1875 7.9234 7.9234 0 00.92676-.4248 1.69535 1.69535 0 01.4502.56933 1.7482 1.7482 0 01.16211.77344 1.39428 1.39428 0 01-.77442 1.18164 4.518 4.518 0 01-2.35449.48438 6.93391 6.93391 0 01-2.1416-.32325 4.764 4.764 0 01-1.751-.99414 4.688 4.688 0 01-1.18164-1.70019 6.301 6.301 0 01-.43359-2.45606 6.0943 6.0943 0 01.417-2.33789 4.9669 4.9669 0 011.13867-1.708 4.79813 4.79813 0 011.69141-1.05468 5.96827 5.96827 0 012.07422-.35645 4.77633 4.77633 0 012.42285.50977 1.501 1.501 0 01.8584 1.30859 1.3235 1.3235 0 01-.22168.76563 1.834 1.834 0 01-.50977.50976 5.54317 5.54317 0 00-.94336-.49316A3.07817 3.07817 0 00410.773 184.32141zM417.94678 192.53234q-.1875.03516-.55274.09375a4.55679 4.55679 0 01-.73925.05957 3.97948 3.97948 0 01-.67188-.05078 1.14844 1.14844 0 01-.501-.2041.97625.97625 0 01-.31445-.417 1.78532 1.78532 0 01-.11133-.68848v-9.85937q.1875-.03369.55274-.09375a4.55679 4.55679 0 01.73925-.05957 3.97948 3.97948 0 01.67188.05078 1.1574 1.1574 0 01.502.2041.992.992 0 01.31446.417 1.81279 1.81279 0 01.11035.68848zM428.24756 191.69934a1.68073 1.68073 0 01-.501.11132 6.12745 6.12745 0 01-.70605.042 1.9623 1.9623 0 01-1.05371-.2295 1.09005 1.09005 0 01-.35743-.97753v-1.87012H423.063a1.65071 1.65071 0 01-.19531-.49317 2.4739 2.4739 0 01-.07715-.61132 1.24376 1.24376 0 01.27246-.89258.96747.96747 0 01.73047-.28028h1.83593v-2.85644a4.78211 4.78211 0 01.51856-.11035 4.04856 4.04856 0 01.68848-.05957 1.91479 1.91479 0 011.04589.23828 1.124 1.124 0 01.36524 1.00293v1.78515h2.5166c.05664.13575.11523.30274.17773.501a2.0516 2.0516 0 01.09375.62012 1.22236 1.22236 0 01-.27148.876.9532.9532 0 01-.71484.28028h-1.80176zM445.26514 192.48156a4.71079 4.71079 0 01-.58692.10254 6.21033 6.21033 0 01-.79.05078 3.50281 3.50281 0 01-.68847-.05957 1.21663 1.21663 0 01-.502-.21289.91084.91084 0 01-.30566-.4248 2.05843 2.05843 0 01-.10254-.71387v-2.65234h-3.26367v3.91015a4.71044 4.71044 0 01-.58692.10254 6.18741 6.18741 0 01-.79.05078 3.50983 3.50983 0 01-.68848-.05957 1.22787 1.22787 0 01-.50195-.21289.91757.91757 0 01-.30567-.4248 2.061 2.061 0 01-.10156-.71387v-8.97559c.124-.02343.32227-.05371.59473-.09375a5.36269 5.36269 0 01.78222-.05957 3.52462 3.52462 0 01.68848.05957 1.23023 1.23023 0 01.501.21192.91877.91877 0 01.30566.42578 2.05835 2.05835 0 01.10254.71387v2.71972h3.26367v-3.97754c.125-.02343.32324-.05371.5957-.09375a5.36008 5.36008 0 01.78125-.05957 3.5106 3.5106 0 01.68848.05957 1.23451 1.23451 0 01.50195.21192.91879.91879 0 01.30567.42578 2.05835 2.05835 0 01.10254.71387zM450.46631 181.9591a5.49453 5.49453 0 011.71777.2461 4.00972 4.00972 0 011.27442.67187 2.81017 2.81017 0 01.79882 1.00293 2.87063 2.87063 0 01.27247 1.24023 4.467 4.467 0 01-2.02344 3.4004l-2.22656 1.78515h4.08007a2.90787 2.90787 0 01.19532.47559 2.03111 2.03111 0 01.09375.6289 1.1822 1.1822 0 01-.27247.876.98215.98215 0 01-.71386.26367h-5.89942a1.81431 1.81431 0 01-.58593-.65429 1.98494 1.98494 0 01-.21289-.94434 1.876 1.876 0 01.23828-.97754 2.39417 2.39417 0 01.52734-.63672l2.3457-2.00683q.4424-.37355.73047-.6709a5.67 5.67 0 00.46778-.53516 1.82539 1.82539 0 00.25488-.44238 1.09676 1.09676 0 00.07715-.39063.84944.84944 0 00-.417-.748 1.83776 1.83776 0 00-1.02832-.27246 3.27909 3.27909 0 00-1.21582.21289 4.88281 4.88281 0 00-.89257.45019 1.70721 1.70721 0 01-.47559-.50976 1.34015 1.34015 0 01-.1875-.71387 1.4052 1.4052 0 01.833-1.31836A4.90777 4.90777 0 01450.46631 181.9591z"/><circle cx="161.966" cy="162.386" r="26.317" fill="#ffba55"/><path fill="#d77f4a" d="M161.96512,189.17258a26.78711,26.78711,0,1,1,26.78711-26.78711A26.81739,26.81739,0,0,1,161.96512,189.17258Zm0-52.63476a25.84766,25.84766,0,1,0,25.84766,25.84765A25.8763,25.8763,0,0,0,161.96512,136.53782Z"/><path fill="#d77f4a" d="M161.96512,164.73313a.47054.47054,0,0,1-.46972-.46973V147.2927a.46973.46973,0,1,1,.93945,0v16.9707A.47055.47055,0,0,1,161.96512,164.73313Z"/><path fill="#d77f4a" d="M176.56669,168.24387a.47363.47363,0,0,1-.21-.0498L158.74833,159.364a.46949.46949,0,1,1,.41992-.83985l17.6084,8.83008a.46965.46965,0,0,1-.21.88965Z"/><rect width="10.739" height="29.609" x="203.77" y="195.213" fill="#ffba55"/><path fill="#f9977a" d="M543.88051,433.45942l.42661,12.3743s34.04286,9.55514,34.71748,5.50082c0,0,2.61643-.04439-15.06821-9.99924a17.10744,17.10744,0,0,1-7.31078-9.11079Z"/><path fill="#376f92" d="M544.0004,436.937v18.147h11.00172l.009-5.08691s25.92808,10.4411,24.09118.71359c0,0-1.81537,1.70584-8.95106.52028l3.02257-5.66017-6.81718-2.98171-4.412,6.49486-12.11-2.60981a6.897,6.897,0,0,1-5.3937-5.91062Z"/><path fill="#376f92" d="M545.67773,437.42785c-.958,0-1.59619-.03222-1.70214-.03808a.45479.45479,0,0,1-.42774-.47852.48252.48252,0,0,1,.47754-.42773c.11231.00683,11.167.57128,13.47412-3.28223a.45328.45328,0,0,1,.77832.46484C556.2666,437.02648,549.02441,437.42785,545.67773,437.42785Z"/><path fill="#160b07" d="M542.51547,173.2269c6.20921.02358,10.86372,10.16952,12.35491,13.41994,3.47244,7.56926,3.39946,14.55968,3.29016,19.75232-.09872,4.69051-.63557,5.59444-2.64318,17.40321-3.54063,20.82605-2.85626,23.81076-1.54416,26.29854,2.54,4.81593,5.086,3.32027,11.74193,10.93473,4.5006,5.14881,8.68655,9.93751,8.78209,16.69417.07545,5.33634-2.38944,12.68317-7.57349,15.0094-9.73849,4.36995-24.78351-10.90238-30.98181-18.722-15.67229-19.77191-15.29371-43.00286-15.18172-49.8755a80.31757,80.31757,0,0,1,6.9469-31.36272C531.0562,184.75511,535.87848,173.20166,542.51547,173.2269Z"/><path fill="#160b07" d="M541.83424,206.22393c-4.2146,4.86165-22.965,1.9066-16.27854-1.99909-1.92068-.209-3.47471-.29742-4.93511-.60577-9.70145-2.04821-20.32569-14.89334-17.75293-25.40974,2.24226-9.16559,13.69682-13.24205,16.4836-14.234a22.04155,22.04155,0,0,1,21.33495,2.72618,25.12459,25.12459,0,0,1,8.2746,10.6008C550.81375,181.44431,551.44291,195.14009,541.83424,206.22393Z"/><path fill="#f73c4f" d="M546.04226,267.64564s5.46148,47.0765,10.90254,165.41948l-13.06429.3943-13.48128-49.05778-9.06843-77.98847-13.14922,71.18715L501.38026,434.278l-12.6958-1.81368-3.62737-70.73374s5.89448-80.25558,16.32317-98.84585Z"/><path fill="#f9977a" d="M514.50989,203.35559s2.07958,10.27125-4.03121,11.75-25.18043,24.36027-25.18043,24.36027l-10.03349,12.395-19.843-27.3393-7.05531,5.73243,17.7781,36.297a6.96335,6.96335,0,0,0,10.06591,2.76648c6.68313-4.372,16.492-11.44312,20.22025-17.45656l3.96861-2.64574v13.66966l43.43422,4.63,8.62511-30.60946s1.02451-15.93118-13.37788-25.48567c0,0-5.03646-1.93475-8.21135-10.03071C530.86938,201.38892,516.72349,203.89355,514.50989,203.35559Z"/><path fill="#f9977a" d="M567.06309,252.34586,552.45861,236.9053l-13.37788-25.48567s11.3142-2.25224,24.33124,13.30471a275.7094,275.7094,0,0,1,22.64753,31.74887s4.23318,5.50314-1.69327,7.61973-33.44215,2.96323-33.44215,2.96323l-2.91031-8.51928Z"/><path fill="#376f92" d="M539.86489,210.19041,523.5495,235.76589,509.87985,214.159S487.832,226.5058,484.74533,238.85259l12.1263,13.44917,3.52765-3.0867-3.52765,18.07922s-26.89835,90.837-28.22122,119.49922c0,0,15.43348,8.37818,91.719,7.49626,0,0,4.85052-57.7653-16.31539-126.55452l7.0553-22.92974,9.70105.88191L574.039,234.6635S558.60555,212.61567,539.86489,210.19041Z"/><path fill="#dd765e" d="M475.26476 251.86077c-.12153.98761-.376 1.928-.58515 2.87946l-.355 1.413a11.496 11.496 0 00-.28575 1.43122 4.25827 4.25827 0 01-.04836-1.48969c.0532-.49377.1615-.97644.26128-1.45935A13.3468 13.3468 0 01475.26476 251.86077zM575.794 251.86077a35.907 35.907 0 00-4.385-.05206 20.95114 20.95114 0 00-2.17432.18482c-.72671.07659-1.43976.22863-2.17164.35235a12.1316 12.1316 0 014.32464-.97711A13.363 13.363 0 01575.794 251.86077z"/><path fill="#f9977a" d="M550.92408,267.05617s1.852,15.29237-3.38654,18.14977-3.65112-7.461-5.07982-13.81076c0,0-2.15038,5.83371-3.377,4.98053s1.472-13.55273,3.6151-15.29891c0,0,1.03184-1.66682,5.31794-2.53991Z"/><path fill="#dd765e" d="M549.76 276.39563a35.16336 35.16336 0 01-.47506 4.21185c-.13677.69262-.25705 1.38843-.41925 2.07684a10.38417 10.38417 0 01-.62689 2.03113c.13922-.68854.18624-1.3971.29334-2.09271l.31871-2.08985C549.11468 279.148 549.35614 277.75915 549.76 276.39563zM547.61691 275.52252a37.47321 37.47321 0 01-.23143 5.165c-.11519.85473-.22217 1.71191-.40392 2.55908a6.84673 6.84673 0 01-.86508 2.44055 4.53348 4.53348 0 00.33839-1.2309q.1192-.62768.19235-1.26684c.11065-.848.22033-1.69794.30066-2.55188C547.16723 278.93579 547.32269 277.22619 547.61691 275.52252zM545.39449 274.64941a26.10128 26.10128 0 01.09475 4.9032 22.11644 22.11644 0 01-.34778 2.43921 5.48745 5.48745 0 01-.951 2.26751 7.63433 7.63433 0 00.61728-2.32806c.10311-.8006.19324-1.60388.24239-2.41272C545.19415 277.90338 545.24453 276.28076 545.39449 274.64941zM542.45772 271.3952a6.77067 6.77067 0 01-.15724-1.6319 12.49024 12.49024 0 01.15724-1.62237 3.79686 3.79686 0 01.28314 1.62994A5.16225 5.16225 0 01542.45772 271.3952z"/><path fill="#f9977a" d="M455.42172,224.5215a68.84452,68.84452,0,0,0-4.72888-7.15545c-.37776-.44208-.74557-.88973-1.10086-1.35005-.936-1.21277-2.6719-3.3-3.57146-3.35623-1.26995-.07937,2.34589,5.93086,2.34589,5.93086l-11.00185-5.45805a2.25135,2.25135,0,0,0-.85807-.2404c-.51252-.0316-1.04908.11286.06875,1.19629.89028.86289,5.23856,3.73049,5.23856,3.73049l-6.42915-2.46054s-3.49237-.87309-1.03183,1.11121a23.95907,23.95907,0,0,0,6.11165,3.25426l-5.71479-1.13365s-3.17489-.93-.39686,1.05428a14.903,14.903,0,0,0,5.15919,2.46054s1.03183,1.03184-4.60359-1.03184c0,0-3.92892-.99215,1.11121,1.82556,0,0,9.53348,5.0269,12.34678,7.35515Z"/><path fill="#dd765e" d="M447.68734 219.24768a6.68366 6.68366 0 00-.40856 1.09094 7.08183 7.08183 0 00-.23347 1.11383 19.304 19.304 0 00-.15169 2.3194 4.34276 4.34276 0 01-.29673-1.16767 5.58686 5.58686 0 01.01267-1.21588A3.51638 3.51638 0 01447.68734 219.24768zM446.02052 219.24768a7.60378 7.60378 0 01-2.12333 1.66687 6.30137 6.30137 0 01-1.27438.498 2.78346 2.78346 0 01-1.36462.04395 5.23443 5.23443 0 001.25971-.36646 9.46438 9.46438 0 001.17369-.565C444.47747 220.13885 445.21164 219.65582 446.02052 219.24768z"/><path fill="#f9977a" d="M501.30644,433.45942l-.4266,12.3743s-34.04286,9.55514-34.71749,5.50082c0,0-2.61642-.04439,15.06821-9.99924a17.10739,17.10739,0,0,0,7.31078-9.11079Z"/><path fill="#376f92" d="M501.18655,436.937l-.12623,18.147H490.38093l-.52144-2.11991s-27.7661,4.71026-23.77481-2.25341c0,0,1.81536,1.70584,8.95106.52028l-3.02258-5.66017,6.81718-2.98171,4.412,6.49486,11.93617-2.57234a7.14679,7.14679,0,0,0,5.589-6.12466Z"/><path fill="#376f92" d="M499.50928,437.42785c-3.34668,0-10.58887-.40137-12.6001-3.76172a.45328.45328,0,0,1,.77832-.46484c2.30859,3.85449,13.36182,3.28906,13.47412,3.28223a.46262.46262,0,0,1,.47754.42773.45445.45445,0,0,1-.42773.47852C501.10547,437.39563,500.4668,437.42785,499.50928,437.42785Z"/><path fill="#dd765e" d="M531.91978,203.72848c-5.07353,5.40387-11.578,7.74355-16.7634,5.35672-.13409-.06169-.26252-.13166-.39289-.19873a20.892,20.892,0,0,0-.25364-5.53091c2.21361.538,16.35953-1.96665,16.35953-1.96665C531.2015,202.23584,531.55477,203.0116,531.91978,203.72848Z"/><path fill="#f9977a" d="M509.76249,183.565c1.7943-11.54516,9.6448-19.91027,17.53456-18.68409,6.08951.94642,10.419,7.33178,11.25437,15.504a2.23177,2.23177,0,0,1,1.86106-.35932c1.727.5517,2.23608,3.78765,1.13709,7.22761-.92784,2.90439-2.70457,5.01791-4.275,5.276-2.87895,9.12037-9.66074,15.21938-16.47531,14.16032C512.90952,205.46323,507.96818,195.11007,509.76249,183.565Z"/><path fill="#dd765e" d="M519.13189,182.2022a6.50414,6.50414,0,0,1,.21526,4.13417,15.035,15.035,0,0,1-1.5194,3.906c-.35174.61664-.9176,1.11806-.80219,1.66286a2.36447,2.36447,0,0,0,1.08209,1.44994,5.1023,5.1023,0,0,0,3.897.3377,4.75327,4.75327,0,0,1-4.121.02362,2.63434,2.63434,0,0,1-1.35582-1.73981,1.60934,1.60934,0,0,1,.27606-1.15256l.55332-.87034a16.51435,16.51435,0,0,0,1.58372-3.73564A7.41263,7.41263,0,0,0,519.13189,182.2022Z"/><path fill="#160b07" d="M531.47314 184.47184a.55238.55238 0 00.25129-.90827c-.14579-.15645-3.62251-3.81263-8.06121-2.81744a.5525.5525 0 10.24163 1.07826c3.82816-.85815 6.98047 2.45971 7.012 2.49335A.55264.55264 0 00531.47314 184.47184zM516.78887 181.06725a.55268.55268 0 00.01984-1.05706 10.66292 10.66292 0 00-6.67771.20592.55258.55258 0 00.41583 1.02394 9.64482 9.64482 0 015.91927-.17871A.55282.55282 0 00516.78887 181.06725zM530.41981 186.94014a10.02117 10.02117 0 00-3.74543-1.68531 4.85555 4.85555 0 00-1.98679.0559 6.64484 6.64484 0 00-1.8934.83285 4.296 4.296 0 011.76968-1.23965 4.19342 4.19342 0 012.20386-.19355 5.789 5.789 0 012.03888.80613A6.15971 6.15971 0 01530.41981 186.94014z"/><circle cx="525.398" cy="186.161" r="1.239" fill="#160b07"/><circle cx="513.548" cy="185.238" r="1.239" fill="#160b07"/><path fill="#160b07" d="M517.73109,186.31614a10.02111,10.02111,0,0,0-3.74542-1.6853,4.8552,4.8552,0,0,0-1.98679.0559,6.64472,6.64472,0,0,0-1.8934.83285,4.29576,4.29576,0,0,1,1.76967-1.23965,4.1919,4.1919,0,0,1,2.20386-.19355,5.789,5.789,0,0,1,2.03889.80613A6.15945,6.15945,0,0,1,517.73109,186.31614Z"/><path fill="#dd765e" d="M540.79669,183.97184a5.4042,5.4042,0,0,0-.927-1.058.78911.78911,0,0,0-1.02059-.08641,3.7085,3.7085,0,0,0-.88279.97714c-.27971.38074-.50221.80705-.80379,1.20691a5.53888,5.53888,0,0,1,.4354-1.41891,2.85448,2.85448,0,0,1,.9555-1.2317,1.15868,1.15868,0,0,1,.87271-.195,1.28807,1.28807,0,0,1,.73284.43919A2.78661,2.78661,0,0,1,540.79669,183.97184Z"/><path fill="#dd765e" d="M538.94651,187.812a2.73338,2.73338,0,0,1-.63272-1.27082,4.74468,4.74468,0,0,1-.11674-1.42213,6.03589,6.03589,0,0,1,.25067-1.39193l.23684-.66236c.11022-.21026.20163-.42443.3265-.62555-.07672.94-.21972,1.82285-.26261,2.71156a11.70706,11.70706,0,0,0-.01624,1.32719A5.82965,5.82965,0,0,0,538.94651,187.812Z"/><circle cx="539.719" cy="190.842" r="2.46" fill="#ffcb33"/><path fill="#dd2f22" d="M525.791,197.88647s-6.693,4.63966-10.82828.03682"/><path fill="#160b07" d="M521.261,167.039c1.73786.332,2.7501,1.60548,4.77459,4.15239,3.91063,4.91982,6.413,11.81926,9.01318,12.94166a1.57009,1.57009,0,0,0,.93831.14545c.98761-.19178,1.32824-1.49834,2.34918-3.36212.77153-1.40849,1.124-1.66094,1.57518-2.45091a11.08334,11.08334,0,0,0,.03335-10.01117,11.74277,11.74277,0,0,0-6.7153-5.39074c-5.90754-2.21033-11.40436.2173-12.79842.83295-8.37529,3.69888-11.623,12.31268-11.31,12.5471C509.489,176.7191,515.46879,165.93247,521.261,167.039Z"/><path fill="#f73c4f" d="M509.87985,214.159s17.69451,40.18234,16.72715,70.1003,5.31278,63.73,5.31278,63.73-4.3302,4.2856-11.02,0-11.79927,0-11.79927,0-6.754,1.42919-8.68008-2.8569,3.18232-51.91944,2.05681-63.1059.84355-51.03229-6.332-58.25466C496.14525,223.77187,499.35863,211.76854,509.87985,214.159Z"/><rect width="475.049" height="1.82" x="112.476" y="453.264" fill="#935b50"/><rect width="7.892" height="125.185" x="326.637" y="327.899" fill="#935b50"/><rect width="237.163" height="6.053" x="112.476" y="321.847" fill="#935b50" rx="1.361"/><rect width="7.892" height="125.185" x="128.215" y="327.899" fill="#935b50"/><path fill="#c38f86" d="M121.91909,327.89949h218.816a0,0,0,0,1,0,0v15.68478a2.72113,2.72113,0,0,1-2.72113,2.72113H124.64021a2.72113,2.72113,0,0,1-2.72113-2.72113V327.89949A0,0,0,0,1,121.91909,327.89949Z"/><path fill="#ffba55" d="M157.74861,317.82382v.379a3.64528,3.64528,0,0,1-3.644,3.644H143.15819a3.64528,3.64528,0,0,1-3.644-3.644V303.452a3.64529,3.64529,0,0,1,3.644-3.644h10.94646a3.64529,3.64529,0,0,1,3.644,3.644v14.37178Z"/><path fill="#7ca1b1" d="M163.78289,303.56853h-6.03425v2.18638h4.94106v9.88246h-4.94106v2.18638h6.03425a1.09165,1.09165,0,0,0,1.09319-1.09319V304.66172A1.09177,1.09177,0,0,0,163.78289,303.56853Z"/><rect width="4.529" height="4.529" x="148.631" y="307.353" fill="#7ca1b1" rx=".729"/><rect width="1.026" height="7.546" x="150.383" y="299.808" fill="#7ca1b1"/><path fill="#ffba55" d="M261.297 299.24651a1.51974 1.51974 0 00-1.12415-.5464c-.56991.07688-.54258.829-1.54466 1.77988-.817.77524-2.39553 1.75564-3.66034 1.34333-1.05455-.3438-.9077-1.33477-2.14955-2.21642a5.18815 5.18815 0 00-2.38788-.872c1.10557 4.4456 3.15128 7.44055 5.49943 7.44055C258.18654 306.17546 260.16483 303.40862 261.297 299.24651zM255.26994 312.20034c-1.00464.04737-1.54212 1.11942-3.49272 4.3658-.95835 1.59459-1.67038 2.737-2.19948 3.58417-.00874.31593-.0204.62968-.0204.95071h12.745c0-.317-.012-.62676-.02-.93868-.72623-.92082-1.82415-2.30042-3.45262-4.46947C256.91153 313.13774 256.25926 312.1537 255.26994 312.20034z"/><path fill="#fff" d="M255.92968,306.92119c-3.99157,0-7.11879-6.91035-7.11879-15.73305v-.74628h14.23758v.74628C263.04847,300.01084,259.92125,306.92119,255.92968,306.92119Zm-5.61895-14.98677c.164,8.10411,2.9822,13.49422,5.61895,13.49422s5.455-5.39011,5.619-13.49422Z"/><path fill="#fff" d="M263.04847,321.84675H248.81089v-.74627c0-8.8227,3.12722-15.73306,7.11879-15.73306s7.11879,6.91036,7.11879,15.73306Zm-12.73774-1.49255h11.2379c-.164-8.10411-2.9822-13.49422-5.619-13.49422S250.47471,312.25009,250.31073,320.3542Z"/><path fill="#7ca1b1" d="M267.40023,320.354H265.1614V291.93423h2.23883a.74628.74628,0,1,0,0-1.49256H244.45947a.74628.74628,0,0,0,0,1.49256h2.23884V320.354h-2.23884a.74628.74628,0,0,0,0,1.49256h22.94076a.74628.74628,0,1,0,0-1.49256Zm-19.20937-28.41978h15.478V320.354h-15.478Z"/><path fill="#fcfcfc" d="M290.3995,310.96615c-.05284-1.18173-.02-2.34433.01567-3.506l.755-3.34021,1.49912-6.683,1.49875-6.683.74955-3.3413c.49485-1.05893.93249-2.13061,1.47762-3.17824.04518,1.18008-.01676,2.33594-.0215,3.50473l-.74919,3.34149-1.49912,6.683-1.49875,6.683-.74373,3.34258C291.41907,308.855,290.95228,309.92015,290.3995,310.96615Z"/><path fill="#f65b2b" d="M293.76212,314.157q-1.28613-6.73482-2.44836-13.48748c-.40156-2.24868-.88839-4.48551-1.11322-6.7595a52.1032,52.1032,0,0,1-.30063-6.8752l.14758-.021a52.03248,52.03248,0,0,1,1.63066,6.68589c.41869,2.24631.57575,4.53.8177,6.80159q.76851,6.80834,1.41385,13.63469Z"/><path fill="#ffba55" d="M300.30481,288.09826c-.13519,1.17517-.35128,2.31773-.571,3.45919l-1.27428,3.17842-2.53873,6.36122-2.53837,6.361-1.26918,3.18061c-.65664.9671-1.25825,1.95606-1.96262,2.904.14211-1.17243.38662-2.30388.5761-3.45718l1.26955-3.18061,2.53837-6.361,2.53836-6.36122,1.26408-3.18261C298.96348,290.021,299.59351,289.0435,300.30481,288.09826Z"/><rect width="6.106" height="21.829" x="284.459" y="288.399" fill="#ffba55" transform="rotate(-13.056 287.512 299.313)"/><path fill="#7ca1b1" d="M299.67749,317.60472v.39961a3.66326,3.66326,0,0,1-3.44956,3.84242H285.86548a3.66326,3.66326,0,0,1-3.44955-3.84242V302.45019a3.66327,3.66327,0,0,1,3.44955-3.84243h10.36245a3.66327,3.66327,0,0,1,3.44956,3.84243v15.15453Z"/><rect width="17.261" height="1.493" x="282.416" y="304.511" fill="#fcfcfc"/><rect width="17.261" height="1.493" x="282.416" y="307.497" fill="#fcfcfc"/><path fill="#fff" d="M177.67477,312.755H228.979a0,0,0,0,1,0,0v8.14531a0,0,0,0,1,0,0H177.67477a3.50483,3.50483,0,0,1-3.50483-3.50483v-1.13566a3.50483,3.50483,0,0,1,3.50483-3.50483Z"/><path fill="#f65b2b" d="M230.5834,321.10876a.738.738,0,0,1-.738.738H176.59732c-2.03308,0-3.68681-2.233-3.68681-4.97819,0-2.74454,1.65373-4.97753,3.68681-4.97753H229.8454a.738.738,0,0,1,.738.738v.5809a.738.738,0,0,1-.738.738H176.59732c-1.19307,0-2.16349,1.31034-2.16349,2.92064,0,1.611.97042,2.9213,2.16349,2.9213H229.8454a.738.738,0,0,1,.738.738Z"/><path fill="#fff" d="M169.67034,302.79922h51.30419a0,0,0,0,1,0,0v8.14531a0,0,0,0,1,0,0H169.67034a3.50483,3.50483,0,0,1-3.50483-3.50483V306.304a3.50483,3.50483,0,0,1,3.50483-3.50483Z"/><path fill="#ffba55" d="M222.579,311.153a.738.738,0,0,1-.738.738H168.59288c-2.03307,0-3.6868-2.233-3.6868-4.9782,0-2.74454,1.65373-4.97753,3.6868-4.97753H221.841a.738.738,0,0,1,.738.738v.5809a.738.738,0,0,1-.738.738H168.59288c-1.19306,0-2.16349,1.31033-2.16349,2.92063,0,1.611.97043,2.9213,2.16349,2.9213H221.841a.738.738,0,0,1,.738.738Z"/><path fill="#fff" d="M186.05508,292.8435h51.30419a0,0,0,0,1,0,0v8.14531a0,0,0,0,1,0,0H186.05508a3.50483,3.50483,0,0,1-3.50483-3.50483v-1.13566A3.50483,3.50483,0,0,1,186.05508,292.8435Z"/><path fill="#f65b2b" d="M238.96371,301.1973a.738.738,0,0,1-.738.738H184.97763c-2.03308,0-3.68681-2.233-3.68681-4.9782,0-2.74454,1.65373-4.97753,3.68681-4.97753h53.24808a.738.738,0,0,1,.738.738v.5809a.738.738,0,0,1-.738.738H184.97763c-1.19307,0-2.16349,1.31033-2.16349,2.92063,0,1.611.97042,2.9213,2.16349,2.9213h53.24808a.738.738,0,0,1,.738.738Z"/></svg>