<svg xmlns="http://www.w3.org/2000/svg" data-name="Layer 1" viewBox="0 0 600 450"><path fill="#efedef" d="M86.72946,289.42083c11.30531,61.798,141.81405,163.38536,185.86986,81.637,23.19-43.03068,91.94384-105.18176,144.92912-142.15351,51.5207-35.95011-94.52187-98.348-185.86952-81.63684S75.42414,227.62286,86.72946,289.42083Z"/><path fill="none" stroke="#efedef" stroke-miterlimit="10" stroke-width="1.074" d="M433.10942,224.6257C489.62606,185.18952,329.42179,116.741,229.2162,135.07256S57.83139,223.21992,70.233,291.01042"/><rect width="278.803" height="214.087" x="99.492" y="47.75" fill="#904d24" rx="3.306"/><rect width="250.687" height="192.497" x="113.55" y="58.545" fill="#558031" rx="2.973"/><polygon fill="#935b50" points="451.09 311.738 398.289 311.738 398.289 282.258 450.995 282.258 451.09 311.738"/><rect width="75.731" height="71.665" x="386.57" y="207.46" fill="#d6694b" rx="6.353"/><rect width="84.879" height="8.725" x="381.995" y="303.012" fill="#d6694b" rx="1.412"/><rect width="73.444" height="5.506" x="387.586" y="311.738" fill="#935b50" rx="1.412"/><rect width="8.132" height="54.892" x="420.115" y="317.244" fill="#d6694b"/><polygon fill="#935b50" points="428.247 376.496 480.39 394.866 480.39 388.259 428.247 372.136 420.115 372.136 367.93 388.259 367.93 394.866 420.115 376.496 428.247 376.496"/><rect width="11.944" height="8.64" x="418.209" y="370.103" fill="#e19974" rx="1.412"/><rect width="8.006" height="126.99" x="520.197" y="275.26" fill="#935b50"/><rect width="240.583" height="6.14" x="302.947" y="269.12" fill="#935b50" rx="1.38"/><rect width="8.006" height="126.99" x="318.913" y="275.26" fill="#935b50"/><path fill="#c38f86" d="M312.52685,275.26045H534.49808a0,0,0,0,1,0,0v15.911a2.76037,2.76037,0,0,1-2.76037,2.76037H315.28722a2.76037,2.76037,0,0,1-2.76037-2.76037v-15.911A0,0,0,0,1,312.52685,275.26045Z"/><rect width="7.751" height="13.723" x="360.79" y="387.242" fill="#d6694b" rx="1.765"/><rect width="7.751" height="13.723" x="479.779" y="387.242" fill="#d6694b" rx="1.765" transform="rotate(-180 483.655 394.104)"/><path fill="#160b07" d="M339.26745,130.99238a19.76234,19.76234,0,0,0-6.43419-9.08559,18.24758,18.24758,0,0,0-17.53838-3.07725c-2.343.71289-11.97266,3.64242-14.18039,11.13565-2.53331,8.59762,5.75761,19.63,13.70146,21.69786a39.78348,39.78348,0,0,0,8.33391-1.094c1.40218,9.71013,7.29034,35.24728,11.60723,31.8729C339.24491,178.934,342.705,141.38045,339.26745,130.99238Z"/><path fill="#ffba55" d="M356.45376,188.58514s-8.80223,41.0713,14.4952,94.74859c9.55171,22.00714,17.42232,28.73155,17.42232,28.73155s-8.71415-6.41875-16.43044,2.13958-19.94248,6.93152-19.94248,6.93152L338.886,188.58514Z"/><path fill="#e6952a" d="M382.44262,304.71146a15.00189,15.00189,0,0,0-7.13794.47706,10.85156,10.85156,0,0,0-3.26612,1.55444,10.09174,10.09174,0,0,0-1.37915,1.209c-.41577.449-.79956.92456-1.2124,1.40528a17.12541,17.12541,0,0,1-6.03,4.499,19.0084,19.0084,0,0,1-7.325,1.583l-.01269-.09546a38.6232,38.6232,0,0,0,6.91088-2.42261,24.37924,24.37924,0,0,0,6.07984-3.93335c.89868-.822,1.8042-1.72217,2.77832-2.49267a13.52657,13.52657,0,0,1,3.17969-2.05982,9.50823,9.50823,0,0,1,7.44189.1836Z"/><path fill="#d87e6a" d="M311.02417 158.07571l-4.02265.78784 4.56408 14.382 18.89125-.86146 8.42919-12.98037s-13.973-1.47827-15.94226-7.96zM274.23155 187.63633l-8.075-29.4641-8.20334 1.27059c1.89076 41.46355 8.63155 45.19291 8.63155 45.19291 4.784 5.35065 31.72714-15.6497 31.72714-15.6497l1.89491-25.43376C298.91594 162.08129 274.23155 187.63633 274.23155 187.63633zM341.76673 184.677s19.87885 19.3283 21.082 17.78467l15.32564 2.86425s-12.24658-35.95425-34.91193-43.81618z"/><path fill="#f9977a" d="M349.90647,194.87857l17.01385-12.7088c-12.52066-17.939-19.81755-19.0177-19.81925-19.0185v-.00005s-7.89215-4.90208-14.10517-4.72075A14.767,14.767,0,0,1,319.60871,169.036c-10.97819.80663-9.25895-10.69474-9.25895-10.69474l1.12734-.14577a5.39671,5.39671,0,0,0,.99329-.22779c-5.68093.60568-11.26753,2.03785-14.86093,5.03415h0c-3.6883,1.31561-3.47147,32.03431-.4273,29.317h0l-.0006-.00412a55.84122,55.84122,0,0,0,5.05616,15.14805l3.15221,30.06363,39.44685-1.84672s-5.69443-30.21032.83411-46.19726Z"/><path fill="#f73943" d="M355.70861,197.34543l12.45524-9.30369a2.97726,2.97726,0,0,0,.61026-4.15065,115.47176,115.47176,0,0,0-16.533-18.51056,25.02436,25.02436,0,0,0-8.59589-4.90641c-3.1252-1.03692-7.2941-2.14157-10.64937-2.04365A14.767,14.767,0,0,1,319.60871,169.036c-10.97819.80663-8.58454-10.96028-8.58454-10.96028s-7.47772,1.027-12.61728,3.91306c-2.88693,1.62111-15.78791,14.458-19.70522,18.38576a1.69678,1.69678,0,0,0-.06058,2.33189l10.62744,11.84729a3.61144,3.61144,0,0,0,5.09324.28269l2.82039-2.51757-.0006-.00412c.66889,3.6793.03668,18.64692,3.00207,24.45327l42.69372,2.91636s-1.48138-19.08867,2.72405-29.854l6.07484,7.07083A2.97162,2.97162,0,0,0,355.70861,197.34543Z"/><path fill="#dd765e" d="M311.84767,152.95286s5.13685,3.7529,11.03433-.9728c0,0-1.95491,8.26657-11.85783,6.09565A5.88827,5.88827,0,0,0,311.84767,152.95286Z"/><path fill="#d87e6a" d="M306.60979,134.66009c1.929-9.47841,8.74373-16.09348,15.22111-14.77525,4.99941,1.01747,8.3336,6.465,8.70933,13.25541a1.8476,1.8476,0,0,1,1.5529-.2254c1.40692.52283,1.70316,3.21852.66168,6.02092-.87929,2.3661-2.4301,4.04542-3.73874,4.19829-2.73249,7.43135-8.57605,12.21361-14.17071,11.075C308.368,152.89081,304.68078,144.13845,306.60979,134.66009Z"/><path fill="#ba6558" d="M314.41063,133.89433a5.16289,5.16289,0,0,1,.14893,3.47192,11.29134,11.29134,0,0,1-1.39355,3.22461c-.167.24438-.35767.48169-.51.69238a.73638.73638,0,0,0-.189.53736,1.78847,1.78847,0,0,0,.74487,1.14355,4.34308,4.34308,0,0,0,3.1316.54346,3.83878,3.83878,0,0,1-3.48731-.02539,2.325,2.325,0,0,1-1.14819-1.58838,1.49291,1.49291,0,0,1,.30127-1.0586l.491-.69677a15.58772,15.58772,0,0,0,1.46705-2.9751A6.49887,6.49887,0,0,0,314.41063,133.89433Z"/><path fill="#160b07" d="M324.52906 136.24716a.45732.45732 0 00.24283-.74144c-.11454-.135-2.84873-3.29263-6.55781-2.64077a.4574.4574 0 10.15825.901c3.19889-.56207 5.67786 2.30327 5.70262 2.33231A.45752.45752 0 00324.52906 136.24716zM312.51676 132.86544a.45754.45754 0 00.05716-.8734 8.82768 8.82768 0 00-5.53026-.08718.45747.45747 0 00.3044.86281 7.98476 7.98476 0 014.902.08044A.45769.45769 0 00312.51676 132.86544zM323.56273 138.24784a11.103 11.103 0 00-1.46142-.94043 5.85336 5.85336 0 00-1.5708-.5979 3.73459 3.73459 0 00-1.64527-.03027 5.49765 5.49765 0 00-1.5979.61572 3.55544 3.55544 0 011.51123-.95679 3.65984 3.65984 0 011.83008-.075 5.173 5.173 0 011.655.74512A5.09176 5.09176 0 01323.56273 138.24784z"/><circle cx="319.44" cy="137.41" r="1.026" fill="#160b07"/><circle cx="309.676" cy="136.19" r="1.026" fill="#160b07"/><path fill="#160b07" d="M313.0935,137.24247a11.10005,11.10005,0,0,0-1.46143-.94018,5.84557,5.84557,0,0,0-1.5708-.59815,3.738,3.738,0,0,0-1.64526-.03027,5.49814,5.49814,0,0,0-1.5979.616,3.55579,3.55579,0,0,1,1.51123-.957,3.66254,3.66254,0,0,1,1.83007-.075,5.17822,5.17822,0,0,1,1.655.74512A5.10024,5.10024,0,0,1,313.0935,137.24247Z"/><path fill="#ba6558" d="M332.25878,136.19315a6.3568,6.3568,0,0,0-.82471-.81469c-.29638-.20044-.43457-.18384-.65576-.05591a3.41669,3.41669,0,0,0-.7373.69751,11.159,11.159,0,0,1-.82788.89258,3.39744,3.39744,0,0,1,.29833-1.231,2.29384,2.29384,0,0,1,.86817-1.05811,1.11868,1.11868,0,0,1,.84839-.13745,1.17645,1.17645,0,0,1,.65478.45606A2.00533,2.00533,0,0,1,332.25878,136.19315Z"/><path fill="#ba6558" d="M330.58056,139.29765a1.98,1.98,0,0,1-.61133-1.06128,3.50873,3.50873,0,0,1-.07739-1.21289,4.20615,4.20615,0,0,1,.2998-1.15772,3.4242,3.4242,0,0,1,.64966-1.009,16.51641,16.51641,0,0,1-.14893,2.25049c-.04541.35473-.07422.70727-.10058,1.06469A8.40217,8.40217,0,0,0,330.58056,139.29765Z"/><circle cx="331.103" cy="141.833" r="2.036" fill="#ffcb33"/><path fill="#dd2f22" d="M319.31285,147.12168s-5.71384,3.57883-8.95617-.38706"/><circle cx="315.052" cy="131.537" r=".986" fill="#dd2f22"/><circle cx="315.38" cy="143.334" r=".986" fill="#ffcb33"/><path fill="#160b07" d="M316.756,121.43678c1.42437.34155,2.21237,1.43373,3.78838,3.618,3.04431,4.21937,4.84773,10.02154,6.9547,11.05a1.29989,1.29989,0,0,0,.77035.15646c.82413-.12051,1.15621-1.18788,2.07236-2.68982.69234-1.135.99357-1.33022,1.39714-1.96611a9.17564,9.17564,0,0,0,.41359-8.27774,9.72159,9.72159,0,0,0-5.34556-4.71694c-4.80018-2.05568-9.43953-.26-10.61613.19535-7.0688,2.736-10.08675,9.73417-9.83692,9.9401C306.6476,128.98816,312.00864,120.29842,316.756,121.43678Z"/><path fill="#d87e6a" d="M358.21933,379.49825s4.529,16.72136,3.30725,17.33431-34.04,4.84182-28.50023,1.5665l9.24028-4.82841a9.48687,9.48687,0,0,0,5.0784-8.93939l-.30319-5.40609Z"/><path fill="#f73943" d="M334.19847,397.78658l9.07811-1.05565a22.65508,22.65508,0,0,0-2.44726-2.27727,1.00314,1.00314,0,0,1,.1782-1.66858,1.6773,1.6773,0,0,1,1.68042.081,17.07076,17.07076,0,0,1,3.44749,3.53245l2.73315-.31781c.601-1.31795,3.00456-5.2105,11.36071-8.50037a.46477.46477,0,0,1,.62178.3301l.29225,1.29776a.46321.46321,0,0,1-.27716.53055,28.16129,28.16129,0,0,0-9.01764,5.99542l9.77889-1.13712c1.02307,1.63489.36046,4.32355.36046,4.32355-15.73721,3.02672-30.81672,2.6394-33.21261,1.42S334.19847,397.78658,334.19847,397.78658Z"/><path fill="#d87e6a" d="M313.79553,380.79982s3.25506,17.01531,1.99052,17.53437-34.30819,2.2608-28.53721-.58739L296.827,393.629a9.48689,9.48689,0,0,0,5.73813-8.53093l.10539-5.41355Z"/><path fill="#f73943" d="M288.46381,397.22446l9.13187-.368a22.65566,22.65566,0,0,0-2.26854-2.45536,1.00313,1.00313,0,0,1,.30353-1.65038,1.67728,1.67728,0,0,1,1.66953.20747,17.07033,17.07033,0,0,1,3.17126,3.78239l2.74934-.11077c.69871-1.26887,3.389-4.96907,11.96943-7.61936a.46476.46476,0,0,1,.59511.376l.19355,1.3161a.46322.46322,0,0,1-.31638.50814,28.16133,28.16133,0,0,0-9.44412,5.29826l9.83679-.39638c.89686,1.70739.03337,4.33842.03337,4.33842-15.92066,1.83123-30.928.30774-33.22512-1.08886S288.46381,397.22446,288.46381,397.22446Z"/><path fill="#ffba55" d="M343.4965,226.34018s13.70762,32.21659,11.44513,73.67943a55.88234,55.88234,0,0,0,1.77006,17.26361L368.731,380.398a4.2452,4.2452,0,0,1-3.41688,4.972l-9.72248,1.75325a154.217,154.217,0,0,1-50.31078.73184l-8.20242-1.234a4.24443,4.24443,0,0,1-3.60589-3.94133c-1.15219-19.12864-6.07835-113.31015,5.62444-157.24728Z"/><path fill="#e6952a" d="M343.49657 226.34013a143.11542 143.11542 0 017.33081 23.00512 185.697 185.697 0 013.96167 23.85083 164.07364 164.07364 0 01.60816 24.17041c-.06617 2.021-.22144 4.01734-.2312 6.01612a56.37072 56.37072 0 00.29834 5.99609 55.80339 55.80339 0 00.90136 5.9458c.48047 1.95166.77173 3.95191 1.10327 5.9353-.43457-1.96655-.80883-3.937-1.35229-5.87915a56.09262 56.09262 0 01-1.12158-5.948 55.34492 55.34492 0 01-.43775-6.04615c-.03466-2.02563.07813-4.04736.09888-6.04882l.063-3.01026c.021-1.00317.07324-2.00586.03784-3.00952l-.092-6.02c-.19482-4.00879-.40234-8.01758-.83423-12.00879a199.6963 199.6963 0 00-3.72314-23.78027c-.83008-3.92945-1.82129-7.82446-2.91309-11.69116Q345.59679 232.00444 343.49657 226.34013zM311.88549 236.01176c-.31445 10.65356-.73413 21.302-1.17017 31.9497l-.70044 15.96924c-.22436 5.3291-.59033 10.63745-.41455 15.94141l1.31519 31.93115c.408 10.64893.80078 21.29834 1.08594 31.95288-.68531-10.63623-1.26343-21.27734-1.82642-31.91894-.54883-10.64722-1.07349-21.27539-1.53711-31.94263-.14771-5.356.25-10.69263.50244-16.00586l.83789-15.96265C310.56811 257.28568 311.17406 246.64628 311.88549 236.01176zM317.23144 243.43241c1.49365 5.09839 2.88476 10.2229 4.26049 15.35108 1.37793 5.12793 2.67188 10.27685 4.01172 15.41406 1.26441 5.15649 2.56909 10.30273 3.79566 15.46875 1.22558 5.16626 2.43676 10.33618 3.54345 15.53247-1.49511-5.09815-2.886-10.22266-4.2622-15.35083-1.37549-5.12842-2.67261-10.27637-4.01026-15.41455-1.26172-5.157-2.56982-10.30225-3.79394-15.469C319.55028 253.79838 318.33959 248.62821 317.23144 243.43241zM315.67553 241.5203c.83862 8.13892 1.57177 16.28589 2.28906 24.43408l2.0332 24.45435 1.81079 24.47144c.563 8.1604 1.11084 16.322 1.55152 24.49218-.84009-8.13867-1.57276-16.28589-2.29053-24.43408l-2.03149-24.45434-1.80933-24.47168C316.66527 257.85185 316.11791 249.69022 315.67553 241.5203zM309.977 232.9766c-.53589 4.88843-1.17627 9.761-1.83252 14.63135-.654 4.8706-1.3938 9.72827-2.08642 14.59326-.77 4.853-1.49854 9.7124-2.30713 14.55982-.80933 4.84716-1.63355 9.69213-2.564 14.52124.53443-4.88868 1.17529-9.76148 1.83081-14.63184.65674-4.87012 1.39307-9.72827 2.08814-14.59277.77246-4.85279 1.4978-9.71265 2.30884-14.55982C308.22338 242.65067 309.04809 237.8057 309.977 232.9766z"/><path fill="#ffba55" d="M332.99589,158.43047c-13.3756,7.93966-30.55465,29.32645-35.08194,35.13174a4.20209,4.20209,0,0,0-.83725,3.25934c.27925,1.71615.55809,3.58484.63689,4.9005.39319,6.56789-7.68759,50.74676-5.30809,75.22176,0,0,27.47651-23.6714,40.74839-45.41508,8.63-16.3041,11.627-70.74762,11.627-70.74762C342.56993,155.90852,332.99589,158.43047,332.99589,158.43047Z"/><path fill="#e6952a" d="M292.40551 276.94389l10.67895-10.44873c3.54029-3.49854 7.096-6.98047 10.542-10.56739q5.25-5.30054 10.19555-10.8811c1.64575-1.86011 3.25122-3.75732 4.749-5.7356a27.06617 27.06617 0 003.86352-6.33447 25.16579 25.16579 0 01-3.481 6.61182c-1.43188 2.05029-2.98217 4.01123-4.56811 5.93994-3.18775 3.846-6.61548 7.47656-10.07031 11.072-3.51294 3.54-7.06519 7.03882-10.72046 10.428C299.93993 270.41728 296.23437 273.7515 292.40551 276.94389zM302.77392 212.576c1.92212-4.489 4.09619-8.865 6.36987-13.18775 2.26855-4.3269 4.75122-8.5393 7.32471-12.69629a124.59779 124.59779 0 018.50024-11.95654c3.10962-3.75781 6.43384-7.45874 10.54663-10.14111L332.741 166.972l-2.5376 2.6189c-1.615 1.81445-3.2124 3.64526-4.65357 5.605a143.22968 143.22968 0 00-8.26733 12.01025c-2.62939 4.09449-5.09033 8.29834-7.49145 12.53687q-1.81311 3.17248-3.54981 6.38989C305.05785 208.26469 303.91552 210.4185 302.77392 212.576zM298.50878 262.12943A123.47585 123.47585 0 00311.635 244.82084a147.54462 147.54462 0 0010.38452-19.05737 150.77936 150.77936 0 007.68823-20.29493c1.16114-3.43676 1.938-6.97875 2.83155-10.4934.50024-1.74683.76977-3.542 1.13452-5.3191l1.05688-5.34423-.80542 5.38916c-.29419 1.793-.49365 3.60644-.92407 5.37426-.80249 3.54615-1.5022 7.12305-2.582 10.6023a141.14914 141.14914 0 01-7.52515 20.488l-2.36572 4.92529-2.58594 4.8125c-1.79638 3.16626-3.63159 6.31641-5.68969 9.32153-2.00928 3.03589-4.18213 5.96045-6.42823 8.82154A90.5112 90.5112 0 01298.50878 262.12943zM304.85326 232.40751c1.50244-3.62183 3.10034-7.19849 4.71265-10.76807 1.61035-3.57055 3.29883-7.10376 4.94458-10.65771 1.71606-3.52027 3.39453-7.05835 5.14575-10.562 1.7522-3.50318 3.51807-6.99976 5.38086-10.4502-1.50122 3.62256-3.09937 7.19873-4.71118 10.7688-1.61279 3.56934-3.2981 7.10425-4.94605 10.657-1.7185 3.51905-3.3938 7.05884-5.14746 10.56128C308.4807 225.45976 306.71459 228.95634 304.85326 232.40751z"/><rect width="37.013" height="61.83" x="316.412" y="173.219" fill="#6c7fd8"/><path fill="#d87e6a" d="M341.48432,215.56516s-.88512-3.69993-7.79433-8.46081-12.854-7.77113-8.87809-3.39179l3.08505,3.287a47.15321,47.15321,0,0,0-9.79425-1.98086c-1.9239-.07516-5.45852,5.71171-1.69063,7.73231,6.22351,3.33747,8.4184,3.62155,10.20972,3.92464l.01912.00336a21.81886,21.81886,0,0,0,7.48916.11568Z"/><path fill="#ba6558" d="M331.852 208.02323a5.31226 5.31226 0 01-2.0686-.17114 5.77554 5.77554 0 01-1.88648-.85254 4.19636 4.19636 0 012.09326.07471A4.56257 4.56257 0 01331.852 208.02323zM323.10351 208.57816a8.61144 8.61144 0 01-3.96729.34107 8.435 8.435 0 01-1.95117-.52173 5.38473 5.38473 0 01-1.69263-1.09473 23.45772 23.45772 0 003.75537.81958C320.5078 208.302 321.77563 208.40067 323.10351 208.57816zM321.95092 210.783a13.20086 13.20086 0 01-3.60376-.31934 11.33321 11.33321 0 01-3.4021-1.24512 19.47269 19.47269 0 013.572.4585A16.01705 16.01705 0 01321.95092 210.783zM320.387 212.576a3.18956 3.18956 0 01-1.509.16015 5.89491 5.89491 0 01-1.46338-.35034 7.07232 7.07232 0 01-1.33105-.67309 5.5077 5.5077 0 01-1.13843-.97559 21.47865 21.47865 0 012.75146.895l1.31665.49267C319.45849 212.27372 319.89745 212.45292 320.387 212.576z"/><path fill="#d87e6a" d="M334.73081,208.378l26.20233-6.656,17.24125,3.60383s.2924,6.41209-5.67544,7.50015-36.37351,3.05254-36.37351,3.05254Z"/><path fill="#b02336" d="M297.18212,192.31889c1.35522-2.07959,2.84009-4.05835,4.31421-6.0459,1.51391-1.95752,3.01636-3.9231,4.65381-5.792-1.35181,2.0769-2.83863,4.05737-4.314,6.04565C300.32079,188.48515,298.81615,190.45219,297.18212,192.31889Z"/><path fill="#e6952a" d="M293.10717,376.07914q9.42518.30981,18.814.90674c3.13062.2185,6.26026.50879,9.39746.62378,3.136.14917,6.2771.15259,9.41529.10156,6.27612-.12622,12.5459-.29907,18.78662-.749,3.11621-.25293,6.23291-.53614,9.29931-1.08985a30.76318,30.76318,0,0,0,4.52027-1.11865,7.161,7.161,0,0,0,3.80566-2.47925l.085.04517a4.83348,4.83348,0,0,1-1.61084,1.751,11.66564,11.66564,0,0,1-2.10376,1.13769,27.83885,27.83885,0,0,1-4.54516,1.40234,67.44843,67.44843,0,0,1-9.37232,1.34229c-3.14087.27734-6.29052.37427-9.43628.41528-3.14624.04615-6.29174-.00708-9.43335-.12915-3.14184-.10522-6.28-.24536-9.42114-.2959l-9.427-.15991c-6.27979-.24853-12.55-.75342-18.78223-1.60815Z"/><rect width="4.141" height="4.141" x="297.439" y="379.82" fill="#f73943" transform="rotate(45 299.51 381.89)"/><rect width="4.141" height="4.141" x="305.692" y="380.347" fill="#f73943" transform="rotate(45 307.762 382.418)"/><rect width="4.141" height="4.141" x="313.639" y="381.032" fill="#f73943" transform="rotate(45 315.71 383.103)"/><rect width="4.141" height="4.141" x="321.241" y="381.709" fill="#f73943" transform="rotate(40.902 323.312 383.78)"/><rect width="4.141" height="4.141" x="329.511" y="381.645" fill="#f73943" transform="rotate(40.902 331.581 383.715)"/><rect width="4.141" height="4.141" x="337.486" y="381.76" fill="#f73943" transform="rotate(40.902 339.557 383.83)"/><rect width="4.141" height="4.141" x="345.169" y="381.048" fill="#f73943" transform="rotate(37.239 347.24 383.119)"/><rect width="4.141" height="4.141" x="353.329" y="379.709" fill="#f73943" transform="rotate(32.026 355.4 381.78)"/><rect width="4.141" height="4.141" x="361.227" y="378.592" fill="#f73943" transform="rotate(32.026 363.298 380.663)"/><rect width="2.943" height="2.943" x="359.228" y="316.305" fill="#f73943" transform="rotate(28.309 360.7 317.776)"/><rect width="2.943" height="2.943" x="366.077" y="313.161" fill="#f73943" transform="rotate(15.581 367.548 314.632)"/><rect width="2.943" height="2.943" x="372.077" y="307.868" fill="#f73943" transform="rotate(24.211 373.548 309.34)"/><rect width="2.943" height="2.943" x="379.464" y="305.606" fill="#f73943" transform="rotate(35.593 380.936 307.077)"/><path fill="#d87e6a" d="M262.48019,166.24207s-3.23452-1.74935-5.95742-9.389-4.05147-13.94216-.95331-9.13693l2.30026,3.70084s.57087-6.49581.572-10.39538a4.82887,4.82887,0,0,1,3.34649-4.67074c1.858-.55449,3.23485.16788,4.10287,4.64851,1.29824,6.70141,1.49657,9.89152,1.33287,11.64l-.00164.01869a21.09039,21.09039,0,0,1-1.75976,7.02279Z"/><path fill="#ba6558" d="M257.8391 155.36576a4.30023 4.30023 0 01-.4353-1.97558 3.9583 3.9583 0 01.46582-1.97315 5.37741 5.37741 0 01.33911 1.97437A4.96547 4.96547 0 01257.8391 155.36576zM260.5393 147.33427a46.52607 46.52607 0 01-.522-4.82666c-.10546-1.60694-.18994-3.18433-.31469-4.822a12.75371 12.75371 0 011.11767 4.76757A18.31354 18.31354 0 01260.5393 147.33427zM262.886 146.80766c-.17823-1.7898-.21509-3.54517-.32691-5.29224-.03906-.87427-.11792-1.74121-.21631-2.60376a10.74639 10.74639 0 00-.55444-2.56079 5.79168 5.79168 0 011.17139 2.44141 13.72488 13.72488 0 01.40283 2.676A17.68885 17.68885 0 01262.886 146.80766zM264.95043 145.79423c-.19067-1.49951-.24536-2.9585-.32764-4.41944l-.24609-4.4082a10.84233 10.84233 0 011.0498 4.36719A13.45561 13.45561 0 01264.95043 145.79423z"/><path fill="#fff" d="M350.15867,183.175a.40145.40145,0,0,0-.34-.13517H328.489l-.009.02033a.54627.54627,0,0,0-.12232-.02033h-.51284a.6941.6941,0,0,1-.11334-.24779,1.2049,1.2049,0,0,1-.03449-.29286.75251.75251,0,0,1,.31045-.60823,1.61028,1.61028,0,0,1,1.001-.2478,5.63177,5.63177,0,0,1,.88736.07216,6.00541,6.00541,0,0,1,.87785.20732,4.89257,4.89257,0,0,1,.79866.33333,3.12372,3.12372,0,0,1,.65082.45054,1.35083,1.35083,0,0,0,.34037-.04505,1.21385,1.21385,0,0,0,.31045-.12636.68459.68459,0,0,0,.22175-.20275.4715.4715,0,0,0,.08412-.27455q0-.17106-.33051-.44174a3.93973,3.93973,0,0,0-.90707-.5227,7.767,7.767,0,0,0-1.36112-.43223,7.57355,7.57355,0,0,0-1.7008-.18022,4.9847,4.9847,0,0,0-1.25271.13939,2.84258,2.84258,0,0,0-.88736.383,1.537,1.537,0,0,0-.7001,1.31572,1.92863,1.92863,0,0,0,.03942.37838,1.18256,1.18256,0,0,0,.11827.34248h-6.51455a.73385.73385,0,0,0-.07919.24323,1.55688,1.55688,0,0,0-.02957.27032.70789.70789,0,0,0,.09891.41006.39246.39246,0,0,0,.34494.13974h3.03729v.45054h-1.075a2.01067,2.01067,0,0,0-1.16366.30623.99921.99921,0,0,0-.4435.874,1.06114,1.06114,0,0,0,.138.5498,1.445,1.445,0,0,0,.3548.40549,2.2169,2.2169,0,0,0,.46849.2837,3.24808,3.24808,0,0,0,.4882.176q.19694-.05437.42907-.09468a2.58853,2.58853,0,0,1,.44843-.04048,1.58914,1.58914,0,0,1,.60647.08553.275.275,0,0,1,.19254.2566q0,.415-.82857.41464a2.89962,2.89962,0,0,1-.60155-.05843,2.80151,2.80151,0,0,1-.50263-.15347,2.83249,2.83249,0,0,1-.41429-.21154q-.18743-.11721-.3453-.22527a.95881.95881,0,0,0-.39915.2478.61014.61014,0,0,0-.17282.446.67256.67256,0,0,0,.30587.57655,2.19633,2.19633,0,0,0,.81837.32453l.434.76593a1.7873,1.7873,0,0,0,.53255.6399,1.14712,1.14712,0,0,0,.641.18022.96585.96585,0,0,0,.70009-.2478.90292.90292,0,0,0,.276-.62653q-.25607-.12619-.51742-.28828a6.1321,6.1321,0,0,1-.51777-.36043,4.88964,4.88964,0,0,0,.92678-.13059,2.54465,2.54465,0,0,0,.71-.2837,1.31653,1.31653,0,0,0,.45371-.44174,1.17884,1.17884,0,0,0,.15769-.6216,1.13077,1.13077,0,0,0-.48785-.95529,2.47959,2.47959,0,0,0-1.47447-.36044,3.92288,3.92288,0,0,0-.976.12637.43522.43522,0,0,1-.1334-.11721.279.279,0,0,1-.05421-.17142.29549.29549,0,0,1,.10384-.23407.6115.6115,0,0,1,.38929-.09011h1.60752q.54224,0,.54241-.45054v-.94614h1.50509v3.96477q0,.40548.21682.52692a1.36407,1.36407,0,0,0,.65082.12178,3.86333,3.86333,0,0,0,.434-.0271,1.82909,1.82909,0,0,0,.31573-.05385v-4.53252h.88736c.00352-.00581.00633-.01549.00977-.02191a.55773.55773,0,0,0,.13137.02191h3.78666v.75677q-.25659-.04488-.53255-.07216-.27614-.02692-.51249-.02675a2.91643,2.91643,0,0,0-1.82434.5044,1.81744,1.81744,0,0,0-.65082,1.53184,2.40222,2.40222,0,0,0,.10348.68954,2.3647,2.3647,0,0,0,.29074.63076,1.65293,1.65293,0,0,0,.45371.46391,1.03329,1.03329,0,0,0,.59169.18022.96779.96779,0,0,0,.59168-.16227.91484.91484,0,0,0,.30553-.36923,3.11085,3.11085,0,0,1-.48293-.62653,1.42952,1.42952,0,0,1-.19746-.73424.97314.97314,0,0,1,.09363-.45055.82037.82037,0,0,1,.25167-.29285.98205.98205,0,0,1,.36958-.15769,2.21508,2.21508,0,0,1,.45864-.04505,2.74659,2.74659,0,0,1,.35023.02253c.11474.01513.22843.03449.34.05842v2.05454a.56572.56572,0,0,0,.21718.53185,1.328,1.328,0,0,0,.65082.126,3.28833,3.28833,0,0,0,.43365-.03167,2.02013,2.02013,0,0,0,.31573-.05843v-4.52337h3.40229v.45054h-1.144a1.86715,1.86715,0,0,0-1.10946.28828.9601.9601,0,0,0-.39915.82892,1.09209,1.09209,0,0,0,.138.54981,1.25094,1.25094,0,0,0,.36466.40548,1.53206,1.53206,0,0,0-.40408.4956,1.44093,1.44093,0,0,0-.14783.66666,1.65826,1.65826,0,0,0,.19711.811,1.78,1.78,0,0,0,.56212.61281,2.705,2.705,0,0,0,.8775.383,4.64455,4.64455,0,0,0,1.144.13059,1.40218,1.40218,0,0,0,.80359-.18022.6024.6024,0,0,0,.25167-.5227,1.17079,1.17079,0,0,0-.0345-.27032.62526.62526,0,0,0-.10348-.23407c-.09891.012-.22035.02112-.365.0271s-.26294.0088-.35516.0088a1.99173,1.99173,0,0,1-.99576-.19817.63242.63242,0,0,1-.33544-.57655.56751.56751,0,0,1,.19253-.43717.9727.9727,0,0,1,1.10911-.00457.63894.63894,0,0,1,.158.45054v.07216a.37364.37364,0,0,1-.00986.07215,1.617,1.617,0,0,0,.68039.144,1.57281,1.57281,0,0,0,.34-.03591.7932.7932,0,0,0,.28124-.11721.60111.60111,0,0,0,.19218-.22069.73509.73509,0,0,0,.07392-.34706,1.06075,1.06075,0,0,0-.572-.90531,3.13774,3.13774,0,0,0-1.67615-.365c-.09891,0-.19571.00317-.2911.0088-.09538.00634-.189.01514-.28088.02711a.32231.32231,0,0,1-.13833-.26118.2957.2957,0,0,1,.10383-.23442.61378.61378,0,0,1,.3893-.09011h1.57795q.54224,0,.54241-.45054v-.982h1.252v3.96477q0,.40548.21683.52692a1.364,1.364,0,0,0,.65082.12178,3.86347,3.86347,0,0,0,.434-.0271,1.82909,1.82909,0,0,0,.31573-.05385v-4.53252h2.55365a1.019,1.019,0,0,1,.15276.3108,1.11626,1.11626,0,0,1,.04435.302.82968.82968,0,0,1-.04927.28827.62084.62084,0,0,1-.15769.23865.78144.78144,0,0,1-.29567.16684,1.437,1.437,0,0,1-.45371.063q-.23654,0-.42907-.01795-.19218-.018-.31045-.03626a.98008.98008,0,0,0-.17776.2749.83259.83259,0,0,0-.069.33791.68708.68708,0,0,0,.138.43716.64037.64037,0,0,0,.45371.21155,4.1153,4.1153,0,0,0,.38472.92818,2.86225,2.86225,0,0,0,.49313.63991,1.75438,1.75438,0,0,0,.56213.36923,1.64448,1.64448,0,0,0,.61139.11722,1.15734,1.15734,0,0,0,.46322-.08554.97687.97687,0,0,0,.32558-.22069.89978.89978,0,0,0,.19219-.3108,1.06129,1.06129,0,0,0,.06406-.365,3.31239,3.31239,0,0,1-.43857-.17142,4.7824,4.7824,0,0,1-.46357-.2478,3.32013,3.32013,0,0,1-.43893-.31538,2.26042,2.26042,0,0,1-.365-.39176,2.55438,2.55438,0,0,0,.74972-.23442,2.19555,2.19555,0,0,0,.71.2749,3.55743,3.55743,0,0,0,.72967.08553,3.33943,3.33943,0,0,0,.5424-.04505v1.36078q0,.40548.21683.52692a1.364,1.364,0,0,0,.65082.12178,3.86347,3.86347,0,0,0,.434-.0271,1.82909,1.82909,0,0,0,.31573-.05385v-4.53252h.88735a.80149.80149,0,0,0,.08378-.23442,1.3577,1.3577,0,0,0,.03449-.29743A.64444.64444,0,0,0,350.15867,183.175Zm-2.51952,2.2527a1.8382,1.8382,0,0,1-.37486.11264,2.19558,2.19558,0,0,1-.42379.04048,2.26482,2.26482,0,0,1-.42414-.03591,1.46827,1.46827,0,0,0,.10841-.5498,1.80112,1.80112,0,0,0-.05913-.45934,2.48,2.48,0,0,0-.15769-.43259h1.3312Z"/><path fill="#935b50" d="M388.983 134.36213h5.53667a0 0 0 010 0v18.41933a1.32562 1.32562 0 01-1.32562 1.32562h-2.88543a1.32562 1.32562 0 01-1.32562-1.32562V134.36213A0 0 0 01388.983 134.36213zM481.46908 134.36213h5.53667a0 0 0 010 0v18.41933a1.32562 1.32562 0 01-1.32562 1.32562H482.7947a1.32562 1.32562 0 01-1.32562-1.32562V134.36213A0 0 0 01481.46908 134.36213z"/><path fill="#d6694b" d="M501.62979,136.29822H379.02671c-.68557,0-1.24142-.86675-1.24142-1.93578s.55585-1.93578,1.24142-1.93578H501.62979c.68558,0,1.24143.86676,1.24143,1.93578S502.31537,136.29822,501.62979,136.29822Z"/><line x1="408.811" x2="402.554" y1="129.717" y2="129.717" fill="none" stroke="#fff" stroke-miterlimit="10" stroke-width=".756"/><line x1="408.811" x2="402.554" y1="126.694" y2="126.694" fill="none" stroke="#fff" stroke-miterlimit="10" stroke-width=".756"/><line x1="408.811" x2="402.554" y1="99.49" y2="99.491" fill="none" stroke="#fff" stroke-miterlimit="10" stroke-width=".756"/><line x1="408.811" x2="402.554" y1="96.468" y2="96.468" fill="none" stroke="#fff" stroke-miterlimit="10" stroke-width=".756"/><path fill="#7ca1b1" d="M419.34337,109.22826h39.13679a0,0,0,0,1,0,0V115.382a0,0,0,0,1,0,0H419.34337a.63963.63963,0,0,1-.63963-.63963v-4.8745A.63963.63963,0,0,1,419.34337,109.22826Z" transform="rotate(97.76 438.592 112.305)"/><line x1="443.917" x2="437.819" y1="96.019" y2="95.188" fill="none" stroke="#fff" stroke-miterlimit="10" stroke-width=".743"/><line x1="443.515" x2="437.418" y1="98.965" y2="98.134" fill="none" stroke="#fff" stroke-miterlimit="10" stroke-width=".743"/><line x1="439.903" x2="433.805" y1="125.475" y2="124.644" fill="none" stroke="#fff" stroke-miterlimit="10" stroke-width=".743"/><line x1="439.501" x2="433.404" y1="128.421" y2="127.59" fill="none" stroke="#fff" stroke-miterlimit="10" stroke-width=".743"/><path fill="#f65b2b" d="M401.61,109.46158h39.13679a.63963.63963,0,0,1,.63963.63963v4.8745a.63963.63963,0,0,1-.63963.63963H401.61a0,0,0,0,1,0,0v-6.15375A0,0,0,0,1,401.61,109.46158Z" transform="rotate(-90 421.498 112.538)"/><line x1="418.421" x2="424.575" y1="129.394" y2="129.394" fill="none" stroke="#fff" stroke-miterlimit="10" stroke-width=".743"/><line x1="418.421" x2="424.575" y1="126.422" y2="126.422" fill="none" stroke="#fff" stroke-miterlimit="10" stroke-width=".743"/><line x1="418.421" x2="424.575" y1="99.666" y2="99.666" fill="none" stroke="#fff" stroke-miterlimit="10" stroke-width=".743"/><line x1="418.421" x2="424.575" y1="96.693" y2="96.693" fill="none" stroke="#fff" stroke-miterlimit="10" stroke-width=".743"/><path fill="#ffba55" d="M410.358,109.28321H447.7111a0,0,0,0,1,0,0v8.29419a0,0,0,0,1,0,0H410.358a.63963.63963,0,0,1-.63963-.63963v-7.01493A.63963.63963,0,0,1,410.358,109.28321Z" transform="rotate(90 428.715 113.43)"/><line x1="432.862" x2="424.568" y1="128.124" y2="128.124" fill="none" stroke="#fff" stroke-miterlimit="10" stroke-width=".743"/><rect width="17.748" height="5.351" x="419.841" y="102.773" fill="#fff" transform="rotate(90 428.715 105.448)"/><path fill="#ffba55" d="M387.1734,109.46158h39.13679a.63963.63963,0,0,1,.63963.63963v4.8745a.63963.63963,0,0,1-.63963.63963H387.1734a0,0,0,0,1,0,0v-6.15375A0,0,0,0,1,387.1734,109.46158Z" transform="rotate(-90 407.062 112.538)"/><line x1="410.138" x2="403.985" y1="129.394" y2="129.394" fill="none" stroke="#fff" stroke-miterlimit="10" stroke-width=".743"/><line x1="410.138" x2="403.985" y1="126.422" y2="126.422" fill="none" stroke="#fff" stroke-miterlimit="10" stroke-width=".743"/><line x1="410.138" x2="403.985" y1="99.666" y2="99.666" fill="none" stroke="#fff" stroke-miterlimit="10" stroke-width=".743"/><line x1="410.138" x2="403.985" y1="96.693" y2="96.693" fill="none" stroke="#fff" stroke-miterlimit="10" stroke-width=".743"/><path fill="#f65b2b" d="M381.48833,109.28321h37.35309a0,0,0,0,1,0,0v8.29419a0,0,0,0,1,0,0H381.48833a.63963.63963,0,0,1-.63963-.63963v-7.01493A.63963.63963,0,0,1,381.48833,109.28321Z" transform="rotate(90 399.845 113.43)"/><line x1="395.698" x2="403.992" y1="128.124" y2="128.124" fill="none" stroke="#fff" stroke-miterlimit="10" stroke-width=".743"/><rect width="17.748" height="5.351" x="390.971" y="102.773" fill="#fff" transform="rotate(90 399.845 105.448)"/><path fill="#7ca1b1" d="M395.92317,109.28321h37.35309a0,0,0,0,1,0,0v8.29419a0,0,0,0,1,0,0H395.92317a.63963.63963,0,0,1-.63963-.63963v-7.01493A.63963.63963,0,0,1,395.92317,109.28321Z" transform="rotate(90 414.28 113.43)"/><line x1="410.133" x2="418.427" y1="128.124" y2="128.124" fill="none" stroke="#fff" stroke-miterlimit="10" stroke-width=".743"/><rect width="17.748" height="5.351" x="405.406" y="102.773" fill="#fff" transform="rotate(90 414.28 105.448)"/><line x1="456.37" x2="475.904" y1="120.803" y2="74.939" fill="none" stroke="#935b50" stroke-miterlimit="10" stroke-width="1.486"/><circle cx="463.995" cy="97.73" r="20.078" fill="#c0d6f2"/><path fill="#a6b862" d="M447.47926 86.31617a20.064 20.064 0 00-3.10036 15.696c.0127.00726.02467.01645.03754.02334a2.33557 2.33557 0 002.31015 0 6.038 6.038 0 00.71695-1.59319c.28895-.75552.34971-1.002.63727-1.19488.366-.24562.67349-.11861.87625-.39832.18213-.25129.00719-.45477.07967-.8763a2.40652 2.40652 0 011.03559-1.35417c.68449-.55119 1.03716-.49322 1.15958-.86868.07677-.23558-.00931-.4202-.363-1.2025a12.294 12.294 0 01-.717-1.67286 3.511 3.511 0 01.39826-1.99151 31.02466 31.02466 0 00.71695-3.26606c.80654-3.06077 2.20635-4.23878 1.91183-4.54061C452.81614 82.70451 450.03708 83.82443 447.47926 86.31617zM481.19461 87.36845c-1.38729-1.42768-2.71118-2.21953-3.082-1.9819-.16147.10349-.05574.34669-.31858.95592-.2516.58293-.86439 1.55589-1.59325 1.59319-.32656.01674-.47745-.16455-1.51352-1.03559-1.543-1.29716-1.8081-1.39933-2.07118-1.35423-.67319.11546-1.20879 1.17372-.95592 1.59325.24809.41156 1.14283.02213 1.43391.47793a1.161 1.161 0 01-.478 1.35423 1.85531 1.85531 0 01-1.67287-.07967 3.174 3.174 0 01-1.67287-1.27456c-.42588-.70262-.29663-1.25358-.63727-1.35423-.30861-.09116-.74531.26345-.95592.63728-.36361.64556.07859 1.115-.239 1.59325-.409.616-1.43759.28171-1.59319.71689-.1443.40339.603 1.072 1.19487 1.43391.73291.44806.98209.27584 1.91183.63727 1.39075.54062 1.29741 1.10638 2.54911 1.51352 1.08728.35364 1.44956.02176 1.91189.478.3797.37468.439.96674.55761 2.15079.09424.94069-.01463 1.1655-.07968 1.27456a1.51353 1.51353 0 01-1.59319.63727c-.31761-.08426-.5304-.29512-.95592-.71689-.48778-.48355-.48826-.66822-.79656-.79662-.47442-.1975-.69918.14562-1.11527 0-.55343-.19375-.77432-1.01734-1.03559-1.99151-.26369-.9833-.20656-1.39515-.5576-1.59319-.287-.16195-.46511.03446-1.11526 0a5.00379 5.00379 0 01-1.43385-.39831 12.53579 12.53579 0 00-1.75254-.47793 5.2419 5.2419 0 00-2.54917.31864 5.63938 5.63938 0 00-2.70839 1.59319A4.04617 4.04617 0 00457.08237 96.3a3.6882 3.6882 0 001.19494 2.31008c.92242.80587 1.54047.43114 2.38981 1.19494a3.83265 3.83265 0 011.11521 2.54911c.02261.41378-.01554.98723-1.27455 3.58469-.97944 2.02071-1.23575 2.25-1.35423 3.10677-.13251.9581-.08361 2.63574.79662 3.10671.48742.26079.72548-.11824 2.62879-.31863a11.44445 11.44445 0 012.15079-.07962c1.08.07387 1.21084.26315 1.83222.15929a3.87467 3.87467 0 001.83215-.95591c.78907-.64387.71357-.93452 1.51358-1.5932a7.67362 7.67362 0 011.59313-.95591c1.164-.58958 1.47483-.56238 2.4695-1.11527.86783-.48234 1.53757-.86481 1.51351-1.35423a1.075 1.075 0 00-.71689-.79656c-.5978-.23195-.92508.21635-1.4339 0a1.44331 1.44331 0 01-.71695-1.43391c.04437-.4538.32263-1.03256.63727-1.03559.39856-.0038.37752.92092 1.11527 1.35423a2.12092 2.12092 0 002.07118-.15929c.54207-.33423 1.17487-1.04985 1.03553-1.67286-.10627-.47539-.57876-.52472-.71695-1.11527-.091-.389-.01669-.92653.239-1.03559.48071-.205 1.488 1.15329 1.99151 1.83222a5.53106 5.53106 0 011.35423 2.46943c.13686.96867-.20941 1.61387.239 2.07118a1.225 1.225 0 00.95592.31864 1.2928 1.2928 0 00.47689-.14847 20.08938 20.08938 0 00-.82032-19.21853z"/><path fill="none" stroke="#935b50" stroke-linecap="round" stroke-linejoin="round" stroke-width="2.724" d="M455.32918,120.39614a24.95891,24.95891,0,0,0,19.26464-46.05065"/><path fill="#935b50" d="M482.54552,128.93846H466.71841v-6.107a1.73318,1.73318,0,0,0-1.73325-1.73326c-.95731,0-4.20934.77595-4.20934,1.73326v6.107h-13.351a1.73326,1.73326,0,0,0,0,3.46652h35.12072a1.73326,1.73326,0,0,0,0-3.46652Z"/><rect width="12.54" height="35.576" x="74.94" y="130.816" fill="#ffba55"/><path fill="#fff" d="M479.58532,261.07858h45.37943a0,0,0,0,1,0,0v7.20467a0,0,0,0,1,0,0H479.58532a3.10008,3.10008,0,0,1-3.10008-3.10008v-1.00451a3.10008,3.10008,0,0,1,3.10008-3.10008Z"/><path fill="#f65b2b" d="M526.38391,268.46767a.65277.65277,0,0,1-.65277.65277H478.6323c-1.79829,0-3.26105-1.97512-3.26105-4.4033,0-2.42759,1.46276-4.40271,3.26105-4.40271h47.09884a.65276.65276,0,0,1,.65277.65277v.51382a.65277.65277,0,0,1-.65277.65277H478.6323c-1.05529,0-1.91365,1.159-1.91365,2.58335,0,1.42493.85836,2.58394,1.91365,2.58394h47.09884a.65277.65277,0,0,1,.65277.65277Z"/><path fill="#fff" d="M472.50526,252.27257H517.8847a0,0,0,0,1,0,0v7.20467a0,0,0,0,1,0,0H472.50526a3.10008,3.10008,0,0,1-3.10008-3.10008v-1.00451A3.10008,3.10008,0,0,1,472.50526,252.27257Z"/><path fill="#ffba55" d="M519.30385,259.66166a.65277.65277,0,0,1-.65277.65277H471.55224c-1.79829,0-3.26105-1.97512-3.26105-4.4033,0-2.42759,1.46276-4.40271,3.26105-4.40271h47.09884a.65276.65276,0,0,1,.65277.65277v.51381a.65277.65277,0,0,1-.65277.65278H471.55224c-1.05529,0-1.91365,1.159-1.91365,2.58335,0,1.42492.85836,2.58394,1.91365,2.58394h47.09884a.65276.65276,0,0,1,.65277.65277Z"/><path fill="#fff" d="M486.99785,243.46656h45.37943a0,0,0,0,1,0,0v7.20467a0,0,0,0,1,0,0H486.99785a3.10008,3.10008,0,0,1-3.10008-3.10008v-1.00451a3.10008,3.10008,0,0,1,3.10008-3.10008Z"/><path fill="#f65b2b" d="M533.79644,250.85564a.65277.65277,0,0,1-.65277.65278H486.04483c-1.79829,0-3.26105-1.97512-3.26105-4.40331,0-2.42759,1.46276-4.40271,3.26105-4.40271h47.09884a.65277.65277,0,0,1,.65277.65278v.51381a.65276.65276,0,0,1-.65277.65277H486.04483c-1.05529,0-1.91365,1.159-1.91365,2.58335,0,1.42493.85836,2.584,1.91365,2.584h47.09884a.65276.65276,0,0,1,.65277.65277Z"/><path fill="#fff" d="M277.932,88.506a1.02833,1.02833,0,0,0-.871-.34624H222.42213c-.00856.014-.01487.03674-.023.05207a1.39893,1.39893,0,0,0-.31333-.05207h-1.31372a1.7782,1.7782,0,0,1-.29033-.63477,3.08618,3.08618,0,0,1-.08836-.75018,1.92765,1.92765,0,0,1,.79526-1.55808,4.125,4.125,0,0,1,2.56433-.63477,14.42554,14.42554,0,0,1,2.27309.18485,15.38554,15.38554,0,0,1,2.24874.53107,12.53114,12.53114,0,0,1,2.04587.85388,8.0002,8.0002,0,0,1,1.66717,1.15413,3.46055,3.46055,0,0,0,.87191-.11542,3.10886,3.10886,0,0,0,.79527-.32369,1.75353,1.75353,0,0,0,.568-.51936,1.20792,1.20792,0,0,0,.2155-.7033q0-.43821-.84666-1.13158a10.09163,10.09163,0,0,0-2.32358-1.339,19.89551,19.89551,0,0,0-3.48673-1.10724,19.40067,19.40067,0,0,0-4.35683-.46165,12.76985,12.76985,0,0,0-3.209.35706,7.2828,7.2828,0,0,0-2.27309.981,3.93739,3.93739,0,0,0-1.79341,3.37042,4.94049,4.94049,0,0,0,.101.96928,3.02924,3.02924,0,0,0,.303.87732h-16.688a1.87908,1.87908,0,0,0-.20287.62305,3.98745,3.98745,0,0,0-.07574.69247,1.81343,1.81343,0,0,0,.25336,1.05044,1.00538,1.00538,0,0,0,.88363.358h7.78044v1.15413h-2.75367a5.15063,5.15063,0,0,0-2.9809.78444,2.55966,2.55966,0,0,0-1.13609,2.23883,2.71832,2.71832,0,0,0,.35345,1.40839,3.702,3.702,0,0,0,.90888,1.03872,5.67974,5.67974,0,0,0,1.20011.72674,8.31917,8.31917,0,0,0,1.2506.45083q.50448-.13931,1.09913-.24255a6.6323,6.6323,0,0,1,1.14872-.10369,4.071,4.071,0,0,1,1.55356.2191.70446.70446,0,0,1,.49321.65732q0,1.06305-2.12251,1.06215a7.428,7.428,0,0,1-1.54094-.14967,7.17807,7.17807,0,0,1-1.28758-.39313,7.25637,7.25637,0,0,1-1.06125-.5419q-.48014-.30024-.88453-.57706a2.45609,2.45609,0,0,0-1.02249.63477,1.563,1.563,0,0,0-.44271,1.14241,1.7229,1.7229,0,0,0,.78354,1.47692,5.62676,5.62676,0,0,0,2.09636.83133l1.11175,1.962a4.5788,4.5788,0,0,0,1.36422,1.63922,2.93863,2.93863,0,0,0,1.64192.46165,2.47421,2.47421,0,0,0,1.79341-.63477,2.313,2.313,0,0,0,.7069-1.605q-.656-.32325-1.32544-.73846a15.70317,15.70317,0,0,1-1.32635-.9233,12.52589,12.52589,0,0,0,2.37408-.33452,6.5186,6.5186,0,0,0,1.81865-.72674,3.37261,3.37261,0,0,0,1.16224-1.13158,3.02,3.02,0,0,0,.404-1.59234,2.89672,2.89672,0,0,0-1.2497-2.44711,6.352,6.352,0,0,0-3.77707-.9233,10.0495,10.0495,0,0,0-2.5003.3237,1.11512,1.11512,0,0,1-.34173-.30026.71473.71473,0,0,1-.13886-.43911.7569.7569,0,0,1,.266-.5996,1.56646,1.56646,0,0,1,.99724-.23083h4.11789q1.389,0,1.38946-1.15412V90.88365h3.8555V101.04q0,1.03871.55543,1.34979a3.4943,3.4943,0,0,0,1.66717.312,9.89476,9.89476,0,0,0,1.11175-.06943,4.68536,4.68536,0,0,0,.80879-.138V90.88365H222.919c.009-.01488.01623-.03967.025-.05613a1.42884,1.42884,0,0,0,.33655.05613h9.70007v1.93857q-.6573-.115-1.36421-.18484-.70735-.069-1.31282-.06852a7.471,7.471,0,0,0-4.67331,1.29208,4.65565,4.65565,0,0,0-1.66718,3.924,6.15381,6.15381,0,0,0,.26509,1.76635,6.05678,6.05678,0,0,0,.74478,1.61578,4.234,4.234,0,0,0,1.16224,1.18839,2.647,2.647,0,0,0,1.51569.46165,2.47922,2.47922,0,0,0,1.51569-.41566,2.34338,2.34338,0,0,0,.78265-.94585,7.9694,7.9694,0,0,1-1.23708-1.605,3.66193,3.66193,0,0,1-.50583-1.88087,2.49267,2.49267,0,0,1,.23984-1.15413,2.1015,2.1015,0,0,1,.64469-.75018,2.51549,2.51549,0,0,1,.94674-.40394,5.67381,5.67381,0,0,1,1.17487-.11542,7.03875,7.03875,0,0,1,.89715.05771c.29394.03877.58518.08836.871.14967v5.263a1.44925,1.44925,0,0,0,.55633,1.36242,3.40214,3.40214,0,0,0,1.66717.32279,8.42393,8.42393,0,0,0,1.11085-.08115,5.1748,5.1748,0,0,0,.80879-.14967V90.88365h8.71546v1.15413h-2.9304a4.78314,4.78314,0,0,0-2.842.73846,2.45945,2.45945,0,0,0-1.02248,2.12341,2.79755,2.79755,0,0,0,.35345,1.4084,3.20441,3.20441,0,0,0,.93412,1.03871,3.9244,3.9244,0,0,0-1.0351,1.26954,3.69094,3.69094,0,0,0-.3787,1.70775,4.24787,4.24787,0,0,0,.50493,2.07743,4.55964,4.55964,0,0,0,1.44,1.56979,6.9294,6.9294,0,0,0,2.24785.981,11.8976,11.8976,0,0,0,2.9304.33452,3.59183,3.59183,0,0,0,2.05849-.46166,1.54307,1.54307,0,0,0,.64469-1.339,2.99969,2.99969,0,0,0-.08836-.69248,1.60184,1.60184,0,0,0-.26509-.5996c-.25337.03065-.56444.05409-.935.06942s-.67354.02254-.90977.02254a5.10231,5.10231,0,0,1-2.5508-.50763,1.62,1.62,0,0,1-.85929-1.47692,1.4537,1.4537,0,0,1,.49321-1.11987,2.49173,2.49173,0,0,1,2.84114-.01172,1.63677,1.63677,0,0,1,.40484,1.15413v.18484a.95785.95785,0,0,1-.02524.18484,4.14237,4.14237,0,0,0,1.74291.36878,4.02992,4.02992,0,0,0,.871-.092,2.03213,2.03213,0,0,0,.72043-.30025,1.5397,1.5397,0,0,0,.49231-.56535,1.883,1.883,0,0,0,.18935-.889,2.71723,2.71723,0,0,0-1.4652-2.31908,8.03775,8.03775,0,0,0-4.29372-.935c-.25336,0-.50132.00811-.74567.02254-.24435.01623-.48419.03877-.71953.06943a.82562.82562,0,0,1-.35435-.669.75747.75747,0,0,1,.266-.60051,1.57233,1.57233,0,0,1,.99724-.23083h4.04215q1.389,0,1.38946-1.15412V90.88365h3.20721V101.04q0,1.03871.55542,1.34979a3.49434,3.49434,0,0,0,1.66718.312,9.8949,9.8949,0,0,0,1.11175-.06943,4.68536,4.68536,0,0,0,.80879-.138V90.88365h6.54155a2.61048,2.61048,0,0,1,.39132.79617,2.85949,2.85949,0,0,1,.11361.77362,2.125,2.125,0,0,1-.12623.73846,1.58994,1.58994,0,0,1-.40394.61133,2.00192,2.00192,0,0,1-.7574.42739,3.68129,3.68129,0,0,1-1.16224.1614q-.60593,0-1.09913-.046-.4923-.046-.79526-.09287a2.51066,2.51066,0,0,0-.45534.7042,2.13269,2.13269,0,0,0-.17673.86559,1.76,1.76,0,0,0,.35345,1.11987,1.64034,1.64034,0,0,0,1.16225.5419,10.541,10.541,0,0,0,.98551,2.37768,7.3324,7.3324,0,0,0,1.26323,1.63922,4.49451,4.49451,0,0,0,1.44.94584,4.21313,4.21313,0,0,0,1.56619.30026,2.96488,2.96488,0,0,0,1.18659-.21911,2.50265,2.50265,0,0,0,.834-.56534,2.30476,2.30476,0,0,0,.4923-.79617,2.71855,2.71855,0,0,0,.16411-.935A8.48662,8.48662,0,0,1,267.727,99.793a12.25114,12.25114,0,0,1-1.18748-.63477,8.50605,8.50605,0,0,1-1.12438-.80789,5.7908,5.7908,0,0,1-.935-1.00355,6.54472,6.54472,0,0,0,1.92054-.60051,5.624,5.624,0,0,0,1.81865.7042,9.11261,9.11261,0,0,0,1.86915.21911,8.554,8.554,0,0,0,1.38946-.11542V101.04q0,1.03871.55542,1.34979a3.4943,3.4943,0,0,0,1.66717.312,9.89462,9.89462,0,0,0,1.11175-.06943,4.68516,4.68516,0,0,0,.80879-.138V90.88365h2.27309a2.05366,2.05366,0,0,0,.2146-.60051,3.47641,3.47641,0,0,0,.08836-.7619A1.65088,1.65088,0,0,0,277.932,88.506ZM271.478,94.2766a4.70856,4.70856,0,0,1-.96027.28853,5.62346,5.62346,0,0,1-1.0856.1037,5.80329,5.80329,0,0,1-1.08651-.092,3.76077,3.76077,0,0,0,.27772-1.4084,4.61381,4.61381,0,0,0-.15148-1.17667,6.34981,6.34981,0,0,0-.404-1.10814H271.478Z"/><line x1="56.47" x2="538.368" y1="401.293" y2="401.293" fill="none" stroke="#935b50" stroke-miterlimit="10" stroke-width="1.847"/></svg>