<svg xmlns="http://www.w3.org/2000/svg" data-name="Layer 1" viewBox="0 0 700 550"><path fill="#efedef" d="M427.84136,476.34584c16.25-5.08,30.83-10.27,48.37-20.12,18.09-10.16,98.45-58.51,108.9-142.19a159.61541,159.61541,0,0,0-6.66-68.16c-3.23-9.47-9.93-28.49-26.84-47.3-20.7-23.04-44.32-31.97-58.17-37.02-29.14-10.63-53.58-10.07-65.22-9.69-12.56.41-34.73,1.33-59.93,12.34-16.44,7.18-26.66,15.37-41.72,27.61-23.86,19.41-27,27.49-68.74,67.57-11.46,11-20.88,19.67-35.26,28.21-9.97,5.92-18.03,9.23-32.9,15.27-36.55,14.85-46.95657,17.85676-58.91657,26.21676-23.26,16.27-21.75343,34.01324-22.75343,37.83324a75.12694,75.12694,0,0,0-1.77,29.97c3.05,20.07,13.86,33.19,20.57,41.13a113.09822,113.09822,0,0,0,32.9,26.44,210.24676,210.24676,0,0,0,26.96,11.89Z"/><path fill="#6a8d99" d="M479.43227,462.16l-.49024-.87109c23.90137-13.42676,102.69824-63.75977,113.17871-147.73633a166.32881,166.32881,0,0,0-6.91406-70.77246c-2.97656-8.73145-9.94824-29.17774-27.84766-49.09571-21.92089-24.39062-46.94531-33.51855-60.38964-38.42187a174.06477,174.06477,0,0,0-67.74708-10.06836c-12.4248.40332-35.55078,1.15625-62.24316,12.81055l-.40039-.916c26.86816-11.73145,51.00879-12.5166,62.61035-12.89453a175.05251,175.05251,0,0,1,68.12207,10.1289c13.52637,4.9336,38.7041,14.11719,60.792,38.69336,18.03614,20.06934,25.05372,40.65235,28.05079,49.44141a167.3994,167.3994,0,0,1,6.959,71.21777C582.57387,398.11805,503.43617,448.67664,479.43227,462.16Z"/><path fill="#935b50" d="M511.20779,238.171V476.10584H565V238.171a2.5812,2.5812,0,0,0-2.5812-2.5812H513.789A2.5812,2.5812,0,0,0,511.20779,238.171Z"/><rect width="47.855" height="35.543" x="514.176" y="278.876" fill="#e19974" rx="2.581"/><rect width="47.855" height="35.543" x="514.176" y="239.462" fill="#e19974" rx="2.581"/><path fill="#d6694b" d="M558.99184 270.49378a1.5946 1.5946 0 11-2.2533 2.25317 9.55928 9.55928 0 00.561-.898 2.02868 2.02868 0 01.32531-.469C557.86708 271.13392 558.1808 271.06141 558.99184 270.49378zM556.73854 241.71937a1.5946 1.5946 0 112.2533 2.25317 9.54258 9.54258 0 00-.89808-.561 2.02625 2.02625 0 01-.46887-.32544C557.37892 242.84412 557.30629 242.53016 556.73854 241.71937zM517.216 243.97254a1.5946 1.5946 0 112.25329-2.25317 9.52519 9.52519 0 00-.561.89794 2.02665 2.02665 0 01-.32532.46875C518.34071 243.33216 518.027 243.40467 517.216 243.97254zM519.46925 272.747a1.5946 1.5946 0 11-2.25329-2.25317 9.53867 9.53867 0 00.89807.561 2.03429 2.03429 0 01.46887.3252C518.82887 271.6222 518.9015 271.93592 519.46925 272.747zM558.99184 309.90857a1.59461 1.59461 0 11-2.2533 2.25318 9.52778 9.52778 0 00.561-.89795 2.02657 2.02657 0 01.32531-.46875C557.86708 310.549 558.1808 310.47645 558.99184 309.90857zM556.73854 281.13416a1.5946 1.5946 0 112.2533 2.25317 9.542 9.542 0 00-.89808-.561 2.03367 2.03367 0 01-.46887-.3252C557.37892 282.25892 557.30629 281.9452 556.73854 281.13416zM517.216 283.38733a1.5946 1.5946 0 112.25329-2.25317 9.5565 9.5565 0 00-.561.89795 2.029 2.029 0 01-.32532.469C518.34071 282.7472 518.027 282.81971 517.216 283.38733zM519.46925 312.16175a1.5946 1.5946 0 11-2.25329-2.25318 9.54144 9.54144 0 00.89807.561 2.02625 2.02625 0 01.46887.32544C518.82887 311.037 518.9015 311.351 519.46925 312.16175z"/><rect width="47.855" height="35.543" x="514.176" y="357.706" fill="#e19974" rx="2.581"/><rect width="47.855" height="35.543" x="514.176" y="397.121" fill="#e19974" rx="2.581"/><rect width="14.713" height="5.421" x="530.747" y="252.393" fill="#d6694b" rx="1"/><rect width="14.713" height="5.421" x="530.747" y="370.638" fill="#d6694b" rx="1"/><rect width="14.713" height="5.421" x="530.747" y="410.053" fill="#d6694b" rx="1"/><rect width="14.713" height="5.421" x="530.747" y="291.808" fill="#d6694b" rx="1"/><path fill="#d6694b" d="M558.99184 388.73816a1.59469 1.59469 0 11-2.2533 2.25342 9.591 9.591 0 00.561-.89795 2.02868 2.02868 0 01.32531-.469C557.86708 389.37854 558.1808 389.306 558.99184 388.73816zM556.73854 359.964a1.59461 1.59461 0 112.2533 2.25318 9.54258 9.54258 0 00-.89808-.561 2.02625 2.02625 0 01-.46887-.32544C557.37892 361.08875 557.30629 360.77479 556.73854 359.964zM517.216 362.21717a1.59461 1.59461 0 112.25329-2.25318 9.52632 9.52632 0 00-.561.89795 2.02665 2.02665 0 01-.32532.46875C518.34071 361.57679 518.027 361.6493 517.216 362.21717zM519.46925 390.99158a1.59469 1.59469 0 11-2.25329-2.25342 9.50082 9.50082 0 00.89807.56128 2.019 2.019 0 01.46887.3252C518.82887 389.86683 518.9015 390.18055 519.46925 390.99158zM558.99184 428.1532a1.59461 1.59461 0 11-2.2533 2.25318 9.52909 9.52909 0 00.561-.898 2.02132 2.02132 0 01.32531-.46875C557.86708 428.79358 558.1808 428.72107 558.99184 428.1532zM556.73854 399.37879a1.5946 1.5946 0 112.2533 2.25317 9.53981 9.53981 0 00-.89808-.561 2.03429 2.03429 0 01-.46887-.3252C557.37892 400.50354 557.30629 400.18982 556.73854 399.37879zM517.216 401.632a1.5946 1.5946 0 112.25329-2.25317 9.5565 9.5565 0 00-.561.898 2.029 2.029 0 01-.32532.469C518.34071 400.99183 518.027 401.06434 517.216 401.632zM519.46925 430.40638a1.5946 1.5946 0 11-2.25329-2.25318 9.54144 9.54144 0 00.89807.561 2.02625 2.02625 0 01.46887.32544C518.82887 429.28162 518.9015 429.59534 519.46925 430.40638z"/><path fill="#7ca1b1" d="M526.81429,419.38651s26.2573.53284,30.24631-3.904c0,0-8.59848,30.80679-2.10722,45.92154l-29.20418-3.084S529.16444,434.46093,526.81429,419.38651Z"/><path fill="#f65b2b" d="M520.38492,423.16059s26.2573.53284,30.24632-3.90394c0,0-8.59849,30.80679-2.10722,45.92154l-29.20419-3.084S522.73507,438.235,520.38492,423.16059Z"/><path fill="#fff" d="M523.66931,426.06073s26.25731.53285,30.24632-3.90394c0,0-8.59848,30.80679-2.10722,45.92154l-29.20419-3.084S526.01946,441.13516,523.66931,426.06073Z"/><path fill="#ffba55" d="M526.884,302.98789s26.2573.53284,30.24631-3.904c0,0-8.59848,30.8068-2.10722,45.92154l-29.20418-3.084S529.23415,318.06232,526.884,302.98789Z"/><path fill="#f65b2b" d="M520.45463,306.762s26.2573.53285,30.24631-3.90394c0,0-8.59848,30.80679-2.10721,45.92154l-29.20419-3.084S522.80478,321.8364,520.45463,306.762Z"/><path fill="#fff" d="M523.739,309.66212s26.25731.53284,30.24632-3.904c0,0-8.59848,30.80679-2.10722,45.92154l-29.20419-3.084S526.08917,324.73654,523.739,309.66212Z"/><rect width="47.855" height="35.543" x="514.176" y="436.536" fill="#e19974" rx="2.581"/><rect width="14.713" height="5.421" x="530.747" y="449.468" fill="#d6694b" rx="1"/><path fill="#d6694b" d="M558.99184 467.568a1.59469 1.59469 0 11-2.2533 2.25342 9.55628 9.55628 0 00.561-.8982 2.03185 2.03185 0 01.32531-.46875C557.86708 468.20838 558.1808 468.13587 558.99184 467.568zM556.73854 438.79358a1.59469 1.59469 0 112.2533 2.25342 9.53981 9.53981 0 00-.89808-.561 2.02687 2.02687 0 01-.46887-.32544C557.37892 439.91834 557.30629 439.60462 556.73854 438.79358zM517.216 441.047a1.59469 1.59469 0 112.25329-2.25342 9.59084 9.59084 0 00-.561.89795 2.02886 2.02886 0 01-.32532.469C518.34071 440.40662 518.027 440.47913 517.216 441.047zM519.46925 469.82142A1.59469 1.59469 0 11517.216 467.568a9.53867 9.53867 0 00.89807.561 2.02687 2.02687 0 01.46887.32544C518.82887 468.69666 518.9015 469.01038 519.46925 469.82142z"/><rect width="47.855" height="35.543" x="514.176" y="318.291" fill="#e19974" rx="2.581"/><rect width="14.713" height="5.421" x="530.747" y="331.223" fill="#d6694b" rx="1"/><path fill="#d6694b" d="M558.99184 349.32337a1.59469 1.59469 0 11-2.2533 2.25342 9.55628 9.55628 0 00.561-.8982 2.03229 2.03229 0 01.32531-.46875C557.86708 349.96375 558.1808 349.89124 558.99184 349.32337zM556.73854 320.549a1.59469 1.59469 0 112.2533 2.25341 9.542 9.542 0 00-.89808-.561 2.02687 2.02687 0 01-.46887-.32544C557.37892 321.67371 557.30629 321.36 556.73854 320.549zM517.216 322.80237a1.59468 1.59468 0 112.25329-2.25341 9.58969 9.58969 0 00-.561.89794 2.02886 2.02886 0 01-.32532.469C518.34071 322.162 518.027 322.2345 517.216 322.80237zM519.46925 351.57679a1.59469 1.59469 0 11-2.25329-2.25342 9.53867 9.53867 0 00.89807.561 2.02687 2.02687 0 01.46887.32544C518.82887 350.452 518.9015 350.76575 519.46925 351.57679z"/><rect width="275.923" height="231.871" x="182.944" y="100.671" fill="#904d24" rx="3.423"/><rect width="248.097" height="208.488" x="196.857" y="112.363" fill="#558031" rx="3.078"/><circle cx="523.837" cy="151.707" r="28.034" fill="#ffba55"/><path fill="#d77f4a" d="M523.83656,180.24109a28.53369,28.53369,0,1,1,28.53418-28.53418A28.567,28.567,0,0,1,523.83656,180.24109Zm0-56.06738a27.53369,27.53369,0,1,0,27.53418,27.5332A27.56488,27.56488,0,0,0,523.83656,124.17371Z"/><path fill="#d77f4a" d="M523.83656,154.20691a.49972.49972,0,0,1-.5-.5V135.62977a.5.5,0,0,1,1,0v18.07714A.49971.49971,0,0,1,523.83656,154.20691Z"/><path fill="#d77f4a" d="M539.39027,157.94715a.49852.49852,0,0,1-.22461-.05274l-18.75683-9.40625a.5005.5005,0,1,1,.44922-.89453l18.75683,9.40625a.50015.50015,0,0,1-.22461.94727Z"/><rect width="11.439" height="31.54" x="155.903" y="206.014" fill="#ffba55"/><path fill="#fff" d="M519.78347,228.54259h39.64247a0,0,0,0,1,0,0v6.29384a0,0,0,0,1,0,0H519.78347a2.70816,2.70816,0,0,1-2.70816-2.70816v-.87752a2.70816,2.70816,0,0,1,2.70816-2.70816Z"/><path fill="#f65b2b" d="M560.66568,234.99753a.57025.57025,0,0,1-.57024.57025H518.95093c-1.57095,0-2.84878-1.72542-2.84878-3.84663,0-2.12069,1.27783-3.84611,2.84878-3.84611h41.14451a.57025.57025,0,0,1,.57024.57025v.44885a.57025.57025,0,0,1-.57024.57025H518.95093c-.92188,0-1.67172,1.01249-1.67172,2.25676,0,1.24478.74984,2.25727,1.67172,2.25727h41.14451a.57025.57025,0,0,1,.57024.57025Z"/><path fill="#fff" d="M513.59849,220.84985H553.241a0,0,0,0,1,0,0v6.29384a0,0,0,0,1,0,0H513.59849a2.70816,2.70816,0,0,1-2.70816-2.70816V223.558A2.70816,2.70816,0,0,1,513.59849,220.84985Z"/><path fill="#ffba55" d="M554.4807,227.30479a.57025.57025,0,0,1-.57025.57025H512.766c-1.57095,0-2.84878-1.72542-2.84878-3.84663,0-2.12069,1.27783-3.84611,2.84878-3.84611h41.1445a.57025.57025,0,0,1,.57025.57025v.44886a.57024.57024,0,0,1-.57025.57024H512.766c-.92188,0-1.67172,1.01249-1.67172,2.25676,0,1.24479.74984,2.25728,1.67172,2.25728h41.1445a.57024.57024,0,0,1,.57025.57024Z"/><path fill="#fff" d="M526.25889,213.15711h39.64247a0,0,0,0,1,0,0V219.451a0,0,0,0,1,0,0H526.25889a2.70816,2.70816,0,0,1-2.70816-2.70816v-.87752a2.70816,2.70816,0,0,1,2.70816-2.70816Z"/><path fill="#f65b2b" d="M567.14111 219.61205a.57025.57025 0 01-.57025.57025H525.42635c-1.57094 0-2.84877-1.72542-2.84877-3.84663 0-2.12068 1.27783-3.84611 2.84877-3.84611h41.14451a.57025.57025 0 01.57025.57025v.44886a.57025.57025 0 01-.57025.57025H525.42635c-.92187 0-1.67171 1.01249-1.67171 2.25675 0 1.24479.74984 2.25728 1.67171 2.25728h41.14451a.57025.57025 0 01.57025.57025zM596.27593 432.53187l0 42.38786H589.611l0-42.38787a.69276.69276 0 01.69276-.69276h5.27942A.69276.69276 0 01596.27593 432.53187z"/><rect width="6.665" height=".805" x="589.611" y="471.233" fill="#fff"/><rect width="6.665" height=".805" x="589.611" y="468.014" fill="#fff"/><rect width="6.665" height=".805" x="589.611" y="439.035" fill="#fff"/><rect width="6.665" height=".805" x="589.611" y="435.815" fill="#fff"/><path fill="#ffba55" d="M573.97511,432.53187l0,42.38786h6.66494l0-42.38787a.69276.69276,0,0,0-.69276-.69276h-5.27941A.69276.69276,0,0,0,573.97511,432.53187Z"/><rect width="6.665" height=".805" x="573.975" y="471.233" fill="#fff"/><rect width="6.665" height=".805" x="573.975" y="468.014" fill="#fff"/><rect width="6.665" height=".805" x="573.975" y="439.035" fill="#fff"/><rect width="6.665" height=".805" x="573.975" y="435.815" fill="#fff"/><path fill="#f65b2b" d="M573.98318,474.91973v-40.456a.69276.69276,0,0,0-.69276-.69276h-7.59766a.69276.69276,0,0,0-.69276.69276v40.456Z"/><rect width="8.983" height=".805" x="565" y="469.856" fill="#fff"/><rect width="19.222" height="5.796" x="559.881" y="442.802" fill="#fff" transform="rotate(90 569.492 445.7)"/><path fill="#7ca1b1" d="M565.2439,449.85376h40.456a0,0,0,0,1,0,0v8.98318a0,0,0,0,1,0,0h-40.456a.69276.69276,0,0,1-.69276-.69276v-7.59766a.69276.69276,0,0,1,.69276-.69276Z" transform="rotate(90 585.126 454.345)"/><rect width="8.982" height=".805" x="580.634" y="469.856" fill="#fff"/><rect width="19.222" height="5.796" x="575.514" y="442.802" fill="#fff" transform="rotate(90 585.126 445.7)"/><path fill="#fff" d="M464.52526,467.60373h39.64247a0,0,0,0,1,0,0v6.29384a0,0,0,0,1,0,0H464.52526a2.70816,2.70816,0,0,1-2.70816-2.70816v-.87752A2.70816,2.70816,0,0,1,464.52526,467.60373Z" transform="rotate(180 482.992 470.75)"/><path fill="#f65b2b" d="M460.57735,474.05867a.57025.57025,0,0,0,.57025.57025h41.14451c1.57094,0,2.84877-1.72542,2.84877-3.84663,0-2.12069-1.27783-3.84611-2.84877-3.84611H461.1476a.57025.57025,0,0,0-.57025.57025v.44886a.57024.57024,0,0,0,.57025.57024h41.14451c.92187,0,1.67171,1.01249,1.67171,2.25676,0,1.24479-.74984,2.25727-1.67171,2.25727H461.1476a.57025.57025,0,0,0-.57025.57025Z"/><path fill="#fff" d="M470.71024,459.911H510.3527a0,0,0,0,1,0,0v6.29384a0,0,0,0,1,0,0H470.71024a2.70816,2.70816,0,0,1-2.70816-2.70816v-.87752A2.70816,2.70816,0,0,1,470.71024,459.911Z" transform="rotate(180 489.177 463.058)"/><path fill="#ffba55" d="M466.76233,466.36593a.57025.57025,0,0,0,.57025.57025h41.14451c1.57094,0,2.84877-1.72542,2.84877-3.84663,0-2.12069-1.27783-3.84611-2.84877-3.84611H467.33258a.57025.57025,0,0,0-.57025.57025v.44886a.57025.57025,0,0,0,.57025.57025h41.14451c.92187,0,1.67171,1.01249,1.67171,2.25675,0,1.24479-.74984,2.25728-1.67171,2.25728H467.33258a.57025.57025,0,0,0-.57025.57025Z"/><path fill="#fff" d="M470.71024,452.21826H510.3527a0,0,0,0,1,0,0v6.29384a0,0,0,0,1,0,0H470.71024a2.70816,2.70816,0,0,1-2.70816-2.70816v-.87752A2.70816,2.70816,0,0,1,470.71024,452.21826Z" transform="rotate(180 489.177 455.365)"/><path fill="#f65b2b" d="M466.76233,458.6732a.57024.57024,0,0,0,.57025.57024h41.14451c1.57094,0,2.84877-1.72542,2.84877-3.84662,0-2.12069-1.27783-3.84611-2.84877-3.84611H467.33258a.57025.57025,0,0,0-.57025.57024v.44886a.57025.57025,0,0,0,.57025.57025h41.14451c.92187,0,1.67171,1.01249,1.67171,2.25676,0,1.24478-.74984,2.25727-1.67171,2.25727H467.33258a.57025.57025,0,0,0-.57025.57025Z"/><path fill="#7ca1b1" d="M484.237,426.42522h42.38786a0,0,0,0,1,0,0v6.66494a0,0,0,0,1,0,0H484.237a.69276.69276,0,0,1-.69276-.69276V427.118A.69276.69276,0,0,1,484.237,426.42522Z" transform="rotate(97.76 505.085 429.758)"/><rect width=".804" height="6.665" x="507.147" y="408.337" fill="#fff" transform="rotate(-82.236 507.55 411.669)"/><rect width=".804" height="6.665" x="506.713" y="411.527" fill="#fff" transform="rotate(-82.236 507.115 414.86)"/><polygon fill="#fff" points="506.45 444.42 499.845 443.52 499.955 442.724 506.559 443.623 506.45 444.42"/><polygon fill="#fff" points="506.014 447.61 499.411 446.711 499.52 445.914 506.124 446.813 506.014 447.61"/><path fill="#f65b2b" d="M489.90333,409.16284l0,42.38787h-6.66494l0-42.38786a.69276.69276,0,0,1,.69276-.69276h5.27942A.69276.69276,0,0,1,489.90333,409.16284Z"/><rect width="6.665" height=".805" x="483.238" y="447.864" fill="#fff"/><rect width="6.665" height=".805" x="483.238" y="444.644" fill="#fff"/><rect width="6.665" height=".805" x="483.238" y="415.667" fill="#fff"/><rect width="6.665" height=".805" x="483.238" y="412.446" fill="#fff"/><path fill="#ffba55" d="M489.89527,451.55071v-40.456a.69275.69275,0,0,1,.69276-.69276h7.59765a.69275.69275,0,0,1,.69276.69276v40.456Z"/><rect width="8.983" height=".805" x="489.895" y="446.488" fill="#fff"/><rect width="19.222" height="5.796" x="484.776" y="419.433" fill="#fff" transform="rotate(90 494.387 422.331)"/><path fill="#ffba55" d="M467.60252,409.16284l0,42.38787h6.66494l0-42.38786a.69278.69278,0,0,0-.69277-.69276h-5.27941A.69275.69275,0,0,0,467.60252,409.16284Z"/><rect width="6.665" height=".805" x="467.602" y="447.864" fill="#fff"/><rect width="6.665" height=".805" x="467.602" y="444.644" fill="#fff"/><rect width="6.665" height=".805" x="467.602" y="415.667" fill="#fff"/><rect width="6.665" height=".805" x="467.602" y="412.446" fill="#fff"/><path fill="#7ca1b1" d="M458.8713,426.48474h40.456a0,0,0,0,1,0,0v8.98318a0,0,0,0,1,0,0h-40.456a.69276.69276,0,0,1-.69276-.69276V427.1775A.69276.69276,0,0,1,458.8713,426.48474Z" transform="rotate(90 478.753 430.976)"/><rect width="8.983" height=".805" x="474.261" y="446.488" fill="#fff"/><rect width="19.222" height="5.796" x="469.142" y="419.433" fill="#fff" transform="rotate(90 478.753 422.331)"/><path fill="#935b50" d="M126.8743 458.78093c0 .10335 1.076-.14966 1.06338-.03371 0 0-10.58772 17.35862-11.74976 17.35862a2.93058 2.93058 0 01-.33526-.02583 2.36968 2.36968 0 01-2.0134-2.67163l8.25957-14.66116zM180.8797 458.78093c0 .10335-1.076-.14966-1.06338-.03371 0 0 10.58772 17.35862 11.74976 17.35862a2.93023 2.93023 0 00.33525-.02583 2.36968 2.36968 0 002.01341-2.67163l-8.25957-14.66116z"/><path fill="#d6694b" d="M197.41351,419.76366H110V382.689a2.5812,2.5812,0,0,1,2.5812-2.5812h82.25112a2.58119,2.58119,0,0,1,2.58119,2.5812Z"/><path fill="#d6694b" d="M122.09909,459.41833h-9.51171a2.5812,2.5812,0,0,1-2.5812-2.5812V419.75824H197.4184v37.07889a2.58119,2.58119,0,0,1-2.58119,2.5812H188.281"/><rect width="79.81" height="31.487" x="113.802" y="384.192" fill="#e19974" rx="2.581"/><ellipse cx="153.707" cy="399.936" fill="#935b50" rx="4.395" ry="4.351"/><path fill="#ffba55" d="M156.67635,402.27568s19.246,17.86955,25.176,17.2119c0,0-26.91767,17.27517-32.12953,32.87737l-19.74823-21.73483S148.40005,415.09225,156.67635,402.27568Z"/><path fill="#f65b2b" d="M149.36564,400.81481s19.246,17.86956,25.176,17.2119c0,0-26.91766,17.27518-32.12952,32.87737l-19.74823-21.73483S141.08935,413.63138,149.36564,400.81481Z"/><path fill="#fff" d="M149.88761,405.16517s19.246,17.86955,25.176,17.2119c0,0-26.91766,17.27517-32.12952,32.87737l-19.74823-21.73483S141.61131,417.98174,149.88761,405.16517Z"/><rect width="79.81" height="31.487" x="113.802" y="423.848" fill="#e19974" rx="2.581"/><ellipse cx="153.707" cy="439.592" fill="#935b50" rx="4.395" ry="4.351"/><rect width="1.609" height="53.992" x="150.838" y="315.95" fill="#935b50" transform="rotate(-23.07 151.643 342.946)"/><circle cx="153.963" cy="342.793" r="21.746" fill="#c0d6f2"/><path fill="#a6b862" d="M171.85075 330.43127a21.73078 21.73078 0 013.35791 16.99985c-.01375.00785-.02672.0178-.04066.02527a2.52957 2.52957 0 01-2.502 0 6.53937 6.53937 0 01-.77651-1.72554c-.313-.81828-.37876-1.08521-.69021-1.29414-.39644-.266-.72944-.12845-.949-.4314-.19727-.27217-.00779-.49255-.08629-.94909a2.60644 2.60644 0 00-1.12162-1.46666c-.74135-.597-1.12332-.53419-1.2559-.94085-.08315-.25514.01008-.4551.3931-1.30238a13.31429 13.31429 0 00.77651-1.81184 3.80274 3.80274 0 00-.43134-2.15693 33.60159 33.60159 0 01-.77651-3.53737c-.87354-3.315-2.38963-4.5909-2.07064-4.9178C166.07054 326.5196 169.08046 327.73255 171.85075 330.43127zM135.33468 331.571c1.50254-1.54627 2.9364-2.4039 3.338-2.14653.17487.11209.06036.37549.345 1.03533.2725.63135.9362 1.68514 1.7256 1.72553.35369.01814.51711-.17821 1.63925-1.12161 1.67119-1.40492 1.95829-1.51557 2.24323-1.46673.72911.12506 1.3092 1.27123 1.03532 1.72561-.2687.44574-1.23776.024-1.553.51763a1.25739 1.25739 0 00.51769 1.46672 2.00942 2.00942 0 001.81183-.08629 3.43767 3.43767 0 001.81183-1.38043c.46126-.761.32128-1.35772.69022-1.46673.33424-.09873.80721.28533 1.03532.69022.39382.69918-.08511 1.20758.25881 1.7256.443.66717 1.557.3051 1.72554.77644.15629.4369-.65309 1.161-1.29413 1.553-.7938.48529-1.06368.29875-2.07065.69022-1.50627.58552-1.40518 1.19828-2.76086 1.63924-1.1776.383-1.57.02357-2.07071.5177-.41124.4058-.47547 1.047-.60392 2.32946-.10208 1.01882.01584 1.26231.08629 1.38043a1.63927 1.63927 0 001.72554.69021c.344-.09127.57446-.31964 1.03532-.77644.5283-.52372.52882-.72374.86274-.8628.51383-.2139.75726.15772 1.20791 0 .5994-.20984.83864-1.10185 1.12161-2.15694.28559-1.065.22372-1.51105.60392-1.72554.31087-.1754.50375.03732 1.20791 0a5.41963 5.41963 0 001.553-.4314 13.57663 13.57663 0 011.89812-.51763 5.67736 5.67736 0 012.76093.34511 6.10784 6.10784 0 012.93338 1.72554 4.38227 4.38227 0 011.2942 3.27855 3.9946 3.9946 0 01-1.2942 2.502c-.99905.87282-1.66845.46695-2.58834 1.2942a4.15111 4.15111 0 00-1.20785 2.76087c-.02448.44816.01683 1.06923 1.38044 3.88247 1.06079 2.18857 1.33839 2.4369 1.46672 3.36485.14352 1.03768.09055 2.85469-.8628 3.36478-.52791.28245-.78574-.12806-2.84716-.3451a12.39536 12.39536 0 00-2.32946-.08623c-1.16974.08-1.31142.285-1.98442.17252a4.19659 4.19659 0 01-1.98435-1.03532c-.85462-.69735-.77284-1.01215-1.63931-1.72554a8.31073 8.31073 0 00-1.72547-1.03532c-1.26068-.63856-1.59734-.6091-2.67463-1.20791-.93993-.52241-1.66531-.93666-1.63925-1.46673a1.16435 1.16435 0 01.77644-.86273c.64747-.25122 1.00194.23432 1.553 0a1.56322 1.56322 0 00.77651-1.553c-.04806-.49151-.34943-1.11834-.69022-1.12162-.43166-.00412-.40887.99742-1.20791 1.46673a2.29712 2.29712 0 01-2.24323-.17252c-.58709-.362-1.27246-1.13707-1.12155-1.81184.1151-.51487.62684-.5683.77651-1.2079.09854-.42132.01807-1.00351-.25888-1.12162-.52064-.22208-1.61161 1.24909-2.15694 1.98442a5.9905 5.9905 0 00-1.46672 2.67456c-.14823 1.04914.2268 1.74793-.25882 2.24324a1.32669 1.32669 0 01-1.03532.3451 1.40019 1.40019 0 01-.51652-.1608 21.75832 21.75832 0 01.88847-20.815z"/><path fill="#935b50" d="M152.91762,370.92762a28.5163,28.5163,0,0,1-11.00293-54.82227,1.47468,1.47468,0,1,1,1.13867,2.7207A25.55783,25.55783,0,1,0,162.779,365.9823a1.47469,1.47469,0,0,1,1.13867,2.72071A28.45839,28.45839,0,0,1,152.91762,370.92762Z"/><path fill="#935b50" d="M133.87156,376.59418h17.14185v-6.61433a1.87716,1.87716,0,0,1,1.87724-1.87724c1.03683,0,4.559.84041,4.559,1.87724v6.61433h14.46008a1.87724,1.87724,0,0,1,0,3.75448H133.87156a1.87724,1.87724,0,0,1,0-3.75448Z"/><path fill="#fff" d="M271.68813 147.17078a2.02791 2.02791 0 01-.28614 1.19629 2.956 2.956 0 01-.91015.75391 5.74548 5.74548 0 01-.90918.40332 10.00724 10.00724 0 01-1.19629.33789 12.94478 12.94478 0 01-1.36524.2207 13.12148 13.12148 0 01-1.417.07813 11.81073 11.81073 0 01-3.50976-.50684A7.98493 7.98493 0 01259.2477 148.12a7.27121 7.27121 0 01-1.91114-2.56055 9.39351 9.39351 0 01.06446-7.28027 7.82217 7.82217 0 012.02832-2.63965 8.5067 8.5067 0 012.88574-1.57226 10.89576 10.89576 0 013.34082-.52051 8.16135 8.16135 0 013.91308.793 2.34872 2.34872 0 011.44336 2.06738 2.02451 2.02451 0 01-.33789 1.16992 2.78407 2.78407 0 01-.78027.78027 10.65791 10.65791 0 00-1.625-.76757 6.064 6.064 0 00-2.19727-.377 4.77354 4.77354 0 00-3.4707 1.24805 4.59237 4.59237 0 00-1.28711 3.458 5.51121 5.51121 0 00.35156 2.06738 3.91939 3.91939 0 00.94825 1.42969 3.8562 3.8562 0 001.37793.832 5.01507 5.01507 0 001.66406.27344 4.45275 4.45275 0 001.01465-.1045 2.73234 2.73234 0 00.67578-.23339v-2.44434H264.5641a4.1208 4.1208 0 01-.29883-.75391 3.35468 3.35468 0 01-.14257-.98828 1.81851 1.81851 0 01.42871-1.35156 1.52084 1.52084 0 011.10449-.416h4.39453a1.49117 1.49117 0 011.6377 1.6377zM281.02211 150.161a9.1169 9.1169 0 01-2.84766-.42872 6.44341 6.44341 0 01-2.28711-1.2871 5.9482 5.9482 0 01-1.53418-2.15821 7.64554 7.64554 0 01-.55957-3.042 7.11094 7.11094 0 01.55957-2.95117 5.7158 5.7158 0 013.54883-3.19824 7.76328 7.76328 0 012.3916-.377 7.25138 7.25138 0 012.50977.416 6.03209 6.03209 0 011.94922 1.14453 5.09246 5.09246 0 011.27441 1.74219 5.3426 5.3426 0 01.45508 2.21 1.77386 1.77386 0 01-.49414 1.35156 2.462 2.462 0 01-1.37793.59766l-6.42187.96289a2.1551 2.1551 0 001.16992 1.28613 4.58448 4.58448 0 002.02832.42969 7.23455 7.23455 0 002.01465-.27344 6.36378 6.36378 0 001.54687-.63672 2.19209 2.19209 0 01.70215.72754 1.90878 1.90878 0 01-.80566 2.73047 5.78676 5.78676 0 01-1.87208.59766A13.12521 13.12521 0 01281.02211 150.161zm-.72852-10.21778a2.57864 2.57864 0 00-1.0791.208 2.17135 2.17135 0 00-.74023.5332 2.20917 2.20917 0 00-.42969.72754 3.03055 3.03055 0 00-.16894.81934l4.44628-.72852a1.96546 1.96546 0 00-.57226-1.04A1.91446 1.91446 0 00280.29359 139.94324zM301.69105 143.42664a7.83006 7.83006 0 01-.49414 2.87305 5.82561 5.82561 0 01-1.39062 2.11914 5.89666 5.89666 0 01-2.14453 1.2998 8.28587 8.28587 0 01-2.78223.44239 7.881 7.881 0 01-2.78223-.46778 6.13236 6.13236 0 01-2.14453-1.33887 5.9671 5.9671 0 01-1.3916-2.11914 7.58286 7.58286 0 01-.49414-2.80859 7.50181 7.50181 0 01.49414-2.78125 5.96719 5.96719 0 011.3916-2.11914 6.10442 6.10442 0 012.14453-1.33887 7.859 7.859 0 012.78223-.46875 7.69052 7.69052 0 012.78223.48145 6.29086 6.29086 0 012.14453 1.35156 5.9781 5.9781 0 011.39062 2.11914A7.43186 7.43186 0 01301.69105 143.42664zm-9.0996 0a4.1052 4.1052 0 00.61132 2.43164 1.97975 1.97975 0 001.70215.84473 1.90868 1.90868 0 001.67774-.8584 4.26225 4.26225 0 00.585-2.418 4.12445 4.12445 0 00-.59864-2.4043 2.11133 2.11133 0 00-3.37988 0A4.12473 4.12473 0 00292.59145 143.42664zM310.01137 136.71863a9.02578 9.02578 0 012.6914.377 7.12027 7.12027 0 012.041.97558 3.18829 3.18829 0 01.81934.80567 2.01224 2.01224 0 01.29882 1.14453V149.121a5.09577 5.09577 0 01-.5205 2.3789 4.782 4.782 0 01-1.417 1.66407 6.0306 6.0306 0 01-2.10547.9746 10.32908 10.32908 0 01-2.58691.3125 8.89724 8.89724 0 01-3.71875-.63671 2.144 2.144 0 01-1.35156-2.06739 2.16637 2.16637 0 01.24707-1.05273 2.07986 2.07986 0 01.55859-.68945 8.72478 8.72478 0 001.70313.70214 6.775 6.775 0 001.96289.28614 4.56809 4.56809 0 002.23633-.46778 1.60081 1.60081 0 00.832-1.50781v-.416a6.46592 6.46592 0 01-2.60059.46777 6.97517 6.97517 0 01-2.22266-.35156 4.95724 4.95724 0 01-1.8457-1.0918 5.342 5.342 0 01-1.27441-1.91113 7.29894 7.29894 0 01-.48047-2.78125 6.89785 6.89785 0 01.50683-2.75684 5.24793 5.24793 0 011.4043-1.93652 5.89 5.89 0 012.13184-1.14453A9.187 9.187 0 01310.01137 136.71863zm1.6123 3.77051a2.60945 2.60945 0 00-.5332-.208 3.10745 3.10745 0 00-.87109-.10449 2.42854 2.42854 0 00-1.91114.71582 2.96664 2.96664 0 00-.63672 2.041 3.06622 3.06622 0 00.63672 2.17089 2.1588 2.1588 0 001.625.66309 2.65225 2.65225 0 001.69043-.49414zM323.01234 149.71863a5.908 5.908 0 01-.81933.15625 8.41331 8.41331 0 01-1.15723.07813 6.14309 6.14309 0 01-1.02734-.07813 1.75623 1.75623 0 01-.7666-.31152 1.49522 1.49522 0 01-.48047-.6377 2.742 2.742 0 01-.16992-1.05273v-7.79981a2.21846 2.21846 0 01.22168-1.02734 2.39987 2.39987 0 01.63671-.7666 4.59236 4.59236 0 011.02735-.61133 10.65137 10.65137 0 011.3125-.48047 11.12521 11.12521 0 011.45605-.32519 9.80224 9.80224 0 011.50781-.11719 3.54242 3.54242 0 011.97657.48145 1.74556 1.74556 0 01.72754 1.57226 2.53131 2.53131 0 01-.10352.71484 3.22418 3.22418 0 01-.26074.6377c-.36328 0-.73633.01758-1.11719.05176q-.57274.05272-1.11816.15625-.54639.104-1.02735.2207a4.47261 4.47261 0 00-.81836.27344zM334.08656 136.71863a10.68875 10.68875 0 012.56153.28614 5.75292 5.75292 0 011.97558.87109 3.934 3.934 0 011.26074 1.48242 4.73789 4.73789 0 01.44239 2.11914v5.82324a1.61472 1.61472 0 01-.377 1.10547 3.76732 3.76732 0 01-.89746.74121 9.29388 9.29388 0 01-4.75781 1.01368 10.88683 10.88683 0 01-2.48242-.25977 5.87831 5.87831 0 01-1.89844-.78027 3.57007 3.57007 0 01-1.22168-1.32618 3.92322 3.92322 0 01-.42969-1.87207 3.52177 3.52177 0 011.06641-2.75586 5.758 5.758 0 013.30176-1.19628l3.40625-.36329v-.18261a1.1157 1.1157 0 00-.66309-1.0791 4.47549 4.47549 0 00-1.91113-.32422 8.84423 8.84423 0 00-1.92383.208 10.19708 10.19708 0 00-1.68945.51954 1.79822 1.79822 0 01-.57227-.71485 2.25715 2.25715 0 01-.23437-1.001 1.669 1.669 0 01.32519-1.07911 2.52257 2.52257 0 011.001-.68945 7.88343 7.88343 0 011.78125-.416A15.59348 15.59348 0 01334.08656 136.71863zm.208 10.21875a5.75468 5.75468 0 00.97559-.09179 2.37191 2.37191 0 00.793-.24707v-2.07911l-1.87208.15528a2.89536 2.89536 0 00-1.19628.3125.8405.8405 0 00-.46778.78027 1.03416 1.03416 0 00.40235.84473A2.20532 2.20532 0 00334.29457 146.93738zM348.82973 136.71863a10.016 10.016 0 012.89843.40332 6.18884 6.18884 0 012.30079 1.23535 5.7268 5.7268 0 011.50878 2.09278 7.53744 7.53744 0 01.5459 3.00293 8.26446 8.26446 0 01-.46875 2.91211 5.68829 5.68829 0 01-1.32519 2.09277 5.39821 5.39821 0 01-2.06739 1.26074 8.23138 8.23138 0 01-2.6914.416 6.21857 6.21857 0 01-2.0791-.33789v4.3164a7.35318 7.35318 0 01-.832.16895 7.45917 7.45917 0 01-1.1709.09082 6.1309 6.1309 0 01-1.02637-.07813 1.75539 1.75539 0 01-.76758-.31152 1.418 1.418 0 01-.46777-.63769 2.97343 2.97343 0 01-.15625-1.05274V139.81336a1.99717 1.99717 0 01.2998-1.14453 3.15275 3.15275 0 01.81836-.80567 6.89355 6.89355 0 012.002-.832A10.62259 10.62259 0 01348.82973 136.71863zm.05175 9.93262q2.67774 0 2.67774-3.19824a3.83556 3.83556 0 00-.66309-2.46973 2.33318 2.33318 0 00-1.91113-.80664 3.06948 3.06948 0 00-.88379.11719 3.50931 3.50931 0 00-.67578.27344V146.287a3.7778 3.7778 0 00.67578.25977A2.82722 2.82722 0 00348.88148 146.65125zM370.72133 149.71863a5.8784 5.8784 0 01-.81934.15625 8.39884 8.39884 0 01-1.15625.07813 6.13472 6.13472 0 01-1.02734-.07813 1.75551 1.75551 0 01-.76758-.31152 1.49529 1.49529 0 01-.48047-.6377 2.7437 2.7437 0 01-.16894-1.05273v-5.77148a1.82054 1.82054 0 00-.53321-1.49512 2.02659 2.02659 0 00-1.3125-.42969 3.69942 3.69942 0 00-.98828.12988 2.85836 2.85836 0 00-.7539.3125v9.09961a5.8784 5.8784 0 01-.81934.15625 8.41331 8.41331 0 01-1.15723.07813 6.13078 6.13078 0 01-1.02636-.07813 1.75551 1.75551 0 01-.76758-.31152 1.49522 1.49522 0 01-.48047-.6377 2.74368 2.74368 0 01-.16895-1.05273V132.79285q.28564-.05127.84473-.14258a7.03 7.03 0 011.13086-.09082 6.15788 6.15788 0 011.02734.07715 1.75719 1.75719 0 01.76661.3125 1.5079 1.5079 0 01.48144.63672 2.76934 2.76934 0 01.16895 1.05273v2.54883a9.19025 9.19025 0 011.02636-.2998 6.41151 6.41151 0 011.52149-.169 5.82742 5.82742 0 014.0166 1.28711 4.875 4.875 0 011.44336 3.835zM375.08949 146.52137q-.2871-.6504-.61133-1.45606-.32519-.80567-.67578-1.84668-.35156-1.03857-.72754-2.3789-.37793-1.33887-.79394-3.08106a3.37964 3.37964 0 012.31445-.91015 2.77379 2.77379 0 011.50781.37793 2.31105 2.31105 0 01.88379 1.417l2.05469 7.14941h.10352q.312-.8833.61132-1.92383.29883-1.04.585-2.1455.28564-1.1045.5332-2.21.24609-1.10448.42871-2.17089a4.33452 4.33452 0 012.05371-.49414 2.70931 2.70931 0 011.50781.39062 1.4887 1.4887 0 01.59864 1.35156 8.54665 8.54665 0 01-.18262 1.625q-.18165.92432-.48047 1.96289-.29883 1.04151-.70215 2.14551-.40283 1.106-.84473 2.1709-.44238 1.06641-.91015 2.01465-.46875.94922-.91016 1.70312a18.16371 18.16371 0 01-1.35156 2.08008 7.38673 7.38673 0 01-1.19629 1.26074 3.3985 3.3985 0 01-1.14355.624 4.18191 4.18191 0 01-1.19629.16894 2.44811 2.44811 0 01-1.76856-.64941 2.73837 2.73837 0 01-.80566-1.69043q.832-.6504 1.66406-1.44238a17.59745 17.59745 0 001.50781-1.625 2.45688 2.45688 0 01-.94922-.61133A6.01506 6.01506 0 01375.08949 146.52137z"/><rect width="216.662" height="133.511" x="212.574" y="165.04" fill="#c0d6f2"/><path fill="#a6b862" d="M409.80043 208.163a1.10305 1.10305 0 01-.46582-.09766h0a1.55533 1.55533 0 01-.76563-1.01074 4.89947 4.89947 0 01.49415-3.67285 4.80231 4.80231 0 012.83105-2.16016 1.5186 1.5186 0 011.21387.15821c.91992.64062.542 2.59082.08789 3.66894a5.876 5.876 0 01-2.76074 2.98145A1.75357 1.75357 0 01409.80043 208.163zm2.5625-6.49512a1.73223 1.73223 0 00-.3623.042 4.32008 4.32008 0 00-2.50684 1.92578 4.421 4.421 0 00-.44824 3.26856 1.10282 1.10282 0 00.49609.70605h.001a.95875.95875 0 00.71093-.04589 5.41566 5.41566 0 002.48145-2.709c.42676-1.01367.69434-2.64258.08789-3.06543A.79834.79834 0 00412.36293 201.66785zM265.61347 181.33043a.75045.75045 0 000-1.5.75045.75045 0 000 1.5zM268.82026 181.33043a.75045.75045 0 000-1.5.75045.75045 0 000 1.5z"/><path fill="#a6b862" d="M264.97818 180.7921c2.08041.11105 4.15689.16317 6.2395.0686a28.10142 28.10142 0 003.11274-.22932c.83891-.13368 2.10988.24124 1.22438-.3787-1.44311-1.01032-3.68139-.322-4.8198.70745a.75856.75856 0 00.53033 1.28033 8.88564 8.88564 0 003.38374-.077l-.19938-1.47321c-3.10649.71074-5.91913 1.72363-6.7823 5.04646a.7538.7538 0 001.37081.57792 15.75631 15.75631 0 014.46872-4.22524c.80038-.527.07861-1.79536-.75708-1.29521a10.51472 10.51472 0 00-4.44416 4.19608.75352.75352 0 001.17794.90887l3.96606-1.67919-.53033-1.28033c-1.46253 1.55241-3.6854 1.61267-4.94494 3.37737-1.49944 2.10083-.73536 5.19344-3.51944 6.63445l.90887 1.17793 3.19022-1.4247-.33095-1.25354-1.77419.91333a.75348.75348 0 00.19938 1.47321l2.04758.03177-.53033-1.28033-.45441.4817a.75755.75755 0 00.33095 1.25354l1.634.41463v-1.44642l-1.42765.35446a.75347.75347 0 00.19938 1.47321 19.50652 19.50652 0 004.05488-.36648.75907.75907 0 00.44822-1.10175c-.40715-.8337-.53424-.87247-1.38456-1.22778-.79409-.33182-1.2998.9592-.57792 1.37081a7.76353 7.76353 0 001.91155.86439l-.17916-1.37082-.27615.178a.778.778 0 00-.34467.847l.08087.37846a.76341.76341 0 00.72321.55062 12.35877 12.35877 0 001.60481.04245.75045.75045 0 000-1.5l-1.42946-.00515a.75045.75045 0 000 1.5l1.83516.0252-.37853-1.3976-.83444.3375a.75046.75046 0 000 1.5 32.27729 32.27729 0 015.07065.65376l.19938-1.47321-2.61344-.09592a.75754.75754 0 00-.6476 1.12854l.84914 1.62525.44822-1.10175-1.85407-.135-.39876 1.44642 4.57519.9952c.7806.1698 1.39566-1.007.57792-1.37081l-1.30392-.5801c-.72568-.32285-1.57479.54573-.90887 1.17794l.82736.78546.53033-1.28033a17.58959 17.58959 0 01-3.38593.08252c-.82286-.01962-1.05039 1.34385-.19938 1.47321l1.94207.29521.19938-1.47321-.93563-.11062c-.7775-.09193-.96537 1.04313-.37854 1.3976l.77556.46846.17916-1.37081c-.73052.19771-1.32975-.09055-2.08764.12893a.76793.76793 0 00-.55062.72321c-.02638 1.71379 1.21614 2.56783 2.7528 2.93343v-1.44642l-.47846-.12225-.57792 1.37082 1.26809.48666c.53883.296 1.32514-.20148 1.10174-.847a9.89716 9.89716 0 00-2.1814-3.536c-.537-.65284-1.66243.20868-1.17794.90887.681.98421.07974 2.6225 2.425 3.65643.87517.38582 1.63941-.90622.75708-1.2952l-1.72338-1.80363a.77391.77391 0 00.11727-.90887l-.2808-.40581-1.17793.90887a8.53827 8.53827 0 011.79565 2.87405l1.10174-.847a4.32751 4.32751 0 00-1.6264-.63788.75346.75346 0 00-.57792 1.37081 1.9407 1.9407 0 001.6343.27346c.75117-.10364.67748-1.28523 0-1.44642-2.61583-.62236-.66074-.74491-.11454-.89273a.75888.75888 0 00.17915-1.37082l-.77555-.46846-.37854 1.39761.93563.11062c.83145.0983 1.03505-1.34618.19938-1.47321l-1.94207-.29521-.19938 1.47321a17.58959 17.58959 0 003.38593-.08252.75951.75951 0 00.53033-1.28033l-.82736-.78546-.90887 1.17793 1.30392.5801.57792-1.37082-4.57519-.9952a.75066.75066 0 00-.39876 1.44642 3.94043 3.94043 0 002.65159.135.75741.75741 0 00.44822-1.10175l-.84914-1.62525-.6476 1.12854 2.61344.09592a.75338.75338 0 00.19938-1.47321 34.50875 34.50875 0 00-5.46941-.70734v1.5a1.89551 1.89551 0 001.59151-.54229.7571.7571 0 00-.37854-1.39761l-1.83516-.0252v1.5l1.42946.00515v-1.5q-1.11-.38123-1.031.79866a.76032.76032 0 00-.17916-1.37081l-1.55323-.71318-.57792 1.37082.48811.53844.44823-1.10175a12.1514 12.1514 0 01-3.65612.3129l.19938 1.47321 1.42764-.35446a.756.756 0 000-1.44642l-1.634-.41463.33095 1.25354.45441-.4817a.75893.75893 0 00-.53033-1.28033l-2.04758-.03177.19938 1.47321a3.65171 3.65171 0 002.43609-1.29909.7551.7551 0 00-.331-1.25354c-1.6681-.39362-3.6364.08329-2.799 2.18983a.79733.79733 0 00.72321.55062c1.3262.13236 3.5521-.40377 3.06-2.19834-.76771-2.79966-4.70641.29887-5.63381 1.26835a.75336.75336 0 00.90887 1.17793c1.84717-.95608 2.18871-2.14417 2.92693-3.94445.99521-2.427 1.70021-3.65484 4.00376-4.92231a5.73206 5.73206 0 001.83727-1.3796c.40639-.43137.15341-1.34918-.53033-1.28033a8.231 8.231 0 00-5.02672 2.11853l1.17793.90887a9.15627 9.15627 0 013.906-3.65795l-.75708-1.29521a18.96552 18.96552 0 00-5.00684 4.76337l1.37081.57792c.74967-2.88591 3.34276-3.45156 5.73464-3.9988.8064-.18449.65113-1.57453-.19938-1.47321a8.88564 8.88564 0 01-3.38374.077l.53033 1.28033c2.10522-1.90368 5.84359 1.38338 7.5356-1.54687a.74176.74176 0 000-.75708c-.74749-1.0641-.82-.81355-2.10536-.96313-1.52952-.178-4.307.52739-6.00822.607a62.25049 62.25049 0 01-6.2395-.0686c-.96465-.0515-.96181 1.44865 0 1.5zM242.47705 191.37052a8.28413 8.28413 0 002.88733 1.66074c.918.30547 1.31171-1.14264.39876-1.44642a6.42223 6.42223 0 01-2.22543-1.275c-.7224-.63517-1.78734.42173-1.06066 1.06066zM249.5786 194.49393a12.80438 12.80438 0 014.63852 1.23318c.86618.41577 1.62795-.87718.75708-1.29521a14.824 14.824 0 00-5.3956-1.438c-.96309-.07026-.95863 1.43007 0 1.5zM248.86 188.95388a6.2872 6.2872 0 003.76571 1.03037c.96115-.04481.96662-1.54506 0-1.5a4.89573 4.89573 0 01-3.00863-.82557c-.80906-.53169-1.56137.76666-.75708 1.2952zM254.98307 184.45768a2.87785 2.87785 0 002.933 1.99518c.95375-.08564.96276-1.58645 0-1.5a1.37889 1.37889 0 01-1.48661-.89394c-.30512-.91066-1.75431-.52018-1.44642.39876z"/><path fill="#a6b862" d="M261.35741 182.10116a6.07731 6.07731 0 003.13552 2.09819.75064.75064 0 00.39876-1.44642 4.75633 4.75633 0 01-2.47362-1.71243.75468.75468 0 00-1.06066 0 .7684.7684 0 000 1.06066zM299.12747 195.72175c2.02832 1.09264 4.1993 2.7475 6.61018 2.40245.95179-.13622.547-1.58177-.39876-1.44642-1.79955.25756-3.935-1.43276-5.45434-2.25124-.84984-.4578-1.60816.83674-.75708 1.29521zM321.2456 179.82a8.73936 8.73936 0 014.1871 1.46554c.80786.53347 1.56-.765.75708-1.2952A10.30463 10.30463 0 00321.2456 178.32c-.96255-.07522-.95767 1.42516 0 1.5zM327.666 179.26a14.39587 14.39587 0 013.01214.08c.94406.13115 1.35227-1.314.39876-1.44642a16.19338 16.19338 0 00-3.4109-.13363c-.95728.06859-.96481 1.56913 0 1.5zM348.55261 189.62246c-.433-2.01195 1.07086-2.6147 2.49271-3.44464 1.27468-.744 2.1276-2.51449 3.70992-2.61561.95861-.06125.96551-1.5617 0-1.5a4.176 4.176 0 00-2.58227 1.13329 13.84658 13.84658 0 01-2.93712 2.17993 4.10833 4.10833 0 00-2.12966 4.64579c.203.94323 1.64933.54408 1.44642-.39876zM355.56309 190.46583l.92957.00514c.15491.00086.30987.00056.46478.00257q.07789-.00062.15572.00228.28293.02937-.21918-.27592c-.09741.11933.00384.66388.004.829l.0011 1.09637a.75045.75045 0 001.5 0c-.00053-.53155.0018-1.06318-.0016-1.59472a1.64051 1.64051 0 00-.293-1.1375c-.56907-.65415-1.768-.42291-2.54143-.42719a.75045.75045 0 000 1.5zM256.76764 189.1131a3.807 3.807 0 011.39707.68469.77435.77435 0 001.06066 0 .75465.75465 0 000-1.06066 5.6 5.6 0 00-2.059-1.07045.75064.75064 0 00-.39876 1.44642zM256.03721 192.08234a5.31185 5.31185 0 004.67621 1.4026c.94954-.16259.547-1.60836-.39876-1.44642a3.72011 3.72011 0 01-3.21679-1.01684c-.69684-.66826-1.759.39092-1.06066 1.06066zM262.38887 188.82206a2.30779 2.30779 0 01-.11615 2.30451c-.50591.82522.79094 1.57962 1.29521.75708a3.85 3.85 0 00.11614-3.81867c-.44087-.8591-1.73559-.10109-1.2952.75708zM267.00219 197.79212l.9642.79909c.738.61163 1.8049-.44387 1.06066-1.06066l-.9642-.79909c-.738-.61163-1.80489.44388-1.06066 1.06066zM266.5089 201.12332a7.8252 7.8252 0 004.55645 1.2169c.96161-.04137.96678-1.54159 0-1.5a6.40185 6.40185 0 01-3.79937-1.01211c-.818-.51784-1.57144.77967-.75708 1.29521zM268.09767 233.28731a8.01113 8.01113 0 007.13605 3.03871c.95112-.0967.96109-1.59771 0-1.5a6.6611 6.6611 0 01-6.07539-2.59937c-.59334-.76018-1.64806.30809-1.06066 1.06066zM342.46088 258.56223c.208-1.14722.41355-2.2949.62385-3.4417.16691-.91015.24469-2.06014 1.16308-2.52284.86225-.43442.10369-1.72888-.75708-1.29521a3.28809 3.28809 0 00-1.62009 2.25909c-.39918 1.49584-.58017 3.07918-.85618 4.6019-.17108.94382 1.27424 1.34867 1.44642.39876zM362.67053 237.50093v.32068a.75045.75045 0 001.5 0v-.32068a.75045.75045 0 00-1.5 0zM373.98234 235.56338c.308 2.50371.74162 5.21881 2.83769 6.883.74836.59417 1.81669-.4604 1.06066-1.06066-1.77415-1.4086-2.1369-3.69688-2.39835-5.82235-.11633-.94575-1.61777-.95742-1.5 0zM308.67489 205.23566a4.621 4.621 0 00.12129 2.009.75064.75064 0 001.44642-.39876 2.83257 2.83257 0 01-.12129-1.21148.77685.77685 0 00-.52383-.92259.75467.75467 0 00-.92259.52383zM310.14406 203.74244c3.54928 1.77109 4.54035 6.48086 7.18921 9.11548 1.03671 1.03114 2.38453 1.64828 3.43486 2.7306a8.47651 8.47651 0 003.02078 2.20652c.891.36887 1.2795-1.0818.39876-1.44642-1.6749-.69338-2.50486-2.25074-3.8973-3.286a13.75173 13.75173 0 01-3.60252-3.88373c-1.49183-2.24149-3.31443-5.498-5.78671-6.73168-.86125-.42976-1.62186.86368-.75708 1.2952zM390.79958 214.05931a10.11808 10.11808 0 00.95787 6.04177c.428.86527 1.72221.10616 1.2952-.75708a8.33638 8.33638 0 01-.80665-4.88593c.13225-.94411-1.31285-1.35222-1.44642-.39876zM394.577 224.08616c1.24566-1.38331 2.88-2.05149 4.06878-3.50238 1.0524-1.28438 2.07-2.65146 3.07168-3.98363 2.11531-2.81332 2.38-5.59754 1.64541-8.97214-.20523-.94278-1.65161-.54381-1.44642.39876.9536 4.38062-.623 6.5998-3.18678 9.85029a15.13657 15.13657 0 01-3.05385 3.40113 12.00338 12.00338 0 00-2.15948 1.7473c-.64447.71568.413 1.77985 1.06066 1.06067zM387.56 231.76615l.28231 1.76985a.75522.75522 0 00.92259.52383.76867.76867 0 00.52383-.92259l-.28232-1.76985a.75521.75521 0 00-.92259-.52383.76865.76865 0 00-.52382.92259zM381.65005 242.71468a2.28884 2.28884 0 002.08857-.84395 4.819 4.819 0 012.49195-1.37552c.94468-.19542.54488-1.64163-.39876-1.44642a5.86216 5.86216 0 00-2.05329.83137 6.492 6.492 0 00-.75271.58619c-.186.16772-.68047.85065-.977.80192-.94431-.1552-1.35049 1.29-.39876 1.44641zM379.20719 245.42052c1.35346.66065 2.16675 2.24976 3.21489 3.29171a19.02874 19.02874 0 003.61452 2.7845.75056.75056 0 00.75708-1.29521 17.32524 17.32524 0 01-3.9476-3.21751c-.92015-1.01794-1.61159-2.23868-2.88182-2.8587-.86411-.42179-1.62538.87137-.75707 1.29521zM388.97192 247.56488c.29863-.06715.764.39065 1.01907.52445a1.90948 1.90948 0 001.19687.25576 1.54407 1.54407 0 001.04046-.68936c.23435-.34885.29745-.81675.58763-1.12454.66191-.7021-.3968-1.76483-1.06066-1.06066a3.412 3.412 0 00-.61164 1.02729c-.13989.3101-.13834.42271-.4672.25541-.72134-.367-1.23974-.82894-2.10329-.63477-.94141.21168-.543 1.65818.39876 1.44642zM393.84314 249.61525l1.60035.64887a.75563.75563 0 00.92259-.52383.76755.76755 0 00-.52383-.92259l-1.60035-.64887a.75563.75563 0 00-.92259.52383.76755.76755 0 00.52383.92259zM404.76881 249.62609c2.69052.08844 4.35415 2.81533 6.70024 3.82126.8776.37629 1.64263-.91551.75708-1.2952-2.68135-1.14968-4.32192-3.923-7.45732-4.02606-.96551-.03174-.96437 1.4683 0 1.5z"/><path fill="#a6b862" d="M406.03478 251.73213a5.52827 5.52827 0 011.94089 1.54965.77654.77654 0 001.02615.26906.75418.75418 0 00.26906-1.02614 7.14581 7.14581 0 00-2.479-2.08777c-.86125-.42974-1.62187.8637-.75708 1.2952zM389.32479 238.14427a1.7258 1.7258 0 001.875.763 1.698 1.698 0 001.21454-1.73046c-.05522-.9596-1.55559-.966-1.5 0 .00958.16642-.12919.44962-.29432.21039-.54478-.7893-1.84542-.0401-1.29521.75707zM415.1173 277.92473c2.14918-2.74645 5.70338-5.91977 4.80932-9.75667-.219-.93976-1.66561-.542-1.44641.39876.716 3.07269-2.69333 6.08616-4.42357 8.29725-.5882.75168.46606 1.82051 1.06066 1.06066zM409.48964 274.379a3.05376 3.05376 0 00.69707 1.81612.75487.75487 0 001.06066 0 .768.768 0 000-1.06066 1.32633 1.32633 0 01-.25773-.75546c-.04576-.961-1.546-.96657-1.5 0zM271.546 243.87443c-1.23422 1.07307-.44055 2.06369-2.241 5.3223-1.4677 2.65634-2.59566 3.085-2.44887 4.41829.165 1.49861 1.67583 1.73716 3.60758 3.96844a14.95709 14.95709 0 012.88615 5.41144 12.83471 12.83471 0 01-1.08229 8.65831 15.50648 15.50648 0 00-1.08229 10.10138c.82785 3.20135 2.83274 6.01892 3.60766 5.77223.86658-.27582-.86308-4.04666 1.08229-7.93681a42.06382 42.06382 0 014.32915-4.68994c3.98834-4.07927 4.616-4.59787 5.41144-6.13294.98842-1.90768.73732-2.49323 1.80378-3.60765 1.727-1.8046 3.34041-1.26717 4.32924-2.88608.90059-1.47447-.17436-2.35165.7215-4.32915.94218-2.07968 2.63774-2.22794 2.52536-3.24694-.14973-1.35778-3.30077-2.37262-5.77223-2.52529-2.15781-.13326-2.55945.46722-3.60765 0-2.08979-.93141-1.38534-3.71579-3.24687-6.133C279.84718 242.76441 273.89871 241.82876 271.546 243.87443zM314.036 219.67935c-3.69842.84269-4.17866 1.44835-5.33133 2.54924-1.02658.98051-.49388 1.56655-1.80378 3.24686-1.42367 1.82621-2.41111 1.59346-2.88608 2.88616-.14948.40686-.16155.72908.7215 4.32915a16.90225 16.90225 0 001.20258 3.96836 5.57294 5.57294 0 001.98418 2.58547c.71905.41551 1.41225.45425 5.53173-.0601 2.96844-.37058 3.30493-.47766 4.02847-.2405a6.46532 6.46532 0 013.36715 3.307 9.87409 9.87409 0 011.1424 4.56974c.08465 1.9739-.367 2.4368-.4209 4.08865-.063 1.9328.50653 2.79327 1.74376 6.19312 2.222 6.10611 1.88216 7.446 3.24687 7.99691 1.79065.72289 4.26578-.821 5.53165-2.16457 1.87547-1.99063.97806-3.41568 3.42726-7.51591.96876-1.62193 1.40417-1.89276 1.74368-3.12666.593-2.15544-.25029-3.09224.18039-5.11083.32768-1.53556 1.13041-2.46828 2.64566-4.22893 2.87147-3.33649 5.2233-4.10586 4.97048-5.05065-.30125-1.12592-3.62282.03589-5.93256-2.00424-1.67779-1.482-.84774-2.91-2.64558-6.41364-1.04844-2.04323-2.51305-4.89742-4.97056-5.37132-2.10431-.40581-2.94373 1.31789-6.24964 1.0482a5.726 5.726 0 01-3.37066-1.0482c-1.79514-1.45213-1.11507-3.44863-2.56549-4.249C318.37038 219.33566 317.32745 218.92939 314.036 219.67935z"/><path fill="#a6b862" d="M312.9136 212.488c.04167-1.80044 1.69785-3.14418 2.56541-3.84815a8.84017 8.84017 0 013.04648-1.60341 12.13278 12.13278 0 014.00849-.32066c2.98125.05586 2.97937.4973 3.84815.16033 1.67428-.64941 1.31048-2.14509 3.59844-3.74744 1.25828-.88118 2.173-.99241 2.17379-1.54379.0009-.64321-1.24254-1.35093-2.40515-1.443-1.34171-.10626-2.08613.64631-2.40508.32067-.28511-.29107.14622-1.05913 1.12241-3.36716.89553-2.11744.94357-2.44275.80167-2.56541-.36528-.31569-1.85851.8241-2.56541 1.44308a8.929 8.929 0 00-2.40508 3.04641c-.92211 1.99193-.32392 2.86218-1.12241 3.52749-1.28062 1.067-4.50408.23242-4.97048-1.28275-.23928-.77728.7458-1.97186 2.72574-4.32915a25.4387 25.4387 0 013.68782-3.84815c1.87816-1.52773 2.81732-2.29156 4.32915-2.56541 1.47236-.26668 2.6384.08946 4.97057.80166 1.34366.41038 2.71489.8413 2.72574 1.44308.01492.82515-2.54225 1.17453-2.56541 2.24474-.01028.47562.49193.53067.962 1.44308.61751 1.19866.214 2.0031.64133 2.24474.51231.28976 1.42513-.67819 3.04649-1.92407a18.13507 18.13507 0 014.00848-2.56541 13.245 13.245 0 015.1309-.96208c1.95156.08057 3.12233.653 3.68774 0 .58963-.681-.1848-1.87939.32075-2.24474.60357-.43623 2.28291.85573 3.0464 1.44308 1.9501 1.50016 2.071 2.29065 3.04649 2.40507 1.4439.1693 3.15536-1.33086 3.04641-2.40507-.09982-.9841-1.68823-1.22256-1.60341-1.92408.08212-.67942 1.68317-1.37555 2.88615-.96208.93933.32287.92245 1.07707 1.92408 1.44308 1.16368.42521 2.53744-.09925 2.56541-.481.02658-.36242-1.17665-.36829-2.08441-1.44308-.62763-.74311-.95-1.80321-.64133-2.08441.35875-.32686 1.20665.72949 2.56541.64133.51957-.03376.81862-.2157 2.5654-1.443 2.61377-1.83657 2.70479-1.96363 3.20683-2.08441 1.54746-.37237 2.02609.51166 3.20673 0 1.43158-.62046 1.48345-2.2476 2.40516-2.24474.75877.00236.842 1.10544 2.08441 1.60332 1.19557.47913 2.33657-.05423 2.40508.16034.108.3386-2.961.95678-3.36716 2.72582a1.845 1.845 0 00.64133 1.92408c1.03458.56817 2.19533-1.433 4.32924-1.28275 1.17852.08294 1.13627.71522 2.88607 1.12241 1.67428.38958 2.01289-.11947 3.52749.16034 2.15161.39748 2.20078 1.56 4.00848 1.92407 1.80077.36267 2.251-.69051 4.97049-1.12241a15.45433 15.45433 0 016.09289.481c3.27867.70339 3.13245 1.37172 6.0929 1.92408a25.19078 25.19078 0 006.25323.32074c2.96485-.26635 3.79318-.95824 4.6499-.32074 1.3647 1.01557 1.15633 4.18048-.16034 6.25322-1.25485 1.97538-3.80672 3.416-5.77223 2.88616-1.18056-.31822-1.30892-1.12078-3.36715-1.92408-1.20217-.46917-2.05448-.80182-2.88607-.481-1.48166.57161-1.02415 2.49471-2.40508 3.20674-1.438.7414-2.54641-1.02821-5.45156-.80166a7.989 7.989 0 00-3.36716 1.12233c-.53091.29253-3.12209 1.72011-2.88607 2.88616.18651.92138 1.925.62616 2.88607 2.08441a4.08233 4.08233 0 01.32067 3.20682 5.58431 5.58431 0 01-3.36708 3.36707c-1.18561.43345-1.568.07911-2.24482.64141-.98377.81741-.55823 1.884-1.60333 2.72574a3.36989 3.36989 0 01-2.08441.64134c-1.49233.01239-1.89472-.89048-2.88615-.64134a2.28213 2.28213 0 00-1.60341 1.92408c-.0597.96347.81112 1.22737 1.60341 2.72574.28527.53956 1.25134 2.3665.64141 4.00849-.44324 1.19328-1.52528 1.76774-2.72582 2.40507a8.58324 8.58324 0 01-4.32915 1.12241c-1.27247-.03792-1.91079-.3877-2.24475 0-.458.53173.192 1.82883.64134 2.72575.97365 1.94332 1.78209 2.19165 1.76374 3.20682a2.4006 2.4006 0 01-1.76374 2.24474c-.75078.10129-1.41935-.57242-2.72575-1.92408-.64753-.66987-1.05578-1.17126-2.5654-3.0464-1.45393-1.806-1.80281-2.24483-2.56549-2.72583a3.91891 3.91891 0 00-2.40508-.80166c-.40393.0296-.88656.15389-2.56541 1.44308-1.80631 1.387-2.70943 2.08065-3.04649 2.88607-.41347.988-.02063 1.219-.481 3.04649-.21588.85687-.59877 2.37686-1.12242 2.40507-.80394.04331-1.56989-3.37522-1.60333-3.52748-.64418-2.93175-.00628-4.15651-.96207-4.97057-.94039-.80093-2.02056-.0093-3.04641-.962-.89309-.82939-.34318-1.679-1.12241-2.40507-1.15561-1.07674-2.7759.40858-5.13082-.481-1.33217-.50326-1.17828-1.11629-3.04649-1.92408-.6883-.29758-2.63579-1.13962-3.20682-.48108-.48051.55407.139 2.02561.96208 2.88616a5.55762 5.55762 0 003.68782 1.44308c1.271.0473 1.81822-.32736 2.08441 0 .4757.58514-.75118 2.42293-1.76374 3.5274-1.02178 1.11459-2.522 2.75111-4.81016 2.72583a5.57308 5.57308 0 01-3.52748-1.44308 10.35178 10.35178 0 01-2.72583-4.48949c-1.05292-3.74564.67722-6.81-.962-8.1773-1.14166-.95229-2.71335-.07666-3.36716-1.12241a2.50926 2.50926 0 01.80175-3.04641c1.61736-1.04714 4.05986 1.334 4.97048.481.70984-.6649.0703-2.90271-1.28274-4.16882-1.43411-1.342-3.78772-1.70258-5.13082-.80175-.666.44667-.49258.80713-1.60341 2.24475-1.06932 1.38387-1.7648 2.284-2.72574 2.40515-1.16466.14688-1.40834-1.01558-3.52749-1.92407a8.81973 8.81973 0 00-4.32915-.64142 10.56556 10.56556 0 00-3.52749 1.12241 13.33069 13.33069 0 00-2.72574 1.60341c-1.76554 1.36373-1.92416 2.26611-2.72582 2.24475-1.13032-.0301-2.33453-1.86438-1.92408-2.72583.4788-1.00481 2.9474-.25175 3.52749-1.443C313.33612 213.71324 312.89166 213.43637 312.9136 212.488zM393.404 270.04988c1.23341.19458 1.54527-1.39227 4.48949-2.40516a7.44953 7.44953 0 014.6499-.32067 7.1677 7.1677 0 012.72574 1.60341c1.52593 1.35582 1.29571 2.16311 2.40507 2.88608a4.62955 4.62955 0 004.6499 0c2.49242-1.47252 2.2763-4.94423 2.24474-5.45148a8.41673 8.41673 0 00-2.24474-5.1309 13.94938 13.94938 0 01-2.40516-3.04641c-.18129-.34407-.30141-.62722-.30141-.62722-.55644-1.31186-.51436-2.25135-.66058-2.25893-.26138-.01354-.0557 3.00538-1.28275 3.52748-.77418.32939-1.86935-.4412-2.40507-.96208-1.52365-1.4814-.93-3.284-1.92408-3.68773-.63407-.25755-1.07323.39544-3.84815 2.0844-2.42082 1.47342-2.74262 1.3758-3.52741 2.24475-1.05652 1.16987-.95963 1.8855-1.92407 2.40507-1.31757.70984-2.28177-.20372-3.04649.32067C389.241 262.43675 390.86059 269.64864 393.404 270.04988zM280.04405 181.70277c1.90825-2.05309 4.108-.60374 6.73422-2.72574 1.5239-1.23129 1.4187-2.23275 2.88608-2.72574a4.72546 4.72546 0 014.00848.64133c1.23822.842 1.13253 1.68978 2.40516 3.68782 1.74205 2.735 2.666 2.28617 3.84815 4.48948.212.39521 2.08025 3.97546.64133 6.0929-.657.96673-1.32808.635-3.36715 2.08441a8.15321 8.15321 0 00-3.04641 3.04649c-1.16922 2.60471 1.06745 4.7551 0 5.93256-1.04518 1.15291-4.18978.19418-6.09289-1.12241-.71441-.49421-3.028-2.09485-3.04649-4.32915-.0208-2.518 2.89374-3.34139 2.56541-5.29123-.236-1.40165-1.965-2.29963-4.32915-3.52741-2.63922-1.37066-3.84979-1.273-4.32916-2.40516C278.41315 184.35006 279.12111 182.69576 280.04405 181.70277zM220.07709 198.21779c-.112 1.13791 1.23675 1.7056.962 2.72575-.33355 1.23862-2.50156 1.06932-2.72574 2.08441-.22607 1.0234 1.62828 2.77711 3.68782 3.04648 1.804.23594 2.373-.849 4.97048-1.60341a12.36608 12.36608 0 017.21531 0c2.343.79351 3.77059 2.26995 5.45156 4.00849a13.46363 13.46363 0 013.04641 4.16882 16.27961 16.27961 0 011.12241 5.29123c.3139 3.20209-.20853 3.37066.32066 4.48948.91968 1.94447 2.52814 1.49976 5.13082 4.00849a20.92826 20.92826 0 013.04649 4.00849c1.86992 2.8634 1.62682 3.36071 2.72574 4.32915 1.47024 1.29571 2.47488.90744 5.6119 1.92407 4.3979 1.4253 6.38241 3.47138 6.73422 3.04641.36283-.43826-1.2829-3.1764-4.00848-4.64982-2.22884-1.20486-3.64582-.73487-4.32915-1.92407-.7825-1.36177.14712-3.59412 1.44307-4.81015a6.16786 6.16786 0 017.69631-.16034c1.56394 1.32434 1.72623 3.44357 2.08441 3.36708.4284-.09151-.42408-2.99087.481-5.77223a9.69587 9.69587 0 014.16882-4.97049c2.7166-.54094 3.495-1.39056 3.68782-2.08441.36168-1.30158-1.25934-2.33494-.80167-3.84815a3.26062 3.26062 0 012.24475-1.92408c2.39561-.67509 4.53849 1.60513 4.97048 1.12242.39162-.4377-1.6229-2.02928-3.36716-5.6119-.68953-1.41625-1.15576-2.77182-1.76366-2.72582-.6755.05105-.72908 1.77238-1.60341 1.92407-.35834.06223-.69646-.16677-2.24474-1.76366-1.64549-1.69711-1.90043-2.09534-2.40516-2.08441-.8417.01827-1.68194 1.15936-1.924 2.24474-.417 1.86968 1.11556 2.7896.64133 4.16882a3.53027 3.53027 0 01-3.68782 1.92408c-1.96795-.35834-1.8077-2.68635-4.48949-4.16882-1.95612-1.08131-3.42929-.60985-3.68782-1.44308-.26455-.8528 1.20144-1.59566 3.20683-4.16882 1.522-1.953 2.52683-3.24229 2.24474-4.6499-.33845-1.689-2.4912-3.35777-3.84816-2.72574-1.02373.47684.06672 2.50237-1.12241 3.68782-.81854.816-1.86568.42294-7.6963 0a17.85257 17.85257 0 01-3.20674-.32066c-2.53817-.62918-2.66352-1.62062-4.81024-2.24474a10.51171 10.51171 0 00-6.25322.32066c-1.958.73243-1.96893 1.48076-3.36708 1.60341-1.68757.1481-2.22606-.89349-4.97056-1.92407a15.96109 15.96109 0 00-6.25324-1.25924C222.08989 195.0954 220.23228 196.64105 220.07709 198.21779z"/><path fill="#d87e6a" d="M402.458,263.39584l-6.78259-5.22337a6.57606,6.57606,0,0,0-3.32757-1.33091c-2.1201-.22279-5.53023-.68623-7.02232-1.46952-1.44778-.76-2.17854-.10007-1.439,1.35827.4353.85836,1.96763,1.98937,5.98088,3.32712l-3.49211.89367a3.85523,3.85523,0,0,1-3.05823-.50338l-3.84479-2.50144a1.17639,1.17639,0,0,0-1.53132.21653l-.00023.00026a1.17641,1.17641,0,0,0,.21748,1.7349l6.94,4.83324s-.66768,5.723,4.67378,6.963,12.686-.95383,12.686-.95383Z"/><polygon fill="#6c7fd8" points="381.396 282.713 404.469 281.249 380.722 247.604 358.168 249.138 381.396 282.713"/><path fill="#d87e6a" d="M404.57247,271.11274l-12.00428-10.5336s-6.46339-1.98554-10.18485-3.52417a5.27282,5.27282,0,0,0-6.01126,1.55238c-1.39218,1.667-1.34246,3.34966,2.52968,6,5.79134,3.96389,8.74317,5.42486,10.48757,5.94911.60433.18162,3.981,1.51748,3.981,1.51748Z"/><path fill="#ba6558" d="M389.08852 262.34485a23.15238 23.15238 0 01-5.14978-1.842 15.4866 15.4866 0 01-4.50721-3.1084c.802.44776 1.61255.83765 2.413 1.24756l2.4237 1.18775C385.882 260.63172 387.50807 261.41 389.08852 262.34485zM387.54933 264.55677a21.80731 21.80731 0 01-5.70862-1.83325 16.201 16.201 0 01-2.60644-1.531 6.72107 6.72107 0 01-2.07-2.19873 11.19171 11.19171 0 002.38989 1.7085c.84986.47949 1.71778.93237 2.60975 1.345C383.93422 262.902 385.749 263.67151 387.54933 264.55677zM385.62453 266.2699a16.71078 16.71078 0 01-4.79724-1.46191 13.16579 13.16579 0 01-4.11915-2.86817c1.4961.77027 2.9441 1.49756 4.43726 2.18946C382.63051 264.83191 384.13075 265.495 385.62453 266.2699z"/><path fill="#d87e6a" d="M378.87153,210.31983l-7.6825-3.7771a6.576,6.576,0,0,1-2.66408-2.39721c-1.13652-1.80355-3.05886-4.65809-4.42077-5.65061-1.32146-.963-1.05224-1.9102.58279-1.891.96236.01129,2.654.88629,5.62714,3.89563l-.74108-3.52765a3.85526,3.85526,0,0,0-1.8027-2.5212l-3.94269-2.34408a1.17639,1.17639,0,0,1-.48229-1.46943l.00014-.00032a1.17639,1.17639,0,0,1,1.65248-.57137l7.40206,4.0907s4.8392-3.12738,8.31145,1.1167,4.74891,11.80217,4.74891,11.80217Z"/><path fill="#ba6558" d="M375.20314 196.17811a4.09957 4.09957 0 01-1.595-.751 4.803 4.803 0 01-1.20813-1.271 3.13582 3.13582 0 011.65356.66822A3.58849 3.58849 0 01375.20314 196.17811zM376.91457 195.33533a5.22484 5.22484 0 01-1.433-.95532c-.19848-.189-.39795-.3667-.58362-.56348a6.18846 6.18846 0 00-.61535-.5874 1.3238 1.3238 0 01.93786.09888 2.88033 2.88033 0 01.76075.49316A2.95816 2.95816 0 01376.91457 195.33533zM379.00526 195.26258a5.42362 5.42362 0 01-.66894-1.06494 3.33012 3.33012 0 00-.62134-.95777.84708.84708 0 01.766.05469 1.35687 1.35687 0 01.52295.56226A1.50555 1.50555 0 01379.00526 195.26258z"/><path fill="#d87e6a" d="M434.51379,155.75167a18.1195,18.1195,0,0,0-8.4192,1.1279c-1.25364.513-5.83875,2.38909-7.90137,6.91332-.78342,1.71821-.88227,3.74492-1.08046,7.79838-.12377,2.53185-1.00829,4.38316-.86018,7.4569a25.998,25.998,0,0,0,1.563,7.277c1.30753,3.66193.68044,5.80776,1.27722,6.47546,2.4051,2.691,9.19641.1656,9.47424,3.81356.17155,2.25252-1.53012,2.75474-1.25816,5.38726.35258,3.4128,11.27775,1.02491,14.455-.84086.43311-.25434,4.3473-3.09257,3.71694-7.06091-.33681-2.12-2.62322-12.03355-2.51106-13.33206.40581-4.69337,2.72861-5.37419,4.31232-11.09971a8.77832,8.77832,0,0,0-1.85248-8.38473A17.93092,17.93092,0,0,0,434.51379,155.75167Z"/><ellipse cx="418.271" cy="175.5" fill="#0a0709" rx=".948" ry="1.179" transform="rotate(-2.731 418.27 175.5)"/><ellipse cx="426.809" cy="175.093" fill="#0a0709" rx=".948" ry="1.179" transform="rotate(-2.731 426.807 175.092)"/><path fill="#1e1d22" d="M416.24574 173.48328a.59861.59861 0 01-.38281-1.05859 6.35264 6.35264 0 017.08594-.36231.59828.59828 0 01-.60352 1.03321 5.10772 5.10772 0 00-5.7168.249A.59614.59614 0 01416.24574 173.48328zM425.09535 173.05945a.59759.59759 0 01-.38379-1.05664 6.35222 6.35222 0 017.085-.3623.59827.59827 0 11-.60351 1.0332 5.06524 5.06524 0 00-5.71778.25A.59447.59447 0 01425.09535 173.05945z"/><path fill="#ba6558" d="M423.49928 173.38172a4.47176 4.47176 0 01.03369 3.03638 9.7601 9.7601 0 01-1.31775 2.77124l-.46752.58642a.62105.62105 0 00-.17835.44653 1.5407 1.5407 0 00.6001 1.00684 3.80135 3.80135 0 002.69922.59107 3.33426 3.33426 0 01-3.04834-.12134 2.04247 2.04247 0 01-.96-1.43506 1.3261 1.3261 0 01.301-.92774l.4502-.59106a13.79336 13.79336 0 001.37732-2.53638A5.71891 5.71891 0 00423.49928 173.38172zM439.03383 173.03992a1.68447 1.68447 0 011.1228.00562 2.7555 2.7555 0 01.976.5686 3.22828 3.22828 0 01.67969.87476 2.77963 2.77963 0 01.31616 1.05346c-.58557-.47168-1.01819-.9497-1.49609-1.37011a8.632 8.632 0 00-.73084-.60254A5.71985 5.71985 0 00439.03383 173.03992z"/><path fill="#ba6558" d="M440.03725,177.91346a2.85726,2.85726,0,0,1-.65039-2.25367,3.07975,3.07975,0,0,1,.36706-1.15087,2.52232,2.52232,0,0,1,.79517-.88916,18.70175,18.70175,0,0,0-.41761,2.126A17.93486,17.93486,0,0,0,440.03725,177.91346Z"/><path fill="#1e1d22" d="M437.29788,179.76179a9.23271,9.23271,0,0,1,.42917-3.95066c.59354-1.75516,1.31062-4.14226,2.98844-4.37892,1.23624-.17437,1.71946-.526,2.22374.6511.83343,1.94731-.346,4.19561-1.167,5.76157-1.17564,2.24072-2.23947,2.76841-2.18729,4.2774.03967,1.15114,3.43523,3.32911,4.03627,2.85013,1.22521-.97638.39955-3.68789,3.55018-10.38484,1.98977-4.22885,2.95818-5.05054,3.08851-7.6374.04622-.9185.23762-4.72109-2.14529-6.81369-1.10531-.97062-1.6913-.63089-6.37831-2.35718a37.93713,37.93713,0,0,1-3.81823-1.54412c-3.75483-1.82443-3.72244-2.85655-5.89287-3.36313-1.96073-.45754-2.036.37387-5.74035.33135-3.57148-.04089-3.92519-.81874-5.54919-.27067-2.81965.95145-4.04691,4.07005-4.37644,4.908a9.84916,9.84916,0,0,0-.88367,4.65031,8.88539,8.88539,0,0,0,1.95043,4.39153c.48689.45084,2.23986-2.36541,3.217-3.44.95821-1.05288,2.12082-.69594,3.683-.6734,1.52313.022,1.48517.97177,3.771,1.695.81443.25765,3.95293-1.33206,5.07271.39344,1.19311,1.83849,2.06158,2.02672,1.62771,3.8111-.2711,1.1148-.00645,2.4559.52279,5.13827.37962,1.925-.86591,8.77141-.86591,8.77141C433.93037,183.79307,437.61857,182.7347,437.29788,179.76179Z"/><path fill="#0a0709" d="M427.03286,185.88765s-3.56333,3.65615-7.06408.337"/><path fill="#d87e6a" d="M444.93169,446.12407s3.33816,24.66783,1.542,25.4651-47.1804,4.29421-39.00284-.03318l13.59706-6.30648a13.63865,13.63865,0,0,0,7.89955-12.49247l-.06841-7.78387Z"/><path fill="#8b9d36" d="M456.794,285.38385l.39842,3.68912a56.755,56.755,0,0,1-5.16757,30.45807h0v16.59667l-2.68076,109.60114a3.57687,3.57687,0,0,1-3.5758,3.48941h-18.806a3.57686,3.57686,0,0,1-3.55447-3.1772l-7.49136-66.62476a209.38363,209.38363,0,0,1-1.18066-30.78849l2.23429-63.244Z"/><path fill="#f73c4f" d="M387.202,203.37524c8.91,4.75785,21.13734,20.2003,21.13734,20.2003l15.42573-14.814,3.46012-8.65031,13.86747-3.782a5.05817,5.05817,0,0,0,3.70752-5.60316q-.0116-.07593-.02447-.15316l7.66647,12.74876c6.05835,10.07455,7.89591,21.69336,7.02253,33.41676L456.794,285.38385s-43.49473,5.34144-41.58708,0l.34664-8.58588-4.73425-.57092-7.63758-1.55578a3,3,0,0,1-2.38543-3.24683l.78958-7.67021a3,3,0,0,1,2.87716-2.69089l8.07317-.28832,4.00607-3.243.42783-13.555-2.36644.40611a19.56379,19.56379,0,0,1-17.59253-6.80463l-18.08735-24.22184a2.97113,2.97113,0,0,1-.431-2.79023,13.563,13.563,0,0,1,5.81286-7.1094A2.95869,2.95869,0,0,1,387.202,203.37524Z"/><path fill="#b02336" d="M449.05824 197.69446c-1.48413.95777-2.97876 1.89575-4.50207 2.781-1.5166.89746-3.03357 1.79443-4.57263 2.65015-3.07483 1.718-6.17481 3.38964-9.31568 4.98535l-.42517.21606-.16064-.42114-1.47876-3.87573c-.24829-.64527-.46741-1.303-.70252-1.95386-.23425-.65112-.4624-1.30493-.67554-1.96509.32727.61182.63965 1.22974.94581 1.85034.30542.62085.627 1.23511.91906 1.86157l1.76428 3.75464-.58557-.20507c3.05579-1.75318 6.15247-3.43091 9.2743-5.062 1.5592-.8186 3.14062-1.59619 4.72229-2.37329C445.84047 199.14808 447.44411 198.4115 449.05824 197.69446zM416.54225 257.53187a33.32637 33.32637 0 014.55408-1.57349q2.32086-.65368 4.66919-1.20654 4.69373-1.11145 9.4342-2.012l-.17908.22144-.83349-19.17822a65.52378 65.52378 0 01.11951-9.64136 25.47339 25.47339 0 012.47583-9.37891 11.33647 11.33647 0 013.12731-3.83447 9.40065 9.40065 0 014.63367-1.821 11.03294 11.03294 0 019.08667 3.3357 11.95876 11.95876 0 012.61475 4.21118 36.72581 36.72581 0 011.43139 4.64136 60.54879 60.54879 0 011.44544 9.55639 108.96686 108.96686 0 01-.41907 19.24634c-.31091 3.1936-.74792 6.37232-1.25061 9.53882a11.55847 11.55847 0 01-4.788 8.32031 10.76191 10.76191 0 01-2.162 1.19458l-2.24377.87793c-1.4983.56909-3.00281 1.12183-4.51844 1.64307-3.02929 1.04639-6.08752 2.01587-9.19189 2.81787a83.95158 83.95158 0 01-9.41455 1.93164 42.25081 42.25081 0 01-9.57984.37549 42.15412 42.15412 0 009.54724-.59058 83.57517 83.57517 0 009.33277-2.136q4.60254-1.32385 9.111-2.95044c1.50293-.53833 2.99463-1.10816 4.47961-1.69385a18.01542 18.01542 0 004.22815-2.04566 10.77781 10.77781 0 004.37964-7.873c.469-3.157.90369-6.31983 1.19532-9.49634a108.074 108.074 0 00.33691-19.084 59.93407 59.93407 0 00-1.4585-9.39576 35.72272 35.72272 0 00-1.37536-4.52881 10.97834 10.97834 0 00-2.38965-3.89428 10.0925 10.0925 0 00-8.297-3.08887 8.4879 8.4879 0 00-4.19287 1.62524 10.46038 10.46038 0 00-2.89307 3.53028 25.01987 25.01987 0 00-2.42834 9.05127 64.78384 64.78384 0 00-.23694 9.53222l.56177 19.18628.00549.19043-.18494.03125q-4.74572.79761-9.46142 1.79615-2.35529.50244-4.68848 1.09961A33.27019 33.27019 0 00416.54225 257.53187zM423.765 208.7616c-.4552 1.44141-.96985 2.85889-1.45313 4.28906-.51635 1.42041-1.03527 2.8252-1.46875 4.25953a65.87992 65.87992 0 00-2.07617 8.71875 88.64423 88.64423 0 00-.93982 8.93676l-.37585 4.5083c-.16174 1.501-.28919 3.00367-.4812 4.50293-.03443-1.511-.00415-3.0188-.0083-4.52856l.09716-4.523c.02723-1.50732.08179-3.01123.18006-4.53345.11377-1.51587.29956-3.02636.54223-4.52759a48.40761 48.40761 0 012.337-8.801C421.18837 214.21326 422.47743 211.497 423.765 208.7616zM408.33937 223.57557c-.297 1.82519-.62415 3.563-.82483 5.32592-.12268.87769-.17944 1.75879-.23816 2.64527-.06421.89087-.04346 1.77759-.08166 2.71167a8.70539 8.70539 0 01-.69837-2.68994 12.24 12.24 0 01.02588-2.78662 13.99144 13.99144 0 01.61243-2.70948A9.933 9.933 0 01408.33937 223.57557z"/><path fill="#b02336" d="M444.585 260.58436c-1.45862-1.48462-2.853-2.92676-4.36853-4.23658a28.98327 28.98327 0 00-2.359-1.84082 28.01564 28.01564 0 00-2.62-1.55346 10.30718 10.30718 0 015.63306 2.63867 15.74417 15.74417 0 012.13855 2.29565A11.763 11.763 0 01444.585 260.58436zM453.93251 271.64881a9.8617 9.8617 0 01-1.21252 3.00513 11.44252 11.44252 0 01-2.06092 2.5559 8.84676 8.84676 0 01-2.83105 1.72388 6.78464 6.78464 0 01-3.243.3457 13.207 13.207 0 002.9309-1.061 12.48676 12.48676 0 002.47278-1.74976A25.80619 25.80619 0 00453.93251 271.64881zM452.78786 277.7533a6.9042 6.9042 0 01-1.844 2.531 10.1362 10.1362 0 01-2.66418 1.72143 11.13061 11.13061 0 01-3.05542.80713 11.69415 11.69415 0 01-1.56726.07446 13.61418 13.61418 0 01-1.552-.17431c.50964-.1355 1.01306-.207 1.50878-.31494.4917-.13086.988-.20337 1.4657-.35205a20.27166 20.27166 0 002.80078-.9563A15.79949 15.79949 0 00452.78786 277.7533zM412.53615 260.775a35.59219 35.59219 0 01.97522 6.25757 35.19371 35.19371 0 01-.02137 6.333 35.195 35.195 0 01-.97521-6.25757A35.6026 35.6026 0 01412.53615 260.775zM391.09706 205.93152a38.42875 38.42875 0 01-3.97693 5.24268 37.96768 37.96768 0 01-4.725 4.57983 37.99159 37.99159 0 013.97692-5.24267A38.40224 38.40224 0 01391.09706 205.93152z"/><polygon fill="#5e7c24" points="435.237 287.39 432.475 322.714 429.647 358.033 429.648 358.005 432.905 403.608 436.063 449.218 432.625 403.628 429.286 358.031 429.285 358.017 429.286 358.003 432.229 322.694 435.237 287.39"/><path fill="#5e7c24" d="M452.02479 319.53113a10.932 10.932 0 01-2.894 2.69141 5.79576 5.79576 0 01-1.86682.75293 2.23349 2.23349 0 01-1.91589-.43994 2.4743 2.4743 0 001.85168.14111 6.38 6.38 0 001.72339-.79224A26.1681 26.1681 0 00452.02479 319.53113zM423.765 287.75794q.11883 4.22314.15942 8.44653l.03479 8.44678-.04-.11816c2.98523 3.92187 5.96375 7.84912 8.84559 11.85034-3.11792-3.82007-6.13916-7.71436-9.15369-11.614l-.04041-.05224.00025-.06592.03479-8.44678Q423.65058 291.98133 423.765 287.75794zM446.29628 363.54065a15.2902 15.2902 0 01-.21533 4.8064 18.95381 18.95381 0 01-1.515 4.59229 19.75886 19.75886 0 01-2.62719 4.05786 21.80947 21.80947 0 01-1.647 1.76611c-.58606.55078-1.231 1.03613-1.83984 1.5542a29.085 29.085 0 003.24841-3.51172 21.13968 21.13968 0 002.50769-4.03808 20.194 20.194 0 001.57508-4.4834A18.497 18.497 0 00446.29628 363.54065zM447.01784 375.27747a21.75372 21.75372 0 01-1.71289 4.25781 17.74831 17.74831 0 01-2.62354 3.79175 11.10917 11.10917 0 01-3.73767 2.71216 8.3859 8.3859 0 01-4.54944.39819 9.23309 9.23309 0 004.42932-.67944 11.33112 11.33112 0 003.56592-2.7 18.95131 18.95131 0 002.649-3.66968A30.27956 30.27956 0 00447.01784 375.27747z"/><rect width=".396" height="11.803" x="372.202" y="231.397" fill="#7ca1b1"/><polygon fill="#7ca1b1" points="390.135 253.137 389.977 252.771 402.379 247.421 402.537 247.786 390.135 253.137"/><rect width="12.752" height=".397" x="380.298" y="237.1" fill="#7ca1b1" transform="rotate(-67.727 386.674 237.299)"/><path fill="#ba6558" d="M424.86865,194.36907l.00049.00171c1.92822.166,3.56445.49292,3.69775,2.2434.11231,1.47315-.57031,2.20484-.98486,3.26612,4.11718-2.21717,8.15576-7.69165,8.15576-7.69165C432.31787,195.00872,424.86865,194.36907,424.86865,194.36907Z"/><path fill="#6c7fd8" d="M406.53665,474.56844c-2.24137-3.09661-.62927-6.88438,3.643-8.60633l17.97016-7.24286a1.97386,1.97386,0,0,1,1.91758.32248l6.408,6.05208a1.98333,1.98333,0,0,0,2.01665.28433l7.5532-3.16836c1.02475-.42986,2.32513.09406,2.32252.93572l-.032,10.30167c-.00186.598-.6908,1.08067-1.53879,1.078l-40.25353.05269Z"/><rect width="500" height="2" x="100" y="474.286" fill="#935b50"/></svg>