<svg id="Warstwa_1" data-name="Warstwa 1" xmlns="http://www.w3.org/2000/svg" viewBox="0 0 75.09 62.97"><defs><style>.cls-1{fill:#fff;fill-rule:evenodd;}.cls-1,.cls-2{stroke:#fff;stroke-width:0.5px;}.cls-2{fill:none;}</style></defs><path class="cls-1" d="M205.85,45.45l.8.6c10.7,7.8,20,15.9,24.4,20.7l1-3.1c-4.2-4.5-12.6-11.8-23-19.4l7.8-35.7c.2.1.5.1.8.2L209.75,44l.5.4a115.94,115.94,0,0,1,20.5,18.5c.4.5.8,1,1.1,1.4l.3-1h0l.3-1h0l.3-1.1.3-1.1c-.3-.5-.7-.9-1-1.4-3.8-5.4-9.5-12.3-16.2-17.1l7.4-30.4h0l.1-.5.1-.5.1-.4.1-.3v-.2l.1-.4.1-.5h0l.2-.9.1-.2c3.2,1.1,14.5,5.7,19.6,17.1l.4-1.3.4-1.3c-6.7-12.6-20.1-16.4-20.8-16.6l-.9-.2-.5,1.9c-1.1-.4-2.2-.7-3.3-1l-.8-.2-.1.6c-.7-.2-1.5-.4-2.3-.6l-1.1-.6Z" transform="translate(-205.57 -4.65)"/><path class="cls-1" d="M232.45,61.85a10.59,10.59,0,0,0-1-1.2,116.92,116.92,0,0,0-19.6-17.6l7.6-33.8.1-.5.1-.5.1-.4.1-.3,2.4.7v.1l-.1.3-.2.4-.1.5-.1.6h0L214,42.05l.5.4c7.2,5,13.2,12.5,17,18.1a11.32,11.32,0,0,1,1,1.3Z" transform="translate(-205.57 -4.65)"/><line class="cls-2" x1="28.08" y1="62.9" x2="41.88" y2="16.8"/><polygon class="cls-1" points="41.08 16.6 41.88 16.8 42.78 17.1 29.38 62.2 27.38 62.6 41.08 16.6"/><path class="cls-1" d="M280.35,24.85l-1.2-.6a14.27,14.27,0,0,0-2.2-.8l.2-.6-.8-.3c-1.1-.4-2.2-.8-3.3-1.1l.6-1.8-.9-.3c-.6-.2-13.9-4.8-26.2,1.8l-.4,1.3-.4,1.3c10.4-6.5,22.3-3.8,25.5-2.9l-.1.2-.3.9h0l-.2.5-.1.3-.1.2-.1.3-.2.4-.2.5-.2.5h0l-10.3,29.5c-8.2.1-16.6,2.6-22.7,4.9-.6.2-1.1.4-1.6.6l-.3,1.1-.3,1.1h0l-.3,1h0L234,64c.5-.2,1.1-.3,1.7-.5a111.8,111.8,0,0,1,27-3.6h.6l12.5-33.7c.3.1.5.2.8.3l-12.8,34.1a156.82,156.82,0,0,0-28.1,3l-.2.6-.2.6-.1.4-.1.4-.2.6-.2.6c6.2-1.5,16.8-3,29.9-3.3h1Z" transform="translate(-205.57 -4.65)"/><path class="cls-1" d="M236.35,61.55c-.5.1-1,.3-1.5.4l1.5-.6c6.1-2.4,15.2-5.2,23.9-5.2h.6l10.8-31h0l.2-.5.2-.5.1-.4.1-.3.1-.1,2.4.8-.1.3-.1.4-.2.5-.2.5-12,32.4a107.35,107.35,0,0,0-25.8,3.3Z" transform="translate(-205.57 -4.65)"/><path class="cls-1" d="M435.2,111.4" transform="translate(-205.57 -4.65)"/></svg>