<svg width="800" height="600" xmlns="http://www.w3.org/2000/svg">

 <g>
  <title>Layer 1</title>
  <path fill="#ffffff" d="m608,110.52a50,50 0 0 0 -49.88,-49.52l-316.48,-1a49.65,49.65 0 0 0 -49.64,49.52l0,326.48c0,27.3 22.28,48 49.64,48l270.36,0l-13,-44l109,100l0,-429.48zm-139.35,263.29s-8.72,-10.39 -16,-19.32c31.74,-8.94 43.85,-28.49 43.85,-28.49a139,139 0 0 1 -27.85,14.25a173.31,173.31 0 0 1 -35.11,10.39a170.05,170.05 0 0 1 -62.72,-0.24a184.45,184.45 0 0 1 -35.59,-10.4a141.46,141.46 0 0 1 -17.68,-8.21c-0.73,-0.48 -1.45,-0.72 -2.18,-1.21c-0.49,-0.24 -0.73,-0.48 -1,-0.48c-4.36,-2.42 -6.78,-4.11 -6.78,-4.11s11.62,19.09 42.38,28.26c-7.27,9.18 -16.23,19.81 -16.23,19.81c-53.51,-1.69 -73.85,-36.47 -73.85,-36.47c0,-77.06 34.87,-139.62 34.87,-139.62c34.87,-25.85 67.8,-25.12 67.8,-25.12l2.42,2.9c-43.59,12.32 -63.44,31.4 -63.44,31.4s5.32,-2.9 14.28,-6.77c25.91,-11.35 46.5,-14.25 55,-15.21a24,24 0 0 1 4.12,-0.49a205.62,205.62 0 0 1 48.91,-0.48a201.62,201.62 0 0 1 72.89,22.95s-19.13,-18.15 -60.3,-30.45l3.39,-3.86s33.17,-0.73 67.81,25.16c0,0 34.87,62.56 34.87,139.62c0,-0.28 -20.35,34.5 -73.86,36.19z"/>
  <path fill="#ffffff" d="m356.05,262c-13.8,0 -24.7,11.84 -24.7,26.57s11.14,26.57 24.7,26.57c13.8,0 24.7,-11.83 24.7,-26.57c0.25,-14.76 -10.9,-26.57 -24.7,-26.57zm88.38,0c-13.8,0 -24.7,11.84 -24.7,26.57s11.14,26.57 24.7,26.57c13.81,0 24.7,-11.83 24.7,-26.57s-11.13,-26.57 -24.7,-26.57z"/>
 </g>
</svg>