<svg width="800" height="600" xmlns="http://www.w3.org/2000/svg">
 <g>
  <title>Layer 1</title>
  <g id="svg_5">
   <path fill="#ffffff" id="svg_6" d="m654.67839,190.78478c0,-45 -33.1,-81.2 -74,-81.2c-55.4,-2.59 -111.9,-3.59 -169.64,-3.59l-18,0c-57.6,0 -114.2,1 -169.6,3.6c-40.8,0 -73.9,36.4 -73.9,81.4c-2.5,35.59 -3.56,71.19 -3.5,106.79q-0.15,53.4 3.4,106.9c0,45 33.1,81.5 73.9,81.5c58.2,2.7 117.9,3.9 178.6,3.8q91.2,0.3 178.6,-3.8c40.9,0 74,-36.5 74,-81.5c2.4,-35.7 3.5,-71.3 3.4,-107q0.34,-53.4 -3.26,-106.9zm-301.64,205.1l0,-196.5l145,98.2l-145,98.3z"/>
  </g>
 </g>

</svg>