<?xml version="1.0" encoding="utf-8"?>
<!-- Generator: Adobe Illustrator 25.0.0, SVG Export Plug-In . SVG Version: 6.00 Build 0)  -->
<svg version="1.1" id="SvgjsSvg1222" xmlns:svgjs="http://svgjs.com/svgjs"
	 xmlns="http://www.w3.org/2000/svg" xmlns:xlink="http://www.w3.org/1999/xlink" x="0px" y="0px" viewBox="0 0 360 360"
	 style="enable-background:new 0 0 360 360;" xml:space="preserve">
<style type="text/css">
	.st0{fill:#BAC8E5;}
	.st1{fill:#E1E6F4;}
	.st2{fill:#D3DAEA;}
	.st3{fill:#EFD9D3;}
	.st4{fill:#664624;}
	.st5{fill:#3E4268;}
	.st6{opacity:0.2;fill:#664624;enable-background:new    ;}
	.st7{opacity:0.2;fill:#3E4268;enable-background:new    ;}
	.st8{fill:#200100;}
	.st9{fill:#82BA4D;}
	.st10{fill:#EBC0B8;}
	.st11{fill:#FCFAF7;}
	.st12{fill:#E0AFA9;}
	.st13{fill-rule:evenodd;clip-rule:evenodd;fill:#F1F2FF;}
	.st14{fill-rule:evenodd;clip-rule:evenodd;fill:#D3DAEA;}
	.st15{fill-rule:evenodd;clip-rule:evenodd;fill:#BAC8E5;}
	.st16{opacity:0.2;fill:#FFFFFF;enable-background:new    ;}
	.st17{fill:#F1F2FF;}
</style>
<path class="st0" d="M78.8,65.1l-8.1,3l-0.2,11.3L43.9,60.7L78.8,65.1z"/>
<path class="st1" d="M65,71.5l-12.5,6l-8.6-16.8L65,71.5z"/>
<path class="st2" d="M70.7,68.2l-0.2,10.6v0.7l-5.4-8L43.9,60.7L70.7,68.2z M157.3,121c-0.6,1.7-1,2.7-1,2.8l-1-0.4c0,0,0.4-1,1-2.7
	L157.3,121z M154.6,84.6l-0.8,0.8c-0.7-0.6-1.4-1.2-2.2-1.8l0.6-0.9C153.1,83.3,153.9,83.9,154.6,84.6L154.6,84.6z M144.1,79.3
	l-0.2,1.1c-0.9-0.2-1.8-0.4-2.8-0.5l0.1-1.1C142.2,78.9,143.2,79,144.1,79.3z M149.7,81.2l-0.5,1c-0.8-0.4-1.7-0.8-2.6-1.1l0.4-1
	C147.9,80.4,148.8,80.8,149.7,81.2z M157.9,115.1l1.1,0.3c-0.3,1-0.5,2-0.8,2.8l-1-0.3C157.4,117,157.7,116.1,157.9,115.1
	L157.9,115.1z M159.1,109.4l1.1,0.2c-0.2,1-0.3,2-0.5,2.9l-1.1-0.2C158.7,111.4,158.9,110.4,159.1,109.4z M138.2,79.5
	c-0.9-0.1-1.9-0.1-2.9-0.1v-1.1c1,0,2,0,2.9,0.1V79.5z M159.5,98l1.1-0.1c0.1,0.9,0.2,1.9,0.2,2.9h-1.1
	C159.6,99.9,159.6,98.9,159.5,98z M155.6,87.5l0.9-0.6c0.6,0.8,1.1,1.6,1.6,2.5l-1,0.5C156.7,89,156.2,88.2,155.6,87.5L155.6,87.5z
	 M159.6,103.7h1.1c0,0.9-0.1,1.9-0.2,2.9l-1.1-0.1C159.5,105.6,159.6,104.7,159.6,103.7L159.6,103.7z M158.2,92.5l1-0.4
	c0.3,0.9,0.6,1.9,0.8,2.9l-1.1,0.2C158.8,94.3,158.5,93.4,158.2,92.5L158.2,92.5z M92.9,87.9c-1,0.1-2,0.2-2.9,0.3l-0.1-1.1
	c0.9-0.1,1.8-0.2,2.9-0.3L92.9,87.9z M87,87.2v1.1c-1,0-2,0-2.9-0.1l0.1-1.1C85.1,87.2,86.1,87.2,87,87.2z M81.4,86.7l-0.2,1.1
	c-1-0.2-2-0.5-2.9-0.9l0.4-1C79.5,86.2,80.4,86.5,81.4,86.7z M98.7,86.9c-1,0.2-2,0.4-2.9,0.6l-0.2-1.1c0.9-0.2,1.8-0.3,2.8-0.5
	L98.7,86.9z M132.5,79.5c-0.9,0-1.9,0.1-2.9,0.2l-0.1-1.1c1-0.1,2-0.2,2.9-0.2L132.5,79.5z M75.5,83.7c0,0,0.2,0.4,0.9,0.9l-0.7,0.8
	c-0.8-0.6-1.1-1.1-1.1-1.2L75.5,83.7z M121.1,81.1c-0.9,0.2-1.9,0.4-2.8,0.6l-0.2-1.1c1-0.2,1.9-0.4,2.8-0.6L121.1,81.1z
	 M126.8,80.1c-0.9,0.1-1.9,0.3-2.8,0.4l-0.2-1.1c1-0.2,1.9-0.3,2.9-0.4C126.6,79,126.8,80.1,126.8,80.1z M115.5,82.3
	c-0.9,0.2-1.8,0.5-2.8,0.7l-0.3-1c1-0.3,1.9-0.5,2.8-0.7L115.5,82.3z M109.6,82.8l0.3,1c-0.6,0.2-1.2,0.3-1.7,0.5l-1,0.3l-0.3-1
	l1-0.3C108.4,83.2,109,83,109.6,82.8z M104.3,85.5c-1,0.3-1.9,0.5-2.8,0.7l-0.3-1.1c0.9-0.2,1.8-0.5,2.8-0.7L104.3,85.5z"/>
<path class="st3" d="M225.8,313.5c0,0-2.7-9.3-1.4-10.1c1.3-0.7,4.4-1.1,5.2-0.5c0.7,0.6,0.9,10.7-0.2,12
	C228.2,316.3,226.6,316,225.8,313.5z"/>
<path class="st4" d="M216.5,320.2c0,0-0.1,1.4,1.2,2c3.1,1.5,13.2-0.2,13.6-1.1c0.5-0.9,0.3-2.1,0.3-2.1L216.5,320.2z"/>
<path class="st4" d="M226.4,310.1c0,0,2.6,0.1,3.8-0.4c1.1-0.4,2,9.2,1.2,10.4c-0.9,1.2-7.3,0.2-7.3,0.2s0.8-2.3,1.3-5
	C225.8,312.7,224,310.6,226.4,310.1L226.4,310.1z"/>
<path class="st4" d="M223.9,313.9c0,0-2.2-4.3-0.4-4.7s2.4-0.1,3.4,0.5s-0.7,3.9-0.9,4.4C225.8,314.7,223.9,313.9,223.9,313.9z"/>
<path class="st4" d="M221.2,316.7c0,0,2.3,0.2,3.2,1.4c0.9,1.2,3.2-2.8,2.5-4.1c-0.7-1.4-3.5-0.4-3.5-0.4S223.9,316.2,221.2,316.7
	L221.2,316.7z"/>
<path class="st4" d="M216.8,321.1c1.7,1.3,7.4,1.6,8.6,0.2c1.2-1.4-0.2-6.5-5.4-5.3C217.8,316.4,215.6,320.1,216.8,321.1
	L216.8,321.1z"/>
<path class="st5" d="M241.8,151.2l-30.2,3c0,0,10.7,112.9,12,151.7l6.9-0.9C230.4,305.1,258.5,162.1,241.8,151.2L241.8,151.2z"/>
<path class="st4" d="M265.3,313.8c0.3,1.3,0.6,2.2,0.6,2.2s4.6,7.8,7.1-1.2l0,0c0.2-0.6,0.3-1.3,0.5-2c1.7-7.5-4.8-4.9-4.8-4.9
	s-2.1-1.2-3.7,0.7C263.9,309.8,264.6,311.2,265.3,313.8L265.3,313.8z"/>
<path class="st3" d="M271.2,300.2c-0.1,3.7,0.6,11.1,0.6,11.1c-1,3.2-3,3.7-4.6,2c-1.1-1.3-2.5-8.9-3.7-13L271.2,300.2z"/>
<path class="st4" d="M275.8,319.3c0,0,0.3,1.8-0.2,2.3c-2,2-10.2,2.2-11.8,0.5c-0.8-0.8,0.2-3.2,0.2-3.2L275.8,319.3L275.8,319.3z"
	/>
<path class="st4" d="M271.5,305.5c0,0,0.3,7-0.4,8.4c-0.8,1.3-2.8,2.4-3.5,0.7c-0.8-1.6-1.8-8.3-1-9S271.3,304.5,271.5,305.5z"/>
<path class="st4" d="M270.8,314.5c0,0,2.8-6.5,0.9-5.5c-2.5,1.3-3.7,0.7-5.6,0.4c-1.5-0.3,1,4.9,1.2,5.4
	C267.5,315.2,270.8,314.5,270.8,314.5z"/>
<path class="st6" d="M265.3,313.8c0.3,1.3,0.6,2.2,0.6,2.2s4.6,7.8,7.1-1.2l0,0c-0.1-0.4-0.2-0.7-0.2-1.1c-0.6-0.5-1.3-0.9-1.9-1
	C268.3,312.2,266.5,312.8,265.3,313.8z"/>
<path class="st4" d="M275.5,320.4c-2.1,1.8-9.6,2.2-11.1,0.4c-1.6-1.8,0.1-8.5,6.9-7C274.1,314.4,277,319.2,275.5,320.4z"/>
<path class="st5" d="M271.4,146c-0.3-2-34.9,2.1-34.9,2.1l27.2,154.1l7.7-0.1C271.5,302,274.1,165.9,271.4,146L271.4,146z"/>
<path class="st7" d="M264.4,164.8c-4.1,3.2-9.2,5-13.3,8.3c-1.9,1.5-3.6,3.4-4.6,5.6c-1.1,2.6-1.2,5.5-0.6,8.2
	c0.5,2.7,1.4,5.3,0.9,8c-0.3,1.7-1.1,3.2-1.8,4.7s-1.3,3-1.9,4.5c-0.9,2.3-1.6,4.6-2.1,7l-13.6-61.5c0,0,43.5-4.1,43.8-2.1
	c0.3,1.8,0.6,4.6,0.8,8.1C270.1,159.2,267.6,162.3,264.4,164.8L264.4,164.8z"/>
<path class="st8" d="M296.3,45.6c-15.5-2.5-5.4-10.4-14-14.1s-23.4,6.7-27.7,4.1c-4.2-2.6-6.7-12.8-20.2-7.7
	c-4.4,1.7-12.3,9.2-8.7,16.9c2.1,4.5,1.7,7.7,1.7,10.1c-0.1,4.2-0.9,6.7,2.9,13.9c6,11.2,16.7,0.6,28.9,9.1
	c13.4,9.4,25.2,12.3,34.5,10.9c10.9-1.6,18.3-9.1,20.9-18.8C319.4,52.1,311.9,48.1,296.3,45.6z"/>
<path class="st7" d="M283.7,83.6c-2-1.1-4-2.2-5.6-3.8c-1.8-1.8-2.4-4.1-3-6.5c-0.4-1.3-0.8-2.6-1.5-3.8c-0.8-1.3-1.9-2.5-3-3.5
	c-2.2-2.1-4.7-3.7-7.2-5.3c-2.2-1.4-4.4-2.9-5.7-5.2c-0.6-1.1-1-2.4-1.1-3.7c-0.1-1.5,0.3-3,0.3-4.5c0-1.3-0.5-2.5-1.5-3.4
	c-0.9-0.9-2.1-1.5-3.1-2.1c-1.5-0.9-2.8-2-4-3.2c0.8,3,1.4,6,1.9,9c0.9,6.1,1.2,12.3,1.1,18.4c-0.1,2.8-0.2,5.6-0.5,8.4
	c2.7,0.4,5.6,1.3,8.6,3.4C271,86,281.4,89.3,290,89c0-0.1-0.1-0.2-0.1-0.2C288.4,86.4,286.1,85,283.7,83.6z"/>
<path class="st9" d="M272.7,153.3c-0.4-14.5-1.6-37.5-5.3-49.9c6.2-0.7,14.1-2.1,16.2-2.3c-5.6-34.6-32.9-42-36.6-41.8
	c-24.3,1.5-27,28.8-36,37.8s2.2,18.9,3.8,29s-4,26.6-3.3,27.1C223.3,163.1,272.7,153.3,272.7,153.3z"/>
<path class="st10" d="M267.4,103.3l2.1,17.6c-16.6,9.6-30.7,9.6-30.7,9.6l-1.7,5.3c0,0,20.7,5,38.7-4.1c10.4-5.3,6.3-23.3,6.8-30.5
	C277.7,101.7,271.1,102.4,267.4,103.3L267.4,103.3z"/>
<path class="st10" d="M238.9,53.8c0,0,0.5,1.8,0.3,5c-0.1,0.9-1.3,7.2,1.5,7.8c4.7,1.1,8-3.7,8-3.7l-0.1-16.4
	C248.6,46.4,238.9,53.8,238.9,53.8z"/>
<path class="st10" d="M230.9,40.8c0,0,2.4,17.6,7.2,16.7c5.1-1,9.5-5.5,10.1-8.4s0.3-2.7,0.3-2.7s1.7-0.5,1.5-3.4s-2.1-0.7-2.1-0.7
	s-7.1-7.6-11.4-6.7C232.3,36.6,230.9,40.8,230.9,40.8L230.9,40.8z"/>
<path class="st11" d="M235.2,53.3c0,0,2.2,0.8,4.6-0.5C240.5,53.8,237.7,56.7,235.2,53.3z"/>
<path class="st12" d="M248.3,42.9l0.4,2.7c0,0,0.6-1.4,0.6-2.4C249.3,42.3,248.3,42.9,248.3,42.9z"/>
<path class="st8" d="M231.8,42c-0.1-1.8,1.4-3.9,1.5-4.1c-1.1,1.8-0.7,4.5-0.5,5.1c1.7,1.4,4.2,2.3,6.9-0.6c5.4-5.8,8.2,1.6,8.2,1.6
	s0.8-7.4-4.3-9.2c-5.2-1.8-10.1,0-12.8,5.9C230.8,40.7,231.2,41.3,231.8,42z"/>
<path class="st12" d="M245.3,129.6l-2.9-5.8l-0.4,5.5L245.3,129.6z M177,88l6.5,5.7l-5.5-0.4L177,88z"/>
<path class="st13" d="M243.2,113l-11.8,163.5l-133.6-9.6l12.9-178.5l112.8,8.2L243.2,113z"/>
<path class="st14" d="M124.4,102.3l47.2,3.4l-0.6,8.6l-47.2-3.4L124.4,102.3z"/>
<path class="st2" d="M133.8,119.9l-0.8,11.2l-2.7-0.2l-4.1-7.3l-0.5,6.9l-2.7-0.2l0.8-11.2l2.7,0.2l4.1,7.3l0.5-7L133.8,119.9
	L133.8,119.9z M142.9,122.8l-4.1-0.3l-0.2,2.3l3.7,0.3l-0.2,2.1l-3.7-0.3l-0.2,2.5l4.1,0.3l-0.2,2.2l-6.9-0.5l0.8-11.2l6.9,0.5
	L142.9,122.8L142.9,122.8z M144.6,120.7l2.9,0.2l1,8.3l2.6-8l3,0.2l1.3,8.3l2.2-8.1l2.9,0.2l-3.7,11l-3.3-0.2l-1.3-7.5l-2.4,7.3
	l-3.3-0.2L144.6,120.7L144.6,120.7z M165.7,133.6c-2.4-0.2-4.2-1.5-4.1-3.8l2.9,0.2c0,0.9,0.5,1.3,1.3,1.4c0.8,0.1,1.3-0.3,1.4-1
	c0.2-2.1-5.6-1.4-5.2-5.4c0.2-2.1,2-3.2,4.3-3c2.5,0.2,4,1.5,4,3.7l-3-0.2c0-0.7-0.5-1.2-1.2-1.3c-0.7-0.1-1.2,0.2-1.2,0.9
	c-0.1,2,5.5,1.5,5.2,5.2C170,132.4,168.4,133.8,165.7,133.6L165.7,133.6z M175.5,122.9l-0.7,9.1l3.6,0.3l-0.2,2.1l-6.3-0.5l0.8-11.2
	L175.5,122.9z M187.5,126l-4.1-0.3l-0.2,2.3l3.7,0.3l-0.2,2.1l-3.7-0.3l-0.2,2.5l4.1,0.3l-0.2,2.2l-6.9-0.5l0.8-11.2l6.9,0.5
	L187.5,126L187.5,126z M189.2,123.9l8.7,0.6l-0.2,2.2l-3-0.2l-0.7,9.1l-2.7-0.2l0.7-9.1l-3-0.2L189.2,123.9L189.2,123.9z
	 M199.1,124.6l8.7,0.6l-0.2,2.2l-3-0.2l-0.7,9.1l-2.7-0.2l0.7-9.1l-3-0.2L199.1,124.6L199.1,124.6z M216.3,128.1l-4.1-0.3l-0.2,2.3
	l3.7,0.3l-0.2,2.1l-3.7-0.3l-0.2,2.5l4.1,0.3l-0.2,2.2l-6.9-0.5l0.8-11.2l6.9,0.5L216.3,128.1L216.3,128.1z M223.3,126.4
	c2.8,0.2,4,1.9,3.9,3.8c-0.1,1.4-1,2.7-2.7,3.1l2.3,4.6l-3.1-0.2l-2-4.4H221l-0.3,4.2l-2.7-0.2l0.8-11.2L223.3,126.4L223.3,126.4z
	 M222.9,128.6l-1.7-0.1l-0.2,2.8l1.7,0.1c1,0.1,1.5-0.4,1.6-1.3C224.4,129.3,224,128.7,222.9,128.6z"/>
<path class="st14" d="M121.9,140.3l47.2,3.4l-0.6,8.6l-47.2-3.4L121.9,140.3z"/>
<path class="st14" d="M168.1,157l57.1,4.1l-2.6,36.6l-57.1-4.1L168.1,157z"/>
<path class="st14" d="M120.9,153.6l40.1,2.9l-2.6,36.6l-40.1-2.9L120.9,153.6z"/>
<path class="st14" d="M117.9,194.9l104.3,7.5l-2.6,36.6l-104.3-7.5L117.9,194.9z"/>
<path class="st15" d="M243.2,113l-18.9,2.5l-0.8-19L243.2,113z"/>
<path class="st10" d="M245.6,128.2c0,0-11.5-1.9-12.1,0.2c-0.3,1,2.5,1.8,5.5,2.4c-3.7-0.6-7.9-0.8-7.7,0.3c0.2,0.9,4.6,1.8,7.6,2.5
	c-2.1-0.3-6.8-0.9-7.1,0c-0.3,1.1,4,2.3,6.9,2.7c-1.7-0.1-4.8-0.3-4.9,0.6c-0.1,0.7,0.7,1.5,4.3,2c2.1,0.3,2,0.7,3,0.6
	c0.8,0,1.6,0,2.2-0.3C246.2,137.7,247.1,129.2,245.6,128.2L245.6,128.2z"/>
<path class="st16" d="M234,137.1c0.1-0.4,1.4-0.5,1.5-0.4c0,0-0.1,1-0.2,1.2S233.9,137.5,234,137.1L234,137.1z M231.9,133.8
	c0.1-0.4,1.4-0.5,1.5-0.4c0,0-0.1,1-0.2,1.2C233.1,134.7,231.8,134.1,231.9,133.8L231.9,133.8z M231.6,131c0.1-0.4,1.4-0.5,1.5-0.4
	c0,0-0.1,1-0.2,1.2C232.8,131.9,231.5,131.4,231.6,131L231.6,131z M233.8,128.3c0.1-0.4,1.4-0.5,1.5-0.4c0,0-0.1,1-0.2,1.2
	C235,129.3,233.7,128.7,233.8,128.3z"/>
<path class="st10" d="M177.3,87.9c0,0,3.5,10,1.7,10.8c-0.8,0.4-2-1.9-3-4.5c1.1,3.2,2,6.9,0.9,6.9c-0.8,0-2.3-3.8-3.4-6.4
	c0.6,1.8,1.8,5.9,1.1,6.3c-1,0.5-2.7-3.2-3.5-5.8c0.4,1.5,1,4.3,0.3,4.5c-0.6,0.2-1.4-0.4-2.5-3.6c-0.6-1.9-0.9-1.7-1-2.6
	c-0.1-0.7-0.2-1.4,0-2C168.8,88.8,176.2,86.7,177.3,87.9L177.3,87.9z"/>
<path class="st16" d="M171.2,99.5c0.3-0.2,0.2-1.3,0.1-1.4c0,0-0.9,0.2-1,0.4C170.1,98.6,170.9,99.7,171.2,99.5z M174.5,100.9
	c0.3-0.2,0.2-1.3,0.1-1.4c0,0-0.9,0.2-1,0.4C173.5,100,174.2,101.1,174.5,100.9z M177,100.8c0.3-0.2,0.2-1.3,0.1-1.4
	c0,0-0.9,0.2-1,0.4C176,99.9,176.7,101,177,100.8L177,100.8z M179.1,98.3c0.3-0.2,0.2-1.3,0.1-1.4c0,0-0.9,0.2-1,0.4
	C178,97.4,178.7,98.5,179.1,98.3z"/>
<path class="st17" d="M232.2,271.5c0,1.6-1.3,2.9-2.9,2.9c-1.6,0-2.9-1.3-2.9-2.9s1.3-2.9,2.9-2.9S232.2,269.9,232.2,271.5z"/>
<path class="st2" d="M299,214.3c-2.4,5.4-4.6,10.5-6.7,15.3c-0.1,0.2-0.4,0.4-0.7,0.3c-8.8-2.2-17.3-5.1-25.6-8.7
	c-0.3-0.1-0.4-0.4-0.4-0.7c1.3-5.1,2.6-10.5,4-16.2c0-0.2,0.1-0.3,0.3-0.4l0,0c0.1-0.1,0.3-0.1,0.4-0.1c9.7,2.3,19.3,5.6,28.4,9.6
	c0.1,0.1,0.2,0.2,0.3,0.3v0.1l0,0C299.1,214.1,299.1,214.2,299,214.3z"/>
<path class="st0" d="M288.4,221.1c-0.7-1.2-1.5-2.4-2.5-3.4c1.5,0,3.1-0.1,4.7-0.5c3-0.6,5.8-1.7,8.4-3.3l0,0l0,0
	c0-0.1-0.1-0.2-0.2-0.3c0.1,0.1,0.1,0.2,0.2,0.3c-2.7,1.4-5.5,2.4-8.5,3c-1.8,0.3-3.4,0.5-5,0.4c-0.9-0.9-1.9-1.6-3.1-2
	c-1.3-0.4-2.8-0.4-4.3-0.2c-3.7-2.3-6.4-6.2-8.2-11.1c0.1-0.1,0.3-0.1,0.4-0.1c-0.1,0-0.3,0-0.4,0.1l0,0c0.7,2.1,1.6,4.3,2.8,6.2
	c1.3,2.1,2.9,3.8,4.8,5c-3.9,0.8-8.1,3.3-11.2,5.6c3.3-2.1,7.8-4.6,11.9-5.2c0.2,0,0.5-0.1,0.7-0.1c1.2-0.1,2.3,0,3.3,0.3
	c0.9,0.3,1.7,0.8,2.4,1.4c0.2,0.1,0.3,0.3,0.5,0.4c1.1,1.1,2.1,2.4,2.9,3.7c1.5,2.5,2.7,5.2,3.7,8
	C291,226.5,289.9,223.6,288.4,221.1z"/>
<path class="st17" d="M167.1,41.6c1.6,7.1,3.1,13.8,4.5,20.1c0.1,0.3-0.1,0.7-0.5,0.8c-10.3,4.2-20.9,7.5-31.8,9.9
	c-0.4,0.1-0.7-0.1-0.9-0.4c-2.4-6-5-12.3-7.8-19c-0.1-0.2-0.1-0.4,0-0.6l0,0c0.1-0.2,0.2-0.3,0.4-0.4c11.3-4.7,23.2-8.4,35.2-11
	c0.2,0,0.3,0,0.5,0.1c0,0,0.1,0,0.1,0.1C167,41.2,167.1,41.4,167.1,41.6L167.1,41.6z"/>
<path class="st0" d="M161.5,56c-1.6-0.7-3.2-1.3-4.9-1.6c1.5-1.1,3-2.4,4.3-3.9c2.5-2.8,4.5-6,6-9.4l0,0l0,0
	c-0.1-0.1-0.3-0.1-0.4-0.1c0.1,0,0.2,0.1,0.4,0.1c-1.6,3.3-3.7,6.4-6.2,9.1c-1.5,1.6-3.1,3-4.7,4c-1.5-0.2-3.1-0.2-4.6,0.3
	c-1.6,0.5-3.1,1.6-4.4,2.9c-5.3,0.4-10.8-1.5-16.2-5.1c0.1-0.2,0.2-0.3,0.4-0.3c-0.2,0.1-0.3,0.2-0.4,0.4l0,0
	c2.3,1.6,4.7,3.1,7.3,4.1c2.8,1.2,5.7,1.6,8.4,1.5c-3.3,3.6-5.7,9.1-7.1,13.7c1.7-4.5,4.4-10.3,8-13.7c0.2-0.2,0.4-0.4,0.7-0.6
	c1.1-0.9,2.3-1.7,3.5-2.1c1.1-0.3,2.2-0.4,3.4-0.4c0.3,0,0.5,0,0.8,0.1c1.9,0.2,3.8,0.8,5.6,1.6c3.3,1.4,6.5,3.2,9.5,5.3
	C168,59.4,164.8,57.4,161.5,56L161.5,56z"/>
<ellipse class="st8" cx="234.8" cy="47.5" rx="0.9" ry="1.4"/>
<ellipse class="st8" cx="239.9" cy="47" rx="0.9" ry="1.4"/>
</svg>
