<svg id="Warstwa_1" data-name="Warstwa 1" xmlns="http://www.w3.org/2000/svg" viewBox="0 0 402.74 337.91"><defs><style>.cls-1{fill:#a9a8aa;}.cls-2{fill:#fed4c0;}.cls-3{fill:#1f6c34;}.cls-4{fill:#200100;}.cls-5{fill:#2e456a;}.cls-6{fill:#2c66bf;}.cls-7{fill:#e06c96;}.cls-8{fill:#23813f;}.cls-9{fill:#b86a4b;}.cls-10{fill:#8c4d3e;}.cls-11{fill:#537e5d;}.cls-12{fill:#4285f4;}.cls-13{fill:#0a4f6f;}.cls-14{fill:#34a853;}.cls-15{fill:#82ba4d;}.cls-16{fill:#df382b;}.cls-17{fill:#160b07;}.cls-18{fill:#23893c;}.cls-19{fill:#001b30;}.cls-20{fill:#44674c;}.cls-21{fill:#664624;}.cls-22{fill:#fabb05;}</style></defs><path class="cls-1" d="M401.72,230.83c6.86-67.7-98.28-212.71-168.75-141-37.1,37.77-127.36,81.7-193.62,104.19C-25.08,215.94,108,324.87,208.1,335S394.85,298.52,401.72,230.83Z" transform="translate(0.7 1)"/><path class="cls-2" d="M176.9,46.92v8.31l-4.24,1.82s1.37,21,11.45,15.5,12.79-14.78,10.63-15.5l-3-1.82-.36-7.91Z" transform="translate(0.7 1)"/><path class="cls-3" d="M290.25,88.18,256,93.45a10.41,10.41,0,0,1-8.66-2.63C230.87,75.61,220,68,213.37,64.21h0c-5.93-3.4-18.48-7.68-18.48-7.68l.13.63-.26-.1c-11.76,24.48-22.08,0-22.08,0s-12.54,4.28-18.47,7.68h0a0,0,0,0,0,0,0c-6.62,3.79-17.5,11.4-34,26.61A10.45,10.45,0,0,1,111.52,94L77.29,88.72l-6.84,17.4L110,116.68a20.28,20.28,0,0,0,16.65-2.83l25.44-17.33.11-.37c.53,19.39,2,40.58,2,40.58l.48,9.6h58.08l0-.53h.1l.48-9.6s1.5-21.19,2-40.59l.11.37,25.44,17.33a20.27,20.27,0,0,0,16.66,2.83l39.5-10.56Z" transform="translate(0.7 1)"/><path class="cls-2" d="M198.51,28.67c0-11.86-6.34-21.48-14.16-21.48s-14.16,9.62-14.16,21.48h-.09a4.71,4.71,0,1,0,0,9.42h0a4.52,4.52,0,0,0,1.46-.25c2.27,7.27,7.14,12.31,12.79,12.31s10.51-5,12.78-12.29a4.34,4.34,0,0,0,1.38.23,4.71,4.71,0,0,0,0-9.42Z" transform="translate(0.7 1)"/><path class="cls-4" d="M171.75,32.87s-.84-16.56,5-20.16c0,0,2.16-2.76,8.28,3.72s12.07,3,12.07,3,1.49,11.15.53,13.43c0,0,8.64-14.76-.84-22.32s-14.64-4.92-22.2,0C174.63,10.55,160.47,12.23,171.75,32.87Z" transform="translate(0.7 1)"/><path class="cls-4" d="M0,0" transform="translate(0.7 1)"/><ellipse class="cls-4" cx="179.06" cy="28" rx="1.38" ry="2.07"/><ellipse class="cls-4" cx="189.78" cy="28" rx="1.38" ry="2.07"/><path class="cls-4" d="M0,0" transform="translate(0.7 1)"/><path class="cls-4" d="M0,0" transform="translate(0.7 1)"/><path class="cls-4" d="M179.85,41.1s5,5.73,9.23-1.57" transform="translate(0.7 1)"/><polygon class="cls-5" points="157.05 147.33 157.05 312.45 179.13 312.45 182.01 168.45 187.77 168.45 198.81 312.45 220.89 312.45 211.29 147.33 157.05 147.33"/><path class="cls-6" d="M202.9,317.21s-6,16.8-1,19.2h5s2.4-6.72,5.76,0h30.72s1.92-5.28-5.52-7.68S218,317.21,218,317.21Z" transform="translate(0.7 1)"/><polygon class="cls-2" points="202.65 312.45 203.61 318.21 218.73 318.21 218.73 312.45 202.65 312.45"/><path class="cls-6" d="M174.71,317.21s6,16.8,1,19.2h-5s-2.4-6.72-5.76,0H134.15s-1.92-5.28,5.52-7.68,19.92-11.52,19.92-11.52Z" transform="translate(0.7 1)"/><polygon class="cls-2" points="176.37 312.45 175.41 318.21 160.29 318.21 160.29 312.45 176.37 312.45"/><path class="cls-7" d="M0,0" transform="translate(0.7 1)"/><rect class="cls-8" x="188.97" y="81.26" width="16.96" height="21.16"/><path class="cls-9" d="M351.72,46.9v9.31l3.83.84s-1,21-11,15.48-13.2-14.76-11-15.48L336.83,56l.43-8.67Z" transform="translate(0.7 1)"/><path class="cls-9" d="M330.11,28.65c0-11.86,6.34-21.48,14.16-21.48s14.16,9.62,14.16,21.48h.09a4.71,4.71,0,1,1,0,9.42h0a4.81,4.81,0,0,1-1.46-.25c-2.27,7.27-7.14,12.31-12.79,12.31s-10.51-5-12.78-12.29a4.64,4.64,0,0,1-1.38.23,4.71,4.71,0,0,1,0-9.42Z" transform="translate(0.7 1)"/><path class="cls-4" d="M356.87,32.85s.84-16.56-5-20.16c0,0-2.16-2.76-8.28,3.72s-12.07,3-12.07,3S330,30.57,331,32.85c0,0-8.64-14.76.84-22.32s14.64-4.92,22.2,0C354,10.53,368.15,12.21,356.87,32.85Z" transform="translate(0.7 1)"/><path class="cls-4" d="M0,0" transform="translate(0.7 1)"/><ellipse class="cls-4" cx="351.33" cy="29.52" rx="1.41" ry="2.29"/><ellipse class="cls-4" cx="339.71" cy="29.52" rx="1.41" ry="2.29"/><path class="cls-4" d="M0,0" transform="translate(0.7 1)"/><path class="cls-9" d="M393.39,160.59l3.79,22.19a8.77,8.77,0,0,1-1.68,6.82l-7.61,9.94a2.17,2.17,0,0,1-1.73.86h0a2.18,2.18,0,0,1-2.17-2.18h0a5.13,5.13,0,0,1,1.08-3.14l5.84-7.5s-.77-10.25-.94-8.71l-3,4.93a1.58,1.58,0,0,1-2.17.53,1.67,1.67,0,0,1-.5-.49h0a1.51,1.51,0,0,1-.26-.94,8.19,8.19,0,0,1,1-3.52l.84-1.54s-1.88-11.44.51-17.25Z" transform="translate(0.7 1)"/><path class="cls-10" d="M343,76.89l2.54,8.57-27.76,36.46c-4.3,5.79-12.41,5.51-16-1.76,0,0-.27-5.31.45-6.87,3.25-7,6.79-7.88,12.41-12.6Z" transform="translate(0.7 1)"/><path class="cls-10" d="M344,77.89l2.54,8.57-27.76,36.46c-4.3,5.79-12.41,5.51-16-1.76,0,0-.27-5.31.45-6.87,3.25-7,6.79-7.88,12.41-12.6Z" transform="translate(0.7 1)"/><path class="cls-9" d="M279.93,100.3s-.2-3.85-6.19-9.88-11.35-10.13-8.21-5L268,89.24s-6.4-2.39-10.09-4.15a5,5,0,0,0-5.92,1c-1.37,1.51-1.31,3.13,2.54,6,5.75,4.25,14.65,10.73,16.38,11.36C271.5,103.7,279.93,100.3,279.93,100.3Z" transform="translate(0.7 1)"/><path class="cls-11" d="M315.71,146.33h57.84l.48-9.6,8.16,33.12,15.12-2.4C393.15,118.63,383.5,87,378.45,73.23a19.11,19.11,0,0,0-10.66-11.1l-12.24-5.08s-10.32,24.48-22.08,0l-12.25,5.08c-4.94,2.05-11.35,5.93-13.19,11-2.29,6.25-6.58,20-9.83,26.32a3.18,3.18,0,0,1-4.3,1.39,2.41,2.41,0,0,1-.48-.3L275.24,89.65l-7,13.51,23.17,19.25A14.22,14.22,0,0,0,311.05,119l3.94-5.51.48,32.88h57.84" transform="translate(0.7 1)"/><path class="cls-12" d="M0,0" transform="translate(0.7 1)"/><path class="cls-10" d="M283,307.47l2.06,12,14.86,11s-17.46,6.3-26.28-3.06l1.8-8.28-4.14-10.62Zm-55,0-.07,12-14.85,11s17.46,6.3,26.28-3.06l-1.8-8.28,2.14-10.62Z" transform="translate(0.7 1)"/><path class="cls-13" d="M254.91,132l-7.27,13a86.28,86.28,0,0,0-10,29L217.55,310.71l74.07-2.19L295.82,179a75.72,75.72,0,0,0-6.31-33.66,52.55,52.55,0,0,0-8.2-13.25Z" transform="translate(0.7 1)"/><path class="cls-4" d="M244.46,44.33c.12,1.69.77,1.73,1.16,3.62.57,2.73-.64,3.3-.06,5.49.33,1.24.75,1.19,2.93,4.28s1.76,3.19,2.94,4.47c2.08,2.24,3,1.6,5.38,4,1.56,1.61,1.39,2.13,3.11,3.71a27.84,27.84,0,0,0,3.65,2.56c4.43,3,4.7,3.24,5.75,3.46a10.15,10.15,0,0,0,4.83-.34c1.76-.44,1.81-.83,4.75-2s3.21-.85,4.31-1.61c1.67-1.16,1.32-1.91,3.32-3.67s2.42-1.18,3.53-2.54c1.42-1.73.71-2.7,2.18-4.21,1.11-1.14,1.77-.84,3-2.14a11.06,11.06,0,0,0,1.64-2.87c1.61-3.08,2.31-2.74,3.29-5,.52-1.21.18-1,1.21-4.75.82-3,1-2.9,1-3.87.23-2.93-1.21-3.09-.69-5.21.32-1.29,1.19-2.64.69-4.45h0c-.47-3.38-.81-5.87-2.68-8.16-1-1.24-1.19-.87-4.24-3.87-1.94-1.91-2.35-2.53-3.67-3.32-1.73-1-2-.56-4.19-1.61-2.81-1.36-2.74-2.36-5-3.1-1.48-.48-1.5,0-4.36-.46-3.62-.54-3.75-1.27-5.57-1.09s-2.17,1.06-5,1.89c-2.36.69-2.72,0-4.52.69s-1.66,1.34-3.91,2.53c-2.67,1.41-3.44.78-4.68,2s-.62,2-2,4.4c-1.11,2-1.66,1.68-3.49,4.23a32,32,0,0,0-2.73,4.79,12.93,12.93,0,0,0-1.61,4c-.2,1.67.37,1.85.28,4S244.34,42.62,244.46,44.33Z" transform="translate(0.7 1)"/><path class="cls-4" d="M0,0" transform="translate(0.7 1)"/><polygon class="cls-10" points="235.68 120.73 231.39 180.08 238.66 176.81 247.92 126.09 235.68 120.73"/><circle class="cls-4" cx="115.61" cy="40.01" r="7.36"/><circle class="cls-4" cx="113.44" cy="36.22" r="7.36"/><circle class="cls-4" cx="108.25" cy="34.98" r="7.36"/><circle class="cls-4" cx="125.34" cy="72.84" r="7.36"/><circle class="cls-4" cx="121.82" cy="65.48" r="7.36"/><circle class="cls-4" cx="117.51" cy="59.07" r="7.36"/><circle class="cls-4" cx="86.06" cy="53.33" r="7.36"/><circle class="cls-4" cx="101.23" cy="33.08" r="7.36"/><circle class="cls-4" cx="97.7" cy="33.87" r="7.36"/><circle class="cls-4" cx="115.61" cy="48.97" r="7.36"/><circle class="cls-4" cx="90.35" cy="36.22" r="7.36"/><circle class="cls-4" cx="84.76" cy="42.38" r="7.36"/><path class="cls-9" d="M114.91,54.16s0,0,0,0c0-9.61-5.85-17.51-13.5-17.94S87.05,43,86,52.56h0a4.71,4.71,0,0,0-.52,9.35,3.82,3.82,0,0,0,1.34-.19c.6,5.93,2.08,9.61,8.2,12.28L94.5,84l.24,8.72,12-.47.44-7.85-.88-10.62c4.94-1.25,6.7-8.5,6.8-10.65a3.73,3.73,0,0,0,1.31.34,4.71,4.71,0,0,0,.52-9.35Z" transform="translate(0.7 1)"/><path class="cls-10" d="M287.33,50.83h-.05c0-9.61-5.85-17.52-13.49-17.94s-14.32,6.79-15.4,16.34h-.05a4.7,4.7,0,0,0-.52,9.34,3.81,3.81,0,0,0,1.34-.18c.6,5.92,2.08,9.61,8.21,12.28l-.44,10,.23,8.73,12-.48.44-7.84-.89-10.62c4.94-1.26,6.7-8.5,6.8-10.65a3.72,3.72,0,0,0,1.31.33,4.7,4.7,0,0,0,.52-9.34Z" transform="translate(0.7 1)"/><path class="cls-9" d="M0,0" transform="translate(0.7 1)"/><path class="cls-14" d="M234,129.22l2.43-31.67a16.71,16.71,0,0,1,8-13,31.63,31.63,0,0,1,8.54-3.65,61.12,61.12,0,0,1,14.25-1.66s5,13.92,12.24,0l9.94,3.35a22,22,0,0,1,13,11.75L313.05,112l-8.56,10.48-14.44-10L281.3,132H254.9l-5.83-20L247,129.22Z" transform="translate(0.7 1)"/><ellipse class="cls-4" cx="105.38" cy="52.89" rx="2.17" ry="1.58" transform="matrix(0.07, -1, 1, 0.07, 45.78, 155.2)"/><ellipse class="cls-4" cx="94.91" cy="52.89" rx="2.17" ry="1.58" transform="matrix(0.07, -1, 1, 0.07, 36.06, 144.76)"/><path class="cls-4" d="M0,0" transform="translate(0.7 1)"/><path class="cls-4" d="M98.69,32.29,96.6,29.38s-5,.53-2.09-1.29,3.44-.35,3.41.19Z" transform="translate(0.7 1)"/><path class="cls-9" d="M142.41,173.61l2.12,15.72A5.76,5.76,0,0,1,143,194l-6.28,6.66a1.76,1.76,0,0,1-1.37.53h0a1.61,1.61,0,0,1-1.6-1.61h0a3.32,3.32,0,0,1,.95-2.16l4.81-5s-.21-7.22-.4-6.15l-2.54,3.34a1.31,1.31,0,0,1-1.83.18,1.55,1.55,0,0,1-.24-.27h0a1.06,1.06,0,0,1-.17-.67,5.46,5.46,0,0,1,.92-2.43l.71-1s-1-8.11,1-12.08Z" transform="translate(0.7 1)"/><path class="cls-10" d="M237.5,175.41c2.45,4,1.23,12.08,1.23,12.08l.84,1a5,5,0,0,1,1.09,2.43.93.93,0,0,1-.2.67h0a1.2,1.2,0,0,1-.29.26,1.72,1.72,0,0,1-2.16-.18l-3-3.33c-.23-1.08-.48,6.15-.48,6.15l5.68,5a3.2,3.2,0,0,1,1.13,2.16h0a1.79,1.79,0,0,1-1.9,1.62h0a2.32,2.32,0,0,1-1.62-.53l-7.41-6.66a5.21,5.21,0,0,1-1.84-4.71l2.5-15.72Z" transform="translate(0.7 1)"/><polygon class="cls-9" points="139.76 122.69 144.04 182.04 136.77 178.77 127.51 128.05 139.76 122.69"/><rect class="cls-4" x="120.09" y="145.41" width="1" height="0.5" transform="translate(-36.26 42.08) rotate(-16.81)"/><path class="cls-4" d="M124.45,160.12l-.31-1,1-.29.31,1Zm-.61-2-.31-1,1-.29.31,1Zm-.61-2-.31-1,1-.28.31,1Zm-.61-2-.31-1,1-.29.31,1Zm-.61-2-.3-1,1-.29.31,1Zm-.61-2-.31-1,1-.29.31,1Zm-.61-2-.3-1,1-.29.31,1Z" transform="translate(0.7 1)"/><rect class="cls-4" x="124.8" y="160.97" width="1" height="0.5" transform="translate(-40.78 44.43) rotate(-16.91)"/><path class="cls-15" d="M140.08,131.19l-2.43-31.67a16.73,16.73,0,0,0-8-13,31.63,31.63,0,0,0-8.54-3.65,60.6,60.6,0,0,0-14.26-1.65s-5,13.92-12.24,0l-9.93,3.34a22,22,0,0,0-13,11.75L61,114V134.8l23-20.37L92.72,134h26.4L125,114l2.12,17.22Z" transform="translate(0.7 1)"/><path class="cls-16" d="M0,0" transform="translate(0.7 1)"/><path class="cls-9" d="M57.5,76.92,50,81.79,47.5,127.55A8.42,8.42,0,0,0,61,134.8h0a37.29,37.29,0,0,0,2.7-21.36Z" transform="translate(0.7 1)"/><path class="cls-9" d="M58.25,85s2-2.88,1-10.53S56.55,61,56,66.36l-.33,4.13s-3.32-5.25-5-8.54a4.59,4.59,0,0,0-4.86-2.49C44,59.8,43.16,61,44.38,65.17,46.2,71.4,49.08,81,50,82.37,50.29,82.86,58.25,85,58.25,85Z" transform="translate(0.7 1)"/><path class="cls-17" d="M57.44,73.81a7.57,7.57,0,0,1-1-1.58,9,9,0,0,1-.7-1.74A5.86,5.86,0,0,1,56.82,72,6.55,6.55,0,0,1,57.44,73.81Z" transform="translate(0.7 1)"/><path class="cls-9" d="M126.46,319.3l4.29-97.13.37-57.63c2.69,4.66.67-6.9-4-17.46a52.49,52.49,0,0,0-8.2-13.24H92.48l-7.27,13a86,86,0,0,0-10,29L56.81,310.51,55.3,319.3l-14.85,11s17.46,6.3,26.28-3.06l-1.8-8.28,39-152.7h1.43l11.43,152.7-1.8,8.28c8.82,9.36,26.28,3.06,26.28,3.06Z" transform="translate(0.7 1)"/><path class="cls-16" d="M147.07,336.4s-19.62.37-24.3-4v4.05h-8.64S111.42,322,116,322.7s21,13.24,21.33,4.65l6.42,3.3a6.11,6.11,0,0,1,3.31,5.43Z" transform="translate(0.7 1)"/><path class="cls-16" d="M306.72,336.9s-19.62.37-24.3-4v4.05h-8.64s-2.71-14.45,1.89-13.71,21,13.24,21.33,4.65l6.42,3.3a6.1,6.1,0,0,1,3.3,5.43Z" transform="translate(0.7 1)"/><path class="cls-12" d="M92.59,133.84l-7.27,13a86,86,0,0,0-10,29l-7.08,46.25,63.7,0,1.52-41.42a75.93,75.93,0,0,0-6.31-33.67,53,53,0,0,0-8.2-13.24Z" transform="translate(0.7 1)"/><path class="cls-16" d="M34.69,336.4s19.62.37,24.3-4v4.05h8.64S70.35,322,65.75,322.7s-21,13.24-21.33,4.65L38,330.65a6.11,6.11,0,0,0-3.31,5.43Z" transform="translate(0.7 1)"/><path class="cls-16" d="M206.86,336.4s19.62.37,24.3-4v4.05h8.64s2.72-14.45-1.88-13.71-21,13.24-21.33,4.65l-6.42,3.3a6.11,6.11,0,0,0-3.31,5.43Z" transform="translate(0.7 1)"/><path class="cls-16" d="M0,0" transform="translate(0.7 1)"/><ellipse class="cls-4" cx="281.11" cy="54.01" rx="1.75" ry="2.54" transform="translate(-0.55 8) rotate(-1.42)"/><ellipse class="cls-4" cx="269.76" cy="54.01" rx="1.75" ry="2.54" transform="translate(-0.56 7.71) rotate(-1.42)"/><path class="cls-4" d="M0,0" transform="translate(0.7 1)"/><path class="cls-4" d="M0,0" transform="translate(0.7 1)"/><path class="cls-4" d="M0,0" transform="translate(0.7 1)"/><path class="cls-4" d="M296.54,46.07a8.42,8.42,0,0,0-1.7-1.14,1.79,1.79,0,0,0-.83-.13c-.32,0-.66.1-1.09.15a1.79,1.79,0,0,1,2.28-1,2.09,2.09,0,0,1,1,.87A2,2,0,0,1,296.54,46.07Z" transform="translate(0.7 1)"/><path class="cls-18" d="M0,0" transform="translate(0.7 1)"/><path class="cls-18" d="M0,0" transform="translate(0.7 1)"/><path class="cls-18" d="M0,0" transform="translate(0.7 1)"/><path class="cls-18" d="M0,0" transform="translate(0.7 1)"/><path class="cls-4" d="M279.55,63.81s-2.78,6.3-8.36,1.08" transform="translate(0.7 1)"/><path class="cls-4" d="M348.36,39.81s-2.78,6.3-8.36,1.08" transform="translate(0.7 1)"/><polygon class="cls-19" points="372.57 147.33 372.57 312.45 350.49 312.45 347.61 168.45 341.85 168.45 330.81 312.45 308.73 312.45 318.33 147.33 372.57 147.33"/><path class="cls-20" d="M315,86.33c.21,2.26.3,4.52.38,6.78s.11,4.52.12,6.78,0,4.52-.12,6.78l-.14,3.39c-.08,1.13-.13,2.26-.24,3.39-.11-1.13-.16-2.26-.25-3.39l-.14-3.39c-.09-2.26-.1-4.52-.11-6.78s0-4.52.12-6.78S314.78,88.59,315,86.33Zm58.56,1.2c.25,4.1.38,8.2.5,12.29s.16,8.2.24,12.3,0,8.2,0,12.3l-.08,6.16c-.06,2-.09,4.1-.18,6.15-.13-2-.2-4.1-.31-6.15l-.2-6.15c-.12-4.1-.15-8.2-.23-12.3s-.05-8.2,0-12.3S373.38,91.63,373.55,87.53Z" transform="translate(0.7 1)"/><path class="cls-21" d="M325.31,317.21s6,16.8,1,19.2h-5s-2.4-6.72-5.76,0H284.75s-1.92-5.28,5.52-7.68,19.92-11.52,19.92-11.52Z" transform="translate(0.7 1)"/><polygon class="cls-9" points="326.97 312.45 326.01 318.21 310.89 318.21 310.89 312.45 326.97 312.45"/><path class="cls-21" d="M353.5,317.21s-6,16.8-1,19.2h5s2.4-6.72,5.76,0h30.72s1.92-5.28-5.52-7.68-19.92-11.52-19.92-11.52Z" transform="translate(0.7 1)"/><polygon class="cls-9" points="353.24 312.45 354.2 318.21 369.32 318.21 369.32 312.45 353.24 312.45"/><path class="cls-10" d="M312.05,111l2.94,2.93.16,10.48s-8.82,4.81-11.66-2.93Z" transform="translate(0.7 1)"/><path class="cls-22" d="M259,67h-4.15V58.07H259Zm-3.4-.75h2.65V58.82h-2.65Zm37.33.25h-4.15V57.57h4.15Zm-3.4-.75h2.65V58.32h-2.65ZM-.7-1" transform="translate(0.7 1)"/><path class="cls-2" d="M90.55,81.66l1.28,3.09a4.57,4.57,0,0,1-.56,4.47,4.33,4.33,0,0,1-.69.73,4.53,4.53,0,0,1-1.24.77l-4.5,1.85a3.86,3.86,0,0,1-.48.16,3.62,3.62,0,0,1-.92.16,4.55,4.55,0,0,1-4.56-2.81L77.61,87a2.74,2.74,0,0,1,1.49-3.58L87,80.17A2.74,2.74,0,0,1,90.55,81.66Z" transform="translate(0.7 1)"/><path class="cls-2" d="M0,0" transform="translate(0.7 1)"/><path class="cls-2" d="M296.45,85.84l-1.3,3.09a4.54,4.54,0,0,1-3.56,2.75,4.1,4.1,0,0,1-1,0,4.46,4.46,0,0,1-1.43-.34l-4.48-1.88a2.82,2.82,0,0,1-.46-.23,3.74,3.74,0,0,1-.76-.54,4.53,4.53,0,0,1-1.22-5.21l1.29-3.09A2.74,2.74,0,0,1,287.13,79L295,82.25A2.75,2.75,0,0,1,296.45,85.84Z" transform="translate(0.7 1)"/><path class="cls-2" d="M0,0" transform="translate(0.7 1)"/><path class="cls-10" d="M372.2,64.12l-1.3,3.08A4.57,4.57,0,0,1,367.34,70a3.72,3.72,0,0,1-1,0,4.33,4.33,0,0,1-1.42-.33l-4.48-1.89a2.82,2.82,0,0,1-.46-.23,2.92,2.92,0,0,1-.76-.54A4.53,4.53,0,0,1,358,61.78l1.3-3.08a2.74,2.74,0,0,1,3.59-1.47l7.85,3.3A2.75,2.75,0,0,1,372.2,64.12Z" transform="translate(0.7 1)"/><path class="cls-10" d="M0,0" transform="translate(0.7 1)"/><path class="cls-9" d="M258.92,78l1.21,3.12a4.56,4.56,0,0,1-.66,4.46,4.28,4.28,0,0,1-.7.71,4.44,4.44,0,0,1-1.26.74L253,88.74a4,4,0,0,1-.49.15,3.21,3.21,0,0,1-.92.14,4.55,4.55,0,0,1-4.5-2.91L245.86,83a2.74,2.74,0,0,1,1.57-3.54l7.95-3.07A2.74,2.74,0,0,1,258.92,78Z" transform="translate(0.7 1)"/><path class="cls-9" d="M0,0" transform="translate(0.7 1)"/><path class="cls-4" d="M94.07,63.57c4.29,7.31,9.24,1.58,9.24,1.58" transform="translate(0.7 1)"/><path class="cls-4" d="M258.24,44.78c.64.68,6.6,3,6.75,2.93s4.11.83,6.6-.88,9.93-10.51,9.93-10.51l-3.32-3.45-6.46-.52-8,3.52Z" transform="translate(0.7 1)"/><path class="cls-4" d="M287.48,41.93c-2.5,4.3-12.17-1.65-12.17-1.65s3-6.59,3.17-6.44S287.48,41.93,287.48,41.93Z" transform="translate(0.7 1)"/><polygon class="cls-4" points="282.22 36.14 280.46 37.75 283.55 39.66 284.62 38.63 282.22 36.14"/><path class="cls-18" d="M289.41,52.41A43.4,43.4,0,0,0,288,44.75a25.85,25.85,0,0,0-3-7,13.22,13.22,0,0,0-5.32-4.93,13.51,13.51,0,0,0-7.11-1.2,17.92,17.92,0,0,0-12.63,7,17.65,17.65,0,0,0-3.15,6.82,25.86,25.86,0,0,0-.45,7.7,21.77,21.77,0,0,1-.51-7.88,17.4,17.4,0,0,1,2.83-7.54,18.63,18.63,0,0,1,13.74-8.09,17.46,17.46,0,0,1,4.15.19,12.68,12.68,0,0,1,4,1.31,14.36,14.36,0,0,1,5.8,5.81A24.51,24.51,0,0,1,289,44.53,32.53,32.53,0,0,1,289.41,52.41Z" transform="translate(0.7 1)"/></svg>