<?xml version="1.0" encoding="utf-8"?>
<!-- Generator: Adobe Illustrator 25.0.0, SVG Export Plug-In . SVG Version: 6.00 Build 0)  -->
<svg version="1.1"
	 id="Warstwa_1" text-rendering="geometricPrecision" shape-rendering="geometricPrecision" image-rendering="optimizeQuality"
	 xmlns="http://www.w3.org/2000/svg" xmlns:xlink="http://www.w3.org/1999/xlink" x="0px" y="0px" viewBox="0 0 1792 1792"
	 style="enable-background:new 0 0 1792 1792;" xml:space="preserve">
<style type="text/css">
	.st0{fill:none;}
	.st1{fill:#116627;}
	.st2{fill:#CF9E5F;}
	.st3{fill:#D9D9D9;}
	.st4{fill:#9D764B;}
	.st5{fill:#FBD3C1;}
	.st6{fill:#158C37;}
	.st7{fill:#FFFFFF;}
	.st8{fill:#06431B;}
	.st9{fill:#001932;}
	.st10{fill:#132E42;}
	.st11{fill:#664624;}
	.st12{fill:#0A4F6F;}
</style>
<rect y="0" class="st0" width="1792" height="1792"/>
<polygon class="st1" points="498.8,457.4 502.5,420.5 406.2,381.5 401.6,410.9 "/>
<polygon class="st2" points="1644.9,1459.2 1224.2,1598.8 1122.4,1292.1 1543.2,1152.6 "/>
<polygon class="st3" points="1611.4,1130.8 1134.9,1288.9 1073.3,1102.9 1549.8,944.9 "/>
<polygon class="st4" points="1442.8,980.2 1070.2,1103.8 1008.6,917.8 1381.1,794.2 "/>
<path class="st5" d="M463.9,582.1c89,7.9,28.6-87.4,20.2-151.7l-0.3-132.5l-36.6-9.5c0,0-16.3,37.1-40.9,60.4
	c-3.3,31.4-7.2,65.4-9.1,74.2C401.3,439.8,374.8,574.2,463.9,582.1L463.9,582.1z"/>
<path class="st5" d="M539.7,189.1c15.4,35.4-1.8,62,9.6,77.4c11.4,15.3,16.3,13.7,17,20.1c0.7,6.4-10.8,8.7-11.3,17.3
	c-0.6,10.4-3.7,26-4,37c-0.4,13.5,2.8,22-7.8,27.9c-19.7,10.8-53.1-1.9-72-9c-26.9-10.1-52.4-42.3-55.4-66.5
	c-19-5.1-84.5-45.4-50.7-101.4C399.1,135.8,510.7,122.6,539.7,189.1L539.7,189.1z"/>
<path d="M539.7,189.1c-7.4-4.6-64.3-7.4-73.1,23c-7.4,25.5,0.1,36.8-29.4,50.7c-18.5-21.6-35,7.8-20.3,17c3.2,2,1.5,10.3,1.5,10.3
	l10.7,33.6l-22.4,25c0,0-59.3-19.2-64.3-88.1c-5.1-70.1,26.4-112.8,69.9-118.3C490,132.4,527.7,159.9,539.7,189.1L539.7,189.1z"/>
<path class="st6" d="M540.1,186.9c1.5-12.1-12.9-68.3-35.9-82.5C481,90,431.1,84.9,413.7,89c-17.4,4.1-60.6,31.9-74.7,55.8
	c-13.5,22.9,1.1,73,4.5,87.3C422.6,227.3,471.6,215.6,540.1,186.9z"/>
<path class="st1" d="M454.3,216.4c0,0,42.8,2,115.6-3.4c54.8-4.1,61.9-42.4,61.9-42.4l-94.5-5.2c0,0-3.5,7.7-25.7,22.9
	C489.5,203.4,454.3,216.4,454.3,216.4z"/>
<path d="M539.1,262.2c-0.4,5.1-4.9,8.9-10,8.5c-5.1-0.4-8.9-4.9-8.5-10c0.4-5.1,4.9-8.9,10-8.5C535.7,252.6,539.5,257.1,539.1,262.2
	z"/>
<path class="st7" d="M551.3,336.3c1-7.3,2.2-15.3,2.8-22.8l-27.9,0.9C526.2,314.4,537.2,330.8,551.3,336.3z"/>
<path class="st5" d="M438.9,276.5c-2.2,14.6-11.2,25.3-20.1,24c-9-1.4-14.5-14.2-12.3-28.8c2.2-14.5,11.2-25.3,20.1-24
	C435.5,249.2,441,262,438.9,276.5z"/>
<path d="M545.4,242.9l-37.4,0.8l0-2c0.1-5.3,5.6-9.5,12.2-9.3l26-1.3L545.4,242.9L545.4,242.9z"/>
<path class="st6" d="M417,89.7l-15.5,5.4c-2.6,0.9-5.5-0.5-6.4-3.1l0,0c-0.9-2.6,0.5-5.5,3.1-6.4l15.5-5.4c2.6-0.9,5.5,0.5,6.4,3.1
	l0,0C421,85.8,419.6,88.7,417,89.7L417,89.7z"/>
<path d="M365.4,249.3c0,10.4-8.5,18.7-18.8,18.7c-10.4,0-18.8-8.5-18.7-18.8c0-10.4,8.5-18.8,18.8-18.7
	C357,230.5,365.4,238.9,365.4,249.3z"/>
<path d="M367.5,281.5c0,10.3-8.5,18.7-18.8,18.7c-10.4,0-18.8-8.5-18.7-18.8c0-10.4,8.5-18.8,18.8-18.7
	C359.1,262.7,367.5,271.1,367.5,281.5L367.5,281.5z"/>
<path d="M383.2,308.5c0,10.4-8.5,18.8-18.8,18.7c-10.4,0-18.8-8.5-18.7-18.8c0-10.4,8.5-18.8,18.8-18.8
	C374.9,289.7,383.2,298.1,383.2,308.5L383.2,308.5z"/>
<path d="M406.3,329.1c0,10.3-8.5,18.7-18.8,18.7c-10.4,0-18.8-8.5-18.7-18.8c0-10.4,8.5-18.8,18.8-18.8
	C397.9,310.2,406.3,318.7,406.3,329.1z"/>
<path d="M432.6,334.4c0,10.4-8.5,18.8-18.8,18.7c-10.4,0-18.8-8.5-18.7-18.8c0-10.4,8.5-18.7,18.8-18.7
	C424.3,315.6,432.7,324,432.6,334.4z"/>
<path class="st6" d="M508.7,477.8l-27-32.9l-88.5-38.2c0,0-20.8,32.4-20.7,91.2c0.1,38.7,18.3,334.9,18.3,334.9h169
	c0,0,1.5-175,0.9-213.7C560.2,587.7,508.7,477.8,508.7,477.8L508.7,477.8z"/>
<polygon class="st1" points="482.5,454.3 486.2,417.3 389.9,378.4 385.3,407.7 "/>
<polygon class="st8" points="508.7,477.8 486,419.5 483.2,447.8 "/>
<polygon class="st9" points="557.1,868.3 719.6,1265.8 776.4,1620.2 678.8,1622.6 593.1,1289.3 361.8,917.6 "/>
<path class="st10" d="M389.9,832.8c0,0-30.4,59.5-30.4,111c0,21.1-3.7,312-3.7,312l-169.8,303.9l81,42.8l221.5-323.2l71.2-446.4
	H389.9z"/>
<path class="st11" d="M559.5,832.8H389.9c0,0-4.3,9.1-7.3,16.2c-3,7-7.7,19.3-7.7,19.3h182.1L559.5,832.8L559.5,832.8z"/>
<polygon class="st10" points="445.1,868.3 457.6,868.3 457.6,832.8 445.1,832.8 "/>
<path class="st11" d="M147.1,1623l27.6-36.5c0,0,58.8,40.1,68.2,50.2c9.5,15.4,49.4,17.3,53.5,34.3c2.3,9.8-9.7,39.9-9.7,39.9
	s-57-6-74.5-32.7C194.7,1651.4,147.1,1623,147.1,1623L147.1,1623z"/>
<path class="st4" d="M152.9,1615.1c0,0,34,24.1,60.9,57.9c26.9,33.7,77.3,25.6,77.3,25.6l-4,12.2c0,0-50.1,8.9-77.3-25.6
	c-27.2-34.4-62.7-62.2-62.7-62.2L152.9,1615.1z"/>
<path class="st11" d="M702.9,1712.2L691,1668c0,0,67.8-21.9,81.5-23.1c18,1.9,44-28.5,59.8-21.3c9.1,4.2,25.6,32.1,25.6,32.1
	s-39.7,41.4-71.5,38.8C754.5,1692,702.9,1712.2,702.9,1712.2L702.9,1712.2z"/>
<path class="st4" d="M700.3,1702.7c0,0,39.9-12.1,83-12.7c43.1-0.5,67.6-45.4,67.6-45.4l7.2,10.7c0,0-23.7,45.1-67.5,45.4
	c-43.9,0.3-87.6,11.4-87.6,11.4L700.3,1702.7L700.3,1702.7z"/>
<polygon class="st12" points="674.8,1611.4 776.3,1585.8 783,1643.3 691.2,1668.9 "/>
<path class="st12" d="M545.1,868.3h-9.8c0,0.2,1.7,25.5-11.7,47.4c-15.2,24.9-40.2,30.6-45.4,31.5v-78.9h-9.2v88.5
	c0,0,4.8,0.3,9.2,0c4.5-0.3,34.6-5.4,53.4-36.2C546.6,896.1,545.2,869.4,545.1,868.3z"/>
<polygon points="1246,1623.1 1215,1633.1 920.7,652.7 950.8,643.7 "/>
<polygon points="1492.6,1509.4 1501.6,1539.5 1214.7,1633.4 1206.3,1603.3 "/>
<polygon points="1215.1,1633.4 981.7,1607 830,1084.7 953.1,844.2 690.8,810.6 694.3,782.7 996.3,821.4 860.1,1087.5 1003.3,1580.6 
	1217.6,1604.9 "/>
<path d="M1096.3,1589.5c15.1,50.2-13.4,103.1-63.6,118.1c-50.2,15-103.1-13.4-118.1-63.6c-15.1-50.2,13.4-103,63.6-118.1
	C1028.4,1510.8,1081.3,1539.3,1096.3,1589.5z"/>
<path class="st5" d="M774.7,784.9c0,0-3.6,6.7-16.8,8c-13.6,1.3-16.1-3.4-16.1-3.4s-7.3,10.8-17.7,13.8c-10.3,2.9-28.8-6-28.8-6
	l4.3-14.1l53.1-7.7L774.7,784.9L774.7,784.9z"/>
<path class="st5" d="M692.5,820.1l7-37l-144.4-96.5l-81.6-192c-12.7-33.9-41.1-44.2-51.9-38.1L396,484.1
	c-10.7,6.1,29.9,78.9,35.4,91.6l89.2,160L692.5,820.1L692.5,820.1z"/>
<path class="st5" d="M699.5,783.1l47.8,5.8c0,0,0.1,12.4,19.5,24.6c18.3,11.6,38.9,11.6,38.9,11.6s-8.3,10-23.5,16.1
	c-13,5.3-36,1.5-48.1-1.5c-26.2-6.5-41.7-19.6-41.7-19.6l-3.6-16.3L699.5,783.1L699.5,783.1z"/>
<path class="st1" d="M426.8,586.8c9-1.6,28.8-6.7,40.5-11.7c18.7-8,33.8-22,38.6-29.9l-30.8-60.7c-18.3-37.9-38.9-42.4-58.1-35
	c-19.3,7.4-27.4,16.5-22.1,45.8C400.1,524.7,426.8,586.8,426.8,586.8L426.8,586.8z"/>
<path class="st7" d="M458.1,554.2c-10.9,4.4-28.1,9.2-39.2,11.6c4.5,12.4,7.9,21,7.9,21c9-1.6,28.8-6.7,40.5-11.7
	c18.7-8,33.8-22,38.6-29.9l-9.4-18.4C490.4,534.1,475.2,547.1,458.1,554.2z"/>
<polygon class="st12" points="200.6,1531.4 278.8,1594.6 246.3,1640.1 170.4,1584.2 "/>
</svg>
