<?xml version="1.0" encoding="utf-8"?>
<!-- Generator: Adobe Illustrator 25.0.0, SVG Export Plug-In . SVG Version: 6.00 Build 0)  -->
<svg version="1.1" id="Warstwa_1" xmlns="http://www.w3.org/2000/svg" xmlns:xlink="http://www.w3.org/1999/xlink" x="0px" y="0px"
	 viewBox="0 0 800 800" style="enable-background:new 0 0 800 800;" xml:space="preserve">
<style type="text/css">
	.st0{fill-rule:evenodd;clip-rule:evenodd;}
</style>
<path class="st0" d="M711.1,319.3C711.1,139.6,571.6,0,400,0S88.9,139.6,88.9,311.1C37.2,337.6,0,386.5,0,444.4v88.9
	C0,607,59.7,666.7,133.3,666.7h44.4c24.5,0,44.4-19.9,44.4-44.4V355.6c0-24.5-19.9-44.4-44.4-44.4c0-122.7,99.5-222.2,222.2-222.2
	s222.2,99.5,222.2,222.2c-24.5,0-44.4,19.9-44.4,44.4v266.7c0,24.5,19.9,44.4,44.4,44.4v44.4H507c-9.2-25.8-33.6-44.4-62.6-44.4
	h-88.9c-36.8,0-66.7,29.8-66.7,66.7s29.8,66.7,66.7,66.7h266.7c49.1,0,88.9-39.8,88.9-88.9v-52.6c53.2-18.7,88.8-68.8,88.9-125.2
	v-88.9C799.9,388.1,764.3,337.9,711.1,319.3L-311.1,2755.6"/>
</svg>
