<svg id="Warstwa_1" data-name="Warstwa 1" xmlns="http://www.w3.org/2000/svg" viewBox="0 0 25.57 24.48"><defs><style>.cls-1{fill:#398e37;}.cls-2{fill:#48ac33;}.cls-3{fill:#fff;}.cls-4{fill:#c8d400;}</style></defs><circle class="cls-1" cx="10.69" cy="10.69" r="10.69"/><circle class="cls-2" cx="18.13" cy="17.04" r="7.44"/><path class="cls-3" d="M285.13,426.69V415.94a.81.81,0,0,1,.23-.57.78.78,0,0,1,1.33.55v3.69l5-4.26a.86.86,0,0,1,.59-.21.7.7,0,0,1,.54.24.78.78,0,0,1,.23.55.7.7,0,0,1-.26.53l-5.65,4.81,5.66,4.89a.64.64,0,0,1,.23.5.82.82,0,0,1-.23.56.72.72,0,0,1-.56.25.87.87,0,0,1-.57-.21l-5-4.28v3.71a.79.79,0,0,1-.78.78.78.78,0,0,1-.55-.23A.75.75,0,0,1,285.13,426.69Z" transform="translate(-277.88 -404.17)"/><path class="cls-3" d="M295.32,415.14h6.3a.78.78,0,0,1,.55.23.8.8,0,0,1-.55,1.35h-2.35v9.19h2.35a.77.77,0,0,1,.56.23.74.74,0,0,1,.22.55.71.71,0,0,1-.23.55.76.76,0,0,1-.55.23h-6.3a.79.79,0,0,1-.56-.23.8.8,0,0,1,0-1.1.79.79,0,0,1,.56-.23h2.39v-9.19h-2.39a.79.79,0,0,1-.56-.23.77.77,0,0,1-.22-.55.8.8,0,0,1,.22-.57A.79.79,0,0,1,295.32,415.14Z" transform="translate(-277.88 -404.17)"/><circle class="cls-4" cx="20.5" cy="7.89" r="2.37"/></svg>