<svg id="Warstwa_1" data-name="Warstwa 1" xmlns="http://www.w3.org/2000/svg" viewBox="0 0 83.24 26.14"><defs><style>.cls-1{fill:#1c753b;}.cls-2{fill:#a7d05d;}.cls-3{fill:#3d9345;}.cls-4{fill:#47b649;}.cls-5{fill:#fff;}.cls-6{fill:#bfd730;}</style></defs><circle class="cls-1" cx="59.77" cy="15.73" r="5.04"/><circle class="cls-2" cx="79.48" cy="22.37" r="3.76"/><circle class="cls-3" cx="10.69" cy="10.69" r="10.69"/><circle class="cls-4" cx="18.13" cy="17.04" r="7.44"/><path class="cls-5" d="M215.54,237.17V226.42a.77.77,0,0,1,.23-.57.75.75,0,0,1,.55-.23.76.76,0,0,1,.55.23.75.75,0,0,1,.23.55v3.69l5-4.27a.84.84,0,0,1,.58-.2.72.72,0,0,1,.55.24.77.77,0,0,1,.22.55.69.69,0,0,1-.25.53l-5.66,4.81,5.67,4.89a.6.6,0,0,1,.22.5.81.81,0,0,1-.22.56.72.72,0,0,1-.56.25.87.87,0,0,1-.57-.21l-5-4.28v3.71a.75.75,0,0,1-.23.55.76.76,0,0,1-.55.23.78.78,0,0,1-.55-.23A.75.75,0,0,1,215.54,237.17Z" transform="translate(-208.29 -214.65)"/><path class="cls-5" d="M225.72,225.62H232a.74.74,0,0,1,.54.23.75.75,0,0,1,.24.55.79.79,0,0,1-.23.56.75.75,0,0,1-.55.24h-2.35v9.19H232a.75.75,0,0,1,.55.23.71.71,0,0,1,.23.55.75.75,0,0,1-.23.55.78.78,0,0,1-.55.23h-6.31a.76.76,0,0,1-.55-.23.77.77,0,0,1,0-1.1.76.76,0,0,1,.55-.23h2.4V227.2h-2.4a.76.76,0,0,1-.55-.23.78.78,0,0,1-.23-.55.81.81,0,0,1,.23-.57A.76.76,0,0,1,225.72,225.62Z" transform="translate(-208.29 -214.65)"/><path class="cls-5" d="M239.08,230.44v5.19l.46.76h.64l.48-.78v-9.19a.77.77,0,0,1,.23-.56.78.78,0,0,1,.57-.24.79.79,0,0,1,.77.78v9.46a1,1,0,0,1-.19.49l-.72,1.2a.73.73,0,0,1-.68.4h-1.47a.84.84,0,0,1-.89-.63.83.83,0,0,1-.85.63h-1.37a.91.91,0,0,1-.86-.44l-.67-1.12a1.08,1.08,0,0,1-.18-.53v-9.44a.82.82,0,0,1,.8-.8.71.71,0,0,1,.53.24.77.77,0,0,1,.23.56v9.23l.45.74H237l.49-.78v-5.17a.76.76,0,0,1,.23-.55.8.8,0,0,1,1.1,0A.76.76,0,0,1,239.08,230.44Z" transform="translate(-208.29 -214.65)"/><path class="cls-5" d="M244.53,225.62h6.31a.74.74,0,0,1,.54.23.75.75,0,0,1,.24.55.79.79,0,0,1-.23.56.75.75,0,0,1-.55.24h-2.35v9.19h2.35a.75.75,0,0,1,.55.23.71.71,0,0,1,.23.55.75.75,0,0,1-.23.55.78.78,0,0,1-.55.23h-6.31a.76.76,0,0,1-.55-.23.77.77,0,0,1,0-1.1.76.76,0,0,1,.55-.23h2.4V227.2h-2.4A.76.76,0,0,1,244,227a.78.78,0,0,1-.23-.55.81.81,0,0,1,.23-.57A.76.76,0,0,1,244.53,225.62Z" transform="translate(-208.29 -214.65)"/><path class="cls-5" d="M261,231.73v.69a.79.79,0,0,1-.23.56.74.74,0,0,1-.55.24H254a.76.76,0,0,1-.56-.24.78.78,0,0,1-.22-.56v-.69a.75.75,0,0,1,.22-.55A.78.78,0,0,1,254,231h6.29a.84.84,0,0,1,.54.21A.74.74,0,0,1,261,231.73Z" transform="translate(-208.29 -214.65)"/><path class="cls-5" d="M262.58,237.17V226.42a.81.81,0,0,1,.23-.57.76.76,0,0,1,.55-.23.75.75,0,0,1,.55.23.77.77,0,0,1,.23.57v6.36l4.19-3.56a.9.9,0,0,1,.59-.22.77.77,0,0,1,.56.23.85.85,0,0,1,.22.57.69.69,0,0,1-.24.55l-3.27,2.76,4,3.53a.63.63,0,0,1,.24.51.77.77,0,0,1-.22.55.7.7,0,0,1-.55.25.88.88,0,0,1-.58-.21L265,234.13l-.82.69v2.35a.71.71,0,0,1-.23.55.75.75,0,0,1-.55.23.76.76,0,0,1-.55-.23A.75.75,0,0,1,262.58,237.17Z" transform="translate(-208.29 -214.65)"/><path class="cls-5" d="M279.84,231.81v3.29a2.59,2.59,0,0,1-1,1.94,3.06,3.06,0,0,1-2,.89H275a3,3,0,0,1-2-.9,2.64,2.64,0,0,1-1-1.93v-3.29a2.69,2.69,0,0,1,.95-1.93A2.94,2.94,0,0,1,275,229h1.83a3,3,0,0,1,2,.87A2.61,2.61,0,0,1,279.84,231.81Zm-6.29.06V235a.85.85,0,0,0,.3.68l.59.5a.81.81,0,0,0,.54.16h1.81a1.08,1.08,0,0,0,.73-.28l.47-.42a.75.75,0,0,0,.29-.62v-3.16a.8.8,0,0,0-.29-.68l-.55-.44a1,1,0,0,0-.65-.23h-1.61a1.2,1.2,0,0,0-.82.25l-.53.45A.78.78,0,0,0,273.55,231.87Z" transform="translate(-208.29 -214.65)"/><path class="cls-5" d="M281.2,237.17v-7.39a.75.75,0,0,1,.23-.56A.74.74,0,0,1,282,229a.73.73,0,0,1,.76.59,2,2,0,0,1,1.44-.61,1.85,1.85,0,0,1,1.54.8,2.22,2.22,0,0,1,1.63-.8,1.78,1.78,0,0,1,1.26.51,1.94,1.94,0,0,1,.57,1.32l.22,6.36a.78.78,0,0,1-1.34.55.84.84,0,0,1-.24-.55l-.18-6.11c0-.34-.12-.5-.31-.5a.48.48,0,0,0-.32.14l-.93.77v5.7a.78.78,0,0,1-1.56,0V231c0-.27-.11-.4-.34-.4a.48.48,0,0,0-.31.12l-1.11.94v5.55a.78.78,0,0,1-.23.55.7.7,0,0,1-.53.23.81.81,0,0,1-.57-.23A.78.78,0,0,1,281.2,237.17Z" transform="translate(-208.29 -214.65)"/><circle class="cls-6" cx="39.36" cy="7.89" r="2.37"/><circle class="cls-6" cx="20.5" cy="7.89" r="2.37"/></svg>